M48
;Layer_Color=9474304
;FILE_FORMAT=4:4
METRIC,LZ
;TYPE=PLATED
T01F00S00C0.7112
T02F00S00C0.8500
T03F00S00C1.2000
T04F00S00C1.2800
T05F00S00C1.3000
T06F00S00C1.4224
%
T01
X0051575Y004085
X0048425Y0044575
X005985
T02
X0066075Y003195
Y004095
X006605Y0043225
Y0052225
T03
X0056525Y005305
X0059025
X0061525
X007367Y004984
Y00473
Y004476
T04
X007525Y0033335
Y0035875
Y0038415
T05
X00346Y003931
X008495Y003846
Y004354
X0049465Y00569
X0044385
X00346Y004439
T06
X00275Y00275
X00905
Y00715
X00275
M30
