G04*
G04 #@! TF.GenerationSoftware,Altium Limited,Altium Designer,24.1.2 (44)*
G04*
G04 Layer_Physical_Order=1*
G04 Layer_Color=255*
%FSLAX44Y44*%
%MOMM*%
G71*
G04*
G04 #@! TF.SameCoordinates,0D61027A-B9A4-4D08-A004-814C5E794B05*
G04*
G04*
G04 #@! TF.FilePolarity,Positive*
G04*
G01*
G75*
%ADD12C,0.2540*%
%ADD14R,1.9000X2.3000*%
%ADD15O,2.5000X0.7000*%
%ADD16R,0.9000X1.2000*%
%ADD17R,0.9096X0.9121*%
%ADD18R,1.6582X0.9561*%
%ADD19R,1.7000X0.9500*%
%ADD30C,1.8500*%
%ADD31R,1.8500X1.8500*%
%ADD35C,1.0000*%
%ADD36C,0.5000*%
%ADD37R,1.9200X1.9200*%
%ADD38C,1.9200*%
%ADD39R,1.7000X1.7000*%
%ADD40C,1.7000*%
%ADD41R,1.8000X2.0320*%
%ADD42C,1.8000*%
%ADD43R,1.8000X1.8000*%
%ADD44C,1.3500*%
%ADD45R,1.8000X1.8000*%
%ADD46C,2.5400*%
%ADD47C,1.2700*%
G36*
X499690Y586069D02*
X500007Y582869D01*
X500285Y581570D01*
X500642Y580470D01*
X501079Y579570D01*
X501595Y578870D01*
X502191Y578369D01*
X502865Y578069D01*
X503619Y577970D01*
X485681D01*
X486435Y578069D01*
X487110Y578369D01*
X487705Y578870D01*
X488221Y579570D01*
X488658Y580470D01*
X489015Y581570D01*
X489293Y582869D01*
X489491Y584370D01*
X489610Y586069D01*
X489650Y587970D01*
X499650D01*
X499690Y586069D01*
D02*
G37*
G36*
X450560Y562942D02*
X450387Y562579D01*
X450235Y562136D01*
X450103Y561613D01*
X449991Y561010D01*
X449829Y559563D01*
X449748Y557797D01*
X449738Y556793D01*
X439738Y555594D01*
X439722Y556588D01*
X439600Y558339D01*
X439494Y559096D01*
X439357Y559774D01*
X439189Y560374D01*
X438991Y560894D01*
X438763Y561336D01*
X438504Y561699D01*
X438215Y561983D01*
X450753Y563225D01*
X450560Y562942D01*
D02*
G37*
G36*
X497757Y564945D02*
X497371Y564288D01*
X497031Y563496D01*
X496736Y562568D01*
X496487Y561506D01*
X496283Y560308D01*
X496256Y560031D01*
X497190D01*
X496949Y560005D01*
X496733Y559929D01*
X496542Y559802D01*
X496377Y559624D01*
X496237Y559395D01*
X496181Y559257D01*
X496011Y557506D01*
X495943Y555903D01*
X495920Y554164D01*
X493380D01*
X493357Y555903D01*
X493093Y559320D01*
X493063Y559395D01*
X492923Y559624D01*
X492758Y559802D01*
X492567Y559929D01*
X492351Y560005D01*
X492110Y560031D01*
X493039D01*
X493017Y560308D01*
X492813Y561506D01*
X492564Y562568D01*
X492269Y563496D01*
X491929Y564288D01*
X491543Y564945D01*
X491112Y565467D01*
X498188D01*
X497757Y564945D01*
D02*
G37*
G36*
X665768Y526552D02*
X666238Y526174D01*
X666731Y525840D01*
X667247Y525551D01*
X667786Y525306D01*
X668347Y525106D01*
X668931Y524950D01*
X669538Y524839D01*
X670168Y524772D01*
X670820Y524750D01*
Y519750D01*
X670168Y519728D01*
X669538Y519661D01*
X668931Y519550D01*
X668347Y519394D01*
X667786Y519194D01*
X667247Y518949D01*
X666731Y518660D01*
X666238Y518326D01*
X665768Y517948D01*
X665321Y517525D01*
Y526975D01*
X665768Y526552D01*
D02*
G37*
G36*
X620545Y523750D02*
X619958Y523061D01*
X619440Y522366D01*
X618992Y521662D01*
X618613Y520951D01*
X618302Y520231D01*
X618060Y519504D01*
X617888Y518769D01*
X617785Y518027D01*
X617750Y517276D01*
X612750D01*
X612715Y518027D01*
X612612Y518769D01*
X612439Y519504D01*
X612198Y520231D01*
X611888Y520951D01*
X611508Y521662D01*
X611059Y522366D01*
X610542Y523061D01*
X609955Y523750D01*
X609300Y524430D01*
X621200D01*
X620545Y523750D01*
D02*
G37*
G36*
X568357Y526445D02*
X567971Y525788D01*
X567631Y524996D01*
X567336Y524068D01*
X567087Y523006D01*
X566921Y522030D01*
X567790D01*
X567549Y522005D01*
X567333Y521929D01*
X567142Y521802D01*
X566977Y521624D01*
X566844Y521406D01*
X566611Y519006D01*
X566543Y517403D01*
X566520Y515664D01*
X563980D01*
X563957Y517403D01*
X563647Y521421D01*
X563523Y521624D01*
X563358Y521802D01*
X563167Y521929D01*
X562951Y522005D01*
X562710Y522030D01*
X563579D01*
X563413Y523006D01*
X563164Y524068D01*
X562869Y524996D01*
X562529Y525788D01*
X562143Y526445D01*
X561712Y526967D01*
X568788D01*
X568357Y526445D01*
D02*
G37*
G36*
X484533Y506021D02*
X484571Y505584D01*
X484634Y505199D01*
X484723Y504864D01*
X484837Y504582D01*
X484977Y504350D01*
X485142Y504170D01*
X485333Y504042D01*
X485549Y503965D01*
X485790Y503939D01*
X480710D01*
X480951Y503965D01*
X481167Y504042D01*
X481358Y504170D01*
X481523Y504350D01*
X481662Y504582D01*
X481777Y504864D01*
X481866Y505199D01*
X481929Y505584D01*
X481967Y506021D01*
X481980Y506510D01*
X484520D01*
X484533Y506021D01*
D02*
G37*
G36*
X701525Y507305D02*
X701600Y506450D01*
X701725Y505695D01*
X701900Y505041D01*
X702125Y504488D01*
X702400Y504035D01*
X702725Y503683D01*
X703100Y503431D01*
X703525Y503280D01*
X704000Y503230D01*
X694000D01*
X694475Y503280D01*
X694900Y503431D01*
X695275Y503683D01*
X695600Y504035D01*
X695875Y504488D01*
X696100Y505041D01*
X696275Y505695D01*
X696400Y506450D01*
X696475Y507305D01*
X696500Y508261D01*
X701500D01*
X701525Y507305D01*
D02*
G37*
G36*
X566533Y503271D02*
X566571Y502834D01*
X566634Y502449D01*
X566723Y502114D01*
X566838Y501832D01*
X566977Y501600D01*
X567142Y501420D01*
X567333Y501292D01*
X567549Y501215D01*
X567790Y501189D01*
X562710D01*
X562951Y501215D01*
X563167Y501292D01*
X563358Y501420D01*
X563523Y501600D01*
X563662Y501832D01*
X563777Y502114D01*
X563866Y502449D01*
X563929Y502834D01*
X563967Y503271D01*
X563980Y503759D01*
X566520D01*
X566533Y503271D01*
D02*
G37*
G36*
X492495Y501549D02*
X492571Y501333D01*
X492698Y501142D01*
X492876Y500977D01*
X493105Y500838D01*
X493384Y500723D01*
X493714Y500634D01*
X494095Y500571D01*
X494527Y500533D01*
X495009Y500520D01*
Y497980D01*
X494527Y497967D01*
X494095Y497929D01*
X493714Y497866D01*
X493384Y497777D01*
X493105Y497663D01*
X492876Y497523D01*
X492698Y497358D01*
X492571Y497167D01*
X492495Y496951D01*
X492469Y496710D01*
Y501790D01*
X492495Y501549D01*
D02*
G37*
G36*
X707311Y502812D02*
X707461Y502411D01*
X707711Y502057D01*
X708061Y501750D01*
X708511Y501490D01*
X709061Y501278D01*
X709711Y501112D01*
X710461Y500994D01*
X711311Y500924D01*
X712261Y500900D01*
Y495900D01*
X711311Y495879D01*
X710461Y495814D01*
X709711Y495708D01*
X709061Y495558D01*
X708511Y495365D01*
X708061Y495130D01*
X707711Y494852D01*
X707461Y494531D01*
X707311Y494167D01*
X707261Y493761D01*
Y503261D01*
X707311Y502812D01*
D02*
G37*
G36*
X727511Y493400D02*
X727461Y493875D01*
X727310Y494300D01*
X727058Y494675D01*
X726706Y495000D01*
X726253Y495275D01*
X725700Y495500D01*
X725046Y495675D01*
X724292Y495800D01*
X723436Y495875D01*
X722480Y495900D01*
Y500900D01*
X723436Y500925D01*
X724292Y501000D01*
X725046Y501125D01*
X725700Y501300D01*
X726253Y501525D01*
X726706Y501800D01*
X727058Y502125D01*
X727310Y502500D01*
X727461Y502925D01*
X727511Y503400D01*
Y493400D01*
D02*
G37*
G36*
X537561Y492710D02*
X537535Y492951D01*
X537458Y493167D01*
X537330Y493358D01*
X537150Y493523D01*
X536918Y493662D01*
X536636Y493777D01*
X536301Y493866D01*
X535916Y493929D01*
X535479Y493967D01*
X534991Y493980D01*
Y496520D01*
X535479Y496533D01*
X535916Y496571D01*
X536301Y496634D01*
X536636Y496723D01*
X536918Y496838D01*
X537150Y496977D01*
X537330Y497142D01*
X537458Y497333D01*
X537535Y497549D01*
X537561Y497790D01*
Y492710D01*
D02*
G37*
G36*
X567549Y489255D02*
X567333Y489179D01*
X567142Y489052D01*
X566977Y488874D01*
X566838Y488646D01*
X566723Y488366D01*
X566634Y488036D01*
X566571Y487655D01*
X566533Y487223D01*
X566520Y486740D01*
X563980D01*
X563967Y487223D01*
X563929Y487655D01*
X563866Y488036D01*
X563777Y488366D01*
X563662Y488646D01*
X563523Y488874D01*
X563358Y489052D01*
X563167Y489179D01*
X562951Y489255D01*
X562710Y489281D01*
X567790D01*
X567549Y489255D01*
D02*
G37*
G36*
X566533Y476601D02*
X566571Y476164D01*
X566634Y475779D01*
X566723Y475444D01*
X566838Y475162D01*
X566977Y474930D01*
X567142Y474750D01*
X567333Y474622D01*
X567549Y474545D01*
X567790Y474519D01*
X562710D01*
X562951Y474545D01*
X563167Y474622D01*
X563358Y474750D01*
X563523Y474930D01*
X563662Y475162D01*
X563777Y475444D01*
X563866Y475779D01*
X563929Y476164D01*
X563967Y476601D01*
X563980Y477089D01*
X566520D01*
X566533Y476601D01*
D02*
G37*
G36*
X504879Y468534D02*
X504845Y468771D01*
X504743Y468983D01*
X504574Y469170D01*
X504336Y469332D01*
X504030Y469468D01*
X503656Y469581D01*
X503214Y469668D01*
X502704Y469730D01*
X502127Y469767D01*
X501481Y469780D01*
Y472320D01*
X502127Y472332D01*
X503214Y472432D01*
X503656Y472519D01*
X504030Y472631D01*
X504336Y472768D01*
X504574Y472930D01*
X504743Y473117D01*
X504845Y473329D01*
X504879Y473566D01*
Y468534D01*
D02*
G37*
G36*
X492495Y473349D02*
X492571Y473133D01*
X492698Y472942D01*
X492876Y472777D01*
X493105Y472637D01*
X493384Y472523D01*
X493714Y472434D01*
X494095Y472371D01*
X494527Y472333D01*
X495009Y472320D01*
Y469780D01*
X494527Y469767D01*
X494095Y469729D01*
X493714Y469666D01*
X493384Y469577D01*
X493105Y469463D01*
X492876Y469323D01*
X492698Y469158D01*
X492571Y468967D01*
X492495Y468751D01*
X492469Y468510D01*
Y473590D01*
X492495Y473349D01*
D02*
G37*
G36*
X475561Y468510D02*
X475535Y468751D01*
X475458Y468967D01*
X475330Y469158D01*
X475150Y469323D01*
X474918Y469463D01*
X474636Y469577D01*
X474301Y469666D01*
X473916Y469729D01*
X473479Y469767D01*
X472990Y469780D01*
Y472320D01*
X473479Y472333D01*
X473916Y472371D01*
X474301Y472434D01*
X474636Y472523D01*
X474918Y472637D01*
X475150Y472777D01*
X475330Y472942D01*
X475458Y473133D01*
X475535Y473349D01*
X475561Y473590D01*
Y468510D01*
D02*
G37*
G36*
X464275Y473349D02*
X464352Y473133D01*
X464481Y472942D01*
X464661Y472777D01*
X464892Y472637D01*
X465175Y472523D01*
X465509Y472434D01*
X465895Y472371D01*
X466332Y472333D01*
X466820Y472320D01*
Y469780D01*
X466332Y469767D01*
X465895Y469729D01*
X465509Y469666D01*
X465175Y469577D01*
X464892Y469463D01*
X464661Y469323D01*
X464481Y469158D01*
X464352Y468967D01*
X464275Y468751D01*
X464250Y468510D01*
Y473590D01*
X464275Y473349D01*
D02*
G37*
G36*
X707311Y476503D02*
X707461Y476293D01*
X707711Y476107D01*
X708061Y475946D01*
X708511Y475810D01*
X709061Y475698D01*
X709711Y475611D01*
X711311Y475512D01*
X712261Y475500D01*
Y470500D01*
X711306Y470475D01*
X710452Y470400D01*
X709699Y470275D01*
X709045Y470100D01*
X708492Y469875D01*
X708039Y469600D01*
X707687Y469275D01*
X707434Y468900D01*
X707282Y468475D01*
X707230Y468000D01*
X707261Y476739D01*
X707311Y476503D01*
D02*
G37*
G36*
X730094Y466525D02*
X729314Y467280D01*
X728533Y467956D01*
X727751Y468552D01*
X726968Y469069D01*
X726184Y469506D01*
X725398Y469864D01*
X724611Y470142D01*
X723823Y470341D01*
X723034Y470460D01*
X722244Y470500D01*
Y475500D01*
X723034Y475540D01*
X723823Y475659D01*
X724611Y475858D01*
X725398Y476136D01*
X726184Y476494D01*
X726968Y476931D01*
X727751Y477448D01*
X728533Y478044D01*
X729314Y478720D01*
X730094Y479475D01*
Y466525D01*
D02*
G37*
G36*
X576181Y461280D02*
X576449Y461190D01*
X576802Y461110D01*
X577242Y461041D01*
X578381Y460935D01*
X580734Y460855D01*
X581691Y460850D01*
Y455850D01*
X580734Y455845D01*
X576802Y455590D01*
X576449Y455510D01*
X576181Y455420D01*
X576000Y455319D01*
Y461381D01*
X576181Y461280D01*
D02*
G37*
G36*
X554500Y455319D02*
X554319Y455420D01*
X554051Y455510D01*
X553698Y455590D01*
X553258Y455659D01*
X552119Y455765D01*
X549766Y455845D01*
X548809Y455850D01*
Y460850D01*
X549766Y460855D01*
X553698Y461110D01*
X554051Y461190D01*
X554319Y461280D01*
X554500Y461381D01*
Y455319D01*
D02*
G37*
G36*
X505500D02*
X505319Y455420D01*
X505051Y455510D01*
X504698Y455590D01*
X504258Y455659D01*
X503119Y455765D01*
X500766Y455845D01*
X499809Y455850D01*
Y460850D01*
X500766Y460855D01*
X504698Y461110D01*
X505051Y461190D01*
X505319Y461280D01*
X505500Y461381D01*
Y455319D01*
D02*
G37*
G36*
X492839Y450804D02*
X492409Y450346D01*
X492024Y449879D01*
X491686Y449403D01*
X491393Y448917D01*
X491146Y448423D01*
X490945Y447919D01*
X490790Y447406D01*
X490681Y446885D01*
X490617Y446354D01*
X490600Y445813D01*
X484314Y452100D01*
X484854Y452117D01*
X485385Y452180D01*
X485906Y452290D01*
X486419Y452445D01*
X486923Y452646D01*
X487417Y452893D01*
X487903Y453186D01*
X488379Y453524D01*
X488846Y453909D01*
X489304Y454339D01*
X492839Y450804D01*
D02*
G37*
G36*
X576169Y448589D02*
X576425Y448508D01*
X576769Y448436D01*
X577201Y448373D01*
X578326Y448277D01*
X580670Y448205D01*
X581626Y448200D01*
X581743Y443200D01*
X580788Y443194D01*
X576834Y442915D01*
X576472Y442828D01*
X576193Y442730D01*
X576000Y442619D01*
Y448681D01*
X576169Y448589D01*
D02*
G37*
G36*
X527181Y448580D02*
X527449Y448490D01*
X527802Y448410D01*
X528242Y448341D01*
X529381Y448235D01*
X531734Y448155D01*
X532691Y448150D01*
Y443150D01*
X531734Y443145D01*
X527802Y442890D01*
X527449Y442810D01*
X527181Y442720D01*
X527000Y442619D01*
Y448681D01*
X527181Y448580D01*
D02*
G37*
G36*
X854513Y447286D02*
X854708Y444763D01*
X854825Y444078D01*
X854968Y443472D01*
X855137Y442943D01*
X855332Y442493D01*
X855553Y442121D01*
X855800Y441827D01*
X843200D01*
X843447Y442121D01*
X843668Y442493D01*
X843863Y442943D01*
X844032Y443472D01*
X844175Y444078D01*
X844292Y444763D01*
X844448Y446367D01*
X844487Y447286D01*
X844500Y448283D01*
X854500D01*
X854513Y447286D01*
D02*
G37*
G36*
X594000Y441269D02*
X593603Y441636D01*
X593180Y441964D01*
X592732Y442254D01*
X592257Y442505D01*
X591758Y442717D01*
X591232Y442891D01*
X590681Y443026D01*
X590105Y443123D01*
X589502Y443181D01*
X588875Y443200D01*
X588832Y448200D01*
X589460Y448220D01*
X590062Y448278D01*
X590638Y448376D01*
X591188Y448513D01*
X591711Y448690D01*
X592207Y448905D01*
X592677Y449160D01*
X593121Y449454D01*
X593539Y449787D01*
X593930Y450159D01*
X594000Y441269D01*
D02*
G37*
G36*
X745983Y447078D02*
X746092Y446615D01*
X746275Y446118D01*
X746534Y445588D01*
X746868Y445025D01*
X747276Y444428D01*
X747760Y443798D01*
X748954Y442438D01*
X749663Y441708D01*
X742592Y434637D01*
X741862Y435346D01*
X739872Y437024D01*
X739275Y437432D01*
X738712Y437766D01*
X738182Y438025D01*
X737685Y438209D01*
X737222Y438317D01*
X736793Y438350D01*
X745950Y447508D01*
X745983Y447078D01*
D02*
G37*
G36*
X576266Y435813D02*
X576606Y435664D01*
X577019Y435532D01*
X577506Y435417D01*
X578067Y435320D01*
X579409Y435179D01*
X581045Y435109D01*
X581973Y435100D01*
X581235Y430100D01*
X580311Y430095D01*
X576241Y429840D01*
X575809Y429761D01*
X575447Y429670D01*
X575156Y429570D01*
X576000Y435981D01*
X576266Y435813D01*
D02*
G37*
G36*
X655441Y427781D02*
X655018Y428222D01*
X654570Y428616D01*
X654096Y428964D01*
X653596Y429265D01*
X653070Y429520D01*
X652518Y429729D01*
X651940Y429891D01*
X651336Y430007D01*
X650707Y430077D01*
X650052Y430100D01*
X650331Y435100D01*
X650981Y435121D01*
X651610Y435185D01*
X652219Y435291D01*
X652809Y435439D01*
X653379Y435630D01*
X653929Y435863D01*
X654459Y436138D01*
X654970Y436456D01*
X655460Y436816D01*
X655931Y437219D01*
X655441Y427781D01*
D02*
G37*
G36*
X520275Y429431D02*
X519850Y429280D01*
X519475Y429028D01*
X519150Y428676D01*
X518875Y428223D01*
X518650Y427670D01*
X518475Y427016D01*
X518350Y426261D01*
X518275Y425406D01*
X518250Y424450D01*
X513250D01*
X513225Y425406D01*
X513150Y426261D01*
X513025Y427016D01*
X512850Y427670D01*
X512625Y428223D01*
X512350Y428676D01*
X512025Y429028D01*
X511650Y429280D01*
X511225Y429431D01*
X510750Y429481D01*
X520750D01*
X520275Y429431D01*
D02*
G37*
G36*
X664898Y427062D02*
X664526Y426584D01*
X664197Y426085D01*
X663913Y425564D01*
X663672Y425021D01*
X663475Y424456D01*
X663322Y423870D01*
X663213Y423262D01*
X663147Y422633D01*
X663125Y421981D01*
X658125Y421882D01*
X658102Y422535D01*
X658035Y423165D01*
X657922Y423770D01*
X657764Y424352D01*
X657560Y424910D01*
X657311Y425444D01*
X657018Y425955D01*
X656679Y426441D01*
X656294Y426904D01*
X655865Y427343D01*
X665313Y427518D01*
X664898Y427062D01*
D02*
G37*
G36*
X663148Y419215D02*
X663215Y418585D01*
X663328Y417980D01*
X663487Y417398D01*
X663690Y416840D01*
X663939Y416306D01*
X664232Y415795D01*
X664571Y415309D01*
X664956Y414846D01*
X665385Y414407D01*
X655937Y414232D01*
X656352Y414688D01*
X656724Y415166D01*
X657053Y415665D01*
X657337Y416186D01*
X657578Y416729D01*
X657775Y417294D01*
X657928Y417880D01*
X658037Y418488D01*
X658103Y419117D01*
X658125Y419769D01*
X663125Y419868D01*
X663148Y419215D01*
D02*
G37*
G36*
X518270Y417519D02*
X518328Y416917D01*
X518425Y416341D01*
X518561Y415790D01*
X518736Y415266D01*
X518950Y414768D01*
X519203Y414296D01*
X519495Y413849D01*
X519826Y413429D01*
X520195Y413035D01*
X511305D01*
X511675Y413429D01*
X512005Y413849D01*
X512297Y414296D01*
X512550Y414768D01*
X512764Y415266D01*
X512939Y415790D01*
X513075Y416341D01*
X513172Y416917D01*
X513231Y417519D01*
X513250Y418147D01*
X518250D01*
X518270Y417519D01*
D02*
G37*
G36*
X757517Y397060D02*
X757655Y395192D01*
X757775Y394371D01*
X757930Y393624D01*
X758119Y392951D01*
X758343Y392353D01*
X758601Y391829D01*
X758893Y391380D01*
X759220Y391006D01*
X745780D01*
X746107Y391380D01*
X746399Y391829D01*
X746657Y392353D01*
X746881Y392951D01*
X747070Y393624D01*
X747225Y394371D01*
X747345Y395192D01*
X747483Y397060D01*
X747500Y398105D01*
X757500D01*
X757517Y397060D01*
D02*
G37*
G36*
X759730Y390543D02*
X760179Y390251D01*
X760703Y389993D01*
X761301Y389769D01*
X761974Y389580D01*
X762721Y389425D01*
X763543Y389305D01*
X765410Y389167D01*
X766455Y389150D01*
Y379150D01*
X765410Y379133D01*
X763543Y378995D01*
X762721Y378875D01*
X761974Y378720D01*
X761301Y378531D01*
X760703Y378307D01*
X760179Y378049D01*
X759730Y377757D01*
X759356Y377430D01*
Y390870D01*
X759730Y390543D01*
D02*
G37*
G36*
X840530Y375630D02*
X840431Y376299D01*
X840130Y376898D01*
X839631Y377425D01*
X838931Y377883D01*
X838030Y378270D01*
X836930Y378587D01*
X835630Y378833D01*
X834130Y379009D01*
X832430Y379115D01*
X830530Y379150D01*
Y389150D01*
X832430Y389194D01*
X834130Y389327D01*
X835630Y389548D01*
X836930Y389857D01*
X838030Y390255D01*
X838931Y390741D01*
X839631Y391315D01*
X840130Y391978D01*
X840431Y392730D01*
X840530Y393569D01*
Y375630D01*
D02*
G37*
G36*
X707532Y363275D02*
X707684Y362850D01*
X707936Y362475D01*
X708289Y362150D01*
X708742Y361875D01*
X709295Y361650D01*
X709949Y361475D01*
X710702Y361350D01*
X711556Y361275D01*
X712511Y361250D01*
Y356250D01*
X711561Y356235D01*
X709961Y356116D01*
X709311Y356012D01*
X708761Y355878D01*
X708311Y355714D01*
X707961Y355520D01*
X707711Y355297D01*
X707561Y355044D01*
X707511Y354761D01*
X707480Y363750D01*
X707532Y363275D01*
D02*
G37*
G36*
X745644Y352030D02*
X744818Y352832D01*
X743994Y353549D01*
X743171Y354182D01*
X742351Y354731D01*
X741533Y355195D01*
X740716Y355575D01*
X739902Y355870D01*
X739090Y356081D01*
X738279Y356208D01*
X737471Y356250D01*
Y361250D01*
X738279Y361292D01*
X739090Y361419D01*
X739902Y361630D01*
X740716Y361925D01*
X741533Y362305D01*
X742351Y362769D01*
X743171Y363318D01*
X743994Y363951D01*
X744818Y364668D01*
X745644Y365470D01*
Y352030D01*
D02*
G37*
G36*
X742961Y328350D02*
X742911Y328825D01*
X742760Y329250D01*
X742508Y329625D01*
X742156Y329950D01*
X741703Y330225D01*
X741150Y330450D01*
X740496Y330625D01*
X739742Y330750D01*
X738886Y330825D01*
X737931Y330850D01*
Y335850D01*
X738886Y335875D01*
X739742Y335950D01*
X740496Y336075D01*
X741150Y336250D01*
X741703Y336475D01*
X742156Y336750D01*
X742508Y337075D01*
X742760Y337450D01*
X742911Y337875D01*
X742961Y338350D01*
Y328350D01*
D02*
G37*
G36*
X707561Y337380D02*
X707711Y337059D01*
X707961Y336776D01*
X708311Y336530D01*
X708761Y336322D01*
X709311Y336152D01*
X709961Y336020D01*
X710711Y335925D01*
X711561Y335869D01*
X712511Y335850D01*
Y330850D01*
X711556Y330825D01*
X710702Y330750D01*
X709949Y330625D01*
X709295Y330450D01*
X708742Y330225D01*
X708289Y329950D01*
X707936Y329625D01*
X707684Y329250D01*
X707532Y328825D01*
X707480Y328350D01*
X707511Y337739D01*
X707561Y337380D01*
D02*
G37*
G36*
X703361Y328225D02*
X703023Y328089D01*
X702725Y327863D01*
X702466Y327547D01*
X702247Y327140D01*
X702068Y326643D01*
X701929Y326055D01*
X701830Y325377D01*
X701770Y324609D01*
X701750Y323750D01*
X696750D01*
X696730Y324609D01*
X696671Y325377D01*
X696571Y326055D01*
X696432Y326643D01*
X696253Y327140D01*
X696034Y327547D01*
X695775Y327863D01*
X695477Y328089D01*
X695139Y328225D01*
X694761Y328270D01*
X703739D01*
X703361Y328225D01*
D02*
G37*
G36*
X666018Y323802D02*
X666488Y323424D01*
X666981Y323090D01*
X667497Y322801D01*
X668036Y322556D01*
X668597Y322356D01*
X669181Y322200D01*
X669788Y322089D01*
X670418Y322022D01*
X671070Y322000D01*
Y317000D01*
X670418Y316978D01*
X669788Y316911D01*
X669181Y316800D01*
X668597Y316644D01*
X668036Y316444D01*
X667497Y316199D01*
X666981Y315910D01*
X666488Y315576D01*
X666018Y315198D01*
X665571Y314775D01*
Y324225D01*
X666018Y323802D01*
D02*
G37*
D12*
X565250Y495500D02*
Y530500D01*
X849050Y384150D02*
X849500Y384600D01*
X484000Y499250D02*
X505500D01*
X483250Y500000D02*
X484000Y499250D01*
X460213Y471050D02*
X516250D01*
X459762Y471500D02*
X460213Y471050D01*
X505500Y499250D02*
X509500Y495250D01*
X598450Y445700D02*
X598500Y445750D01*
X509500Y495250D02*
X542000D01*
X565250Y471050D02*
Y495000D01*
X565000Y495250D02*
X565250Y495000D01*
X565000Y495250D02*
X565250Y495500D01*
Y445650D02*
X565300Y445700D01*
X483250Y511000D02*
X494650Y522400D01*
X483250Y500000D02*
Y511000D01*
X494650Y522400D02*
Y569000D01*
X515750Y432450D02*
X516250Y432950D01*
D14*
X546750Y600500D02*
D03*
X633750D02*
D03*
D15*
X516250Y471050D02*
D03*
Y458350D02*
D03*
Y445650D02*
D03*
Y432950D02*
D03*
X565250Y471050D02*
D03*
Y458350D02*
D03*
Y445650D02*
D03*
Y432950D02*
D03*
D16*
X565000Y495250D02*
D03*
X542000D02*
D03*
D17*
X459762Y471500D02*
D03*
X444738D02*
D03*
D18*
X699250Y332989D02*
D03*
Y359511D02*
D03*
X699000Y471989D02*
D03*
Y498511D02*
D03*
D19*
X484000Y499250D02*
D03*
Y471250D02*
D03*
D30*
X736700Y447600D02*
D03*
Y473000D02*
D03*
D31*
Y498400D02*
D03*
D35*
Y447600D02*
X752500Y431800D01*
X849500Y435400D02*
Y478000D01*
X565125Y530375D02*
X565250Y530500D01*
X533728Y687740D02*
X639760D01*
X494650Y648662D02*
X533728Y687740D01*
X494650Y569000D02*
Y648662D01*
X639760Y687740D02*
X849500Y478000D01*
X752500Y384150D02*
X849050D01*
X752500D02*
Y431800D01*
X443850Y569000D02*
X444738Y568112D01*
Y471500D02*
Y568112D01*
D36*
X660750Y319500D02*
X695000D01*
X699250Y323750D02*
Y332989D01*
X695000Y319500D02*
X699250Y323750D01*
X699611Y333350D02*
X752500D01*
X699250Y332989D02*
X699611Y333350D01*
X699111Y498400D02*
X736700D01*
X699250Y359511D02*
X700011Y358750D01*
Y473000D02*
X736700D01*
X660625Y409625D02*
X660750Y409500D01*
X660150Y432600D02*
X660500Y432250D01*
X660625Y409625D02*
Y432125D01*
X660500Y432250D02*
X660625Y432125D01*
X615250Y489500D02*
Y530500D01*
X699000Y498511D02*
X699111Y498400D01*
X689750Y522250D02*
X699000Y513000D01*
Y498511D02*
Y513000D01*
X660500Y522250D02*
X689750D01*
X699000Y471989D02*
X700011Y473000D01*
X484250Y445750D02*
X496850Y458350D01*
X515750Y408500D02*
Y432450D01*
X496850Y458350D02*
X516250D01*
X533900Y445650D02*
X546600Y458350D01*
X516250Y445650D02*
X533900D01*
X546600Y458350D02*
X584100D01*
X565300Y445700D02*
X598450D01*
X584100Y458350D02*
X615250Y489500D01*
X700011Y358750D02*
X752500D01*
X565600Y432600D02*
X660150D01*
X565250Y432950D02*
X565600Y432600D01*
D37*
X752500Y333350D02*
D03*
D38*
Y358750D02*
D03*
Y384150D02*
D03*
D39*
X565250Y530500D02*
D03*
D40*
X615250D02*
D03*
X590250D02*
D03*
D41*
X346000Y443900D02*
D03*
Y393100D02*
D03*
D42*
X849500Y435400D02*
D03*
X443850Y569000D02*
D03*
D43*
X849500Y384600D02*
D03*
D44*
X660750Y409500D02*
D03*
Y319500D02*
D03*
X660500Y522250D02*
D03*
Y432250D02*
D03*
D45*
X494650Y569000D02*
D03*
D46*
X275000Y275000D02*
D03*
Y715000D02*
D03*
X905000Y275000D02*
D03*
Y715000D02*
D03*
D47*
X484250Y445750D02*
D03*
X515750Y408500D02*
D03*
X598500Y445750D02*
D03*
M02*
