G04*
G04 #@! TF.GenerationSoftware,Altium Limited,Altium Designer,24.1.2 (44)*
G04*
G04 Layer_Physical_Order=2*
G04 Layer_Color=16711680*
%FSLAX44Y44*%
%MOMM*%
G71*
G04*
G04 #@! TF.SameCoordinates,0D61027A-B9A4-4D08-A004-814C5E794B05*
G04*
G04*
G04 #@! TF.FilePolarity,Positive*
G04*
G01*
G75*
%ADD12C,0.2540*%
%ADD30C,1.8500*%
%ADD31R,1.8500X1.8500*%
%ADD35C,1.0000*%
%ADD36C,0.5000*%
%ADD37R,1.9200X1.9200*%
%ADD38C,1.9200*%
%ADD39R,1.7000X1.7000*%
%ADD40C,1.7000*%
%ADD41R,1.8000X2.0320*%
%ADD42C,1.8000*%
%ADD43R,1.8000X1.8000*%
%ADD44C,1.3500*%
%ADD45R,1.8000X1.8000*%
%ADD46C,2.5400*%
%ADD47C,1.2700*%
G36*
X351574Y380455D02*
X350860Y381151D01*
X348938Y382797D01*
X348371Y383198D01*
X347841Y383526D01*
X347348Y383780D01*
X346892Y383960D01*
X346473Y384067D01*
X346090Y384100D01*
X355000Y393010D01*
X355033Y392627D01*
X355140Y392208D01*
X355320Y391752D01*
X355574Y391259D01*
X355902Y390729D01*
X356303Y390162D01*
X357327Y388918D01*
X357949Y388240D01*
X358645Y387526D01*
X351574Y380455D01*
D02*
G37*
G36*
X362041Y452869D02*
X360058Y450816D01*
X356940Y447136D01*
X355806Y445508D01*
X354954Y444023D01*
X354385Y442680D01*
X354100Y441479D01*
X354097Y440420D01*
X354376Y439502D01*
X354939Y438727D01*
X340827Y452839D01*
X341602Y452276D01*
X342520Y451997D01*
X343579Y452000D01*
X344780Y452285D01*
X346123Y452854D01*
X347608Y453706D01*
X349235Y454840D01*
X351005Y456258D01*
X354969Y459941D01*
X362041Y452869D01*
D02*
G37*
G36*
X481750Y436103D02*
X481731Y436731D01*
X481672Y437333D01*
X481575Y437909D01*
X481439Y438460D01*
X481264Y438984D01*
X481050Y439482D01*
X480797Y439954D01*
X480505Y440401D01*
X480175Y440821D01*
X479805Y441215D01*
X488695D01*
X488326Y440821D01*
X487995Y440401D01*
X487703Y439954D01*
X487450Y439482D01*
X487236Y438984D01*
X487061Y438460D01*
X486925Y437909D01*
X486828Y437333D01*
X486769Y436731D01*
X486750Y436103D01*
X481750D01*
D02*
G37*
G36*
X525397Y406000D02*
X524769Y405980D01*
X524167Y405922D01*
X523591Y405825D01*
X523040Y405689D01*
X522516Y405514D01*
X522018Y405300D01*
X521546Y405047D01*
X521099Y404755D01*
X520679Y404425D01*
X520285Y404055D01*
Y412945D01*
X520679Y412575D01*
X521099Y412245D01*
X521546Y411953D01*
X522018Y411700D01*
X522516Y411486D01*
X523040Y411311D01*
X523591Y411175D01*
X524167Y411078D01*
X524769Y411019D01*
X525397Y411000D01*
Y406000D01*
D02*
G37*
G36*
X730094Y466525D02*
X729767Y466805D01*
X729362Y467056D01*
X728882Y467277D01*
X728324Y467469D01*
X727690Y467631D01*
X726979Y467764D01*
X726191Y467867D01*
X724386Y467985D01*
X723368Y468000D01*
Y478000D01*
X724386Y478015D01*
X726979Y478236D01*
X727690Y478369D01*
X728324Y478531D01*
X728882Y478723D01*
X729362Y478944D01*
X729767Y479195D01*
X730094Y479475D01*
Y466525D01*
D02*
G37*
G36*
X601020Y454769D02*
X601078Y454167D01*
X601175Y453591D01*
X601311Y453040D01*
X601486Y452516D01*
X601700Y452018D01*
X601953Y451546D01*
X602245Y451099D01*
X602575Y450679D01*
X602945Y450285D01*
X594055D01*
X594425Y450679D01*
X594755Y451099D01*
X595047Y451546D01*
X595300Y452018D01*
X595514Y452516D01*
X595689Y453040D01*
X595825Y453591D01*
X595922Y454167D01*
X595981Y454769D01*
X596000Y455397D01*
X601000D01*
X601020Y454769D01*
D02*
G37*
G36*
X730094Y441125D02*
X729314Y441880D01*
X728533Y442556D01*
X727751Y443152D01*
X726968Y443669D01*
X726184Y444106D01*
X725398Y444464D01*
X724611Y444742D01*
X723823Y444941D01*
X723034Y445060D01*
X722244Y445100D01*
Y450100D01*
X723034Y450140D01*
X723823Y450259D01*
X724611Y450458D01*
X725398Y450736D01*
X726184Y451094D01*
X726968Y451531D01*
X727751Y452048D01*
X728533Y452644D01*
X729314Y453320D01*
X730094Y454075D01*
Y441125D01*
D02*
G37*
G36*
X745644Y352030D02*
X745270Y352357D01*
X744821Y352649D01*
X744297Y352907D01*
X743699Y353131D01*
X743026Y353320D01*
X742279Y353475D01*
X741458Y353595D01*
X739590Y353733D01*
X738545Y353750D01*
Y363750D01*
X739590Y363767D01*
X741458Y363905D01*
X742279Y364025D01*
X743026Y364180D01*
X743699Y364369D01*
X744297Y364593D01*
X744821Y364851D01*
X745270Y365143D01*
X745644Y365470D01*
Y352030D01*
D02*
G37*
D12*
X484250Y359015D02*
X484515Y358750D01*
X598487Y473000D02*
X598500Y472987D01*
D30*
X736700Y447600D02*
D03*
Y473000D02*
D03*
D31*
Y498400D02*
D03*
D35*
X375100Y473000D02*
X598487D01*
X346000Y393100D02*
X380350Y358750D01*
X484515D01*
X598487Y473000D02*
X736700D01*
X484515Y358750D02*
X752500D01*
X346000Y443900D02*
X375100Y473000D01*
D36*
X644990Y447600D02*
X736700D01*
X598500Y445750D02*
Y472987D01*
X605890Y408500D02*
X644990Y447600D01*
X484250Y359015D02*
Y445750D01*
X515750Y408500D02*
X605890D01*
D37*
X752500Y333350D02*
D03*
D38*
Y358750D02*
D03*
Y384150D02*
D03*
D39*
X565250Y530500D02*
D03*
D40*
X615250D02*
D03*
X590250D02*
D03*
D41*
X346000Y443900D02*
D03*
Y393100D02*
D03*
D42*
X849500Y435400D02*
D03*
X443850Y569000D02*
D03*
D43*
X849500Y384600D02*
D03*
D44*
X660750Y409500D02*
D03*
Y319500D02*
D03*
X660500Y522250D02*
D03*
Y432250D02*
D03*
D45*
X494650Y569000D02*
D03*
D46*
X275000Y275000D02*
D03*
Y715000D02*
D03*
X905000Y275000D02*
D03*
Y715000D02*
D03*
D47*
X484250Y445750D02*
D03*
X515750Y408500D02*
D03*
X598500Y445750D02*
D03*
M02*
