G04*
G04 #@! TF.GenerationSoftware,Altium Limited,Altium Designer,24.1.2 (44)*
G04*
G04 Layer_Color=65535*
%FSLAX44Y44*%
%MOMM*%
G71*
G04*
G04 #@! TF.SameCoordinates,0D61027A-B9A4-4D08-A004-814C5E794B05*
G04*
G04*
G04 #@! TF.FilePolarity,Positive*
G04*
G01*
G75*
%ADD10C,0.2500*%
%ADD11C,0.2000*%
%ADD12C,0.2540*%
%ADD13R,1.8500X0.9820*%
G36*
X846289Y652214D02*
X846562D01*
Y652122D01*
X846745D01*
Y652031D01*
X846927D01*
Y651940D01*
X847109D01*
Y651849D01*
X847200D01*
Y651758D01*
X847292D01*
Y651667D01*
X847383D01*
Y651575D01*
X847474D01*
Y651484D01*
X847565D01*
Y651393D01*
X847656D01*
Y651211D01*
X847747D01*
Y651120D01*
X847839D01*
Y650938D01*
X847930D01*
Y650755D01*
X848021D01*
Y650664D01*
X848112D01*
Y650482D01*
X848203D01*
Y650300D01*
X848294D01*
Y650208D01*
X848385D01*
Y649935D01*
X848477D01*
Y649844D01*
X848568D01*
Y649661D01*
X848659D01*
Y649479D01*
X848750D01*
Y649297D01*
X848841D01*
Y649115D01*
X848932D01*
Y648932D01*
X849023D01*
Y648750D01*
X849115D01*
Y648568D01*
X849206D01*
Y648294D01*
X849297D01*
Y648112D01*
X849388D01*
Y647930D01*
X849479D01*
Y647656D01*
X849570D01*
Y647474D01*
X849661D01*
Y647200D01*
X849753D01*
Y646927D01*
X849844D01*
Y646654D01*
X849935D01*
Y646380D01*
X850026D01*
Y646107D01*
X850117D01*
Y645742D01*
X850208D01*
Y645560D01*
X850300D01*
Y645104D01*
X850391D01*
Y644740D01*
X850482D01*
Y644466D01*
X850573D01*
Y643828D01*
X850664D01*
Y643555D01*
X850755D01*
Y642734D01*
X850846D01*
Y642005D01*
X850938D01*
Y640911D01*
X851029D01*
Y638815D01*
X850938D01*
Y637812D01*
X850846D01*
Y637083D01*
X850755D01*
Y636263D01*
X850664D01*
Y635990D01*
X850573D01*
Y635443D01*
X850482D01*
Y635078D01*
X850391D01*
Y634714D01*
X850300D01*
Y634349D01*
X850208D01*
Y634076D01*
X850117D01*
Y633711D01*
X850026D01*
Y633529D01*
X849935D01*
Y633164D01*
X849844D01*
Y632891D01*
X849753D01*
Y632708D01*
X849661D01*
Y632344D01*
X849570D01*
Y632161D01*
X849479D01*
Y631888D01*
X849388D01*
Y631706D01*
X849297D01*
Y631523D01*
X849206D01*
Y631250D01*
X849115D01*
Y631159D01*
X849023D01*
Y630885D01*
X848932D01*
Y630703D01*
X848841D01*
Y630521D01*
X848750D01*
Y630339D01*
X848659D01*
Y630156D01*
X848568D01*
Y629974D01*
X848477D01*
Y629883D01*
X848385D01*
Y629609D01*
X848294D01*
Y629518D01*
X848203D01*
Y629336D01*
X848112D01*
Y629154D01*
X848021D01*
Y629062D01*
X847930D01*
Y628880D01*
X847839D01*
Y628698D01*
X847747D01*
Y628607D01*
X847656D01*
Y628516D01*
X847565D01*
Y628424D01*
X847474D01*
Y628242D01*
X847292D01*
Y628151D01*
X847200D01*
Y628060D01*
X847109D01*
Y627969D01*
X846927D01*
Y627878D01*
X846745D01*
Y627786D01*
X846471D01*
Y627695D01*
X846107D01*
Y627604D01*
X845560D01*
Y627695D01*
X845195D01*
Y627786D01*
X844922D01*
Y627878D01*
X844740D01*
Y627969D01*
X844557D01*
Y628060D01*
X844466D01*
Y628151D01*
X844375D01*
Y628242D01*
X844193D01*
Y628333D01*
X844102D01*
Y628424D01*
X844010D01*
Y628607D01*
X843919D01*
Y628698D01*
X843828D01*
Y628880D01*
X843737D01*
Y629062D01*
X843646D01*
Y629245D01*
X843555D01*
Y629792D01*
X843464D01*
Y630156D01*
X843555D01*
Y630703D01*
X843646D01*
Y630885D01*
X843737D01*
Y631068D01*
X843828D01*
Y631250D01*
X843919D01*
Y631432D01*
X844010D01*
Y631615D01*
X844102D01*
Y631706D01*
X844193D01*
Y631888D01*
X844284D01*
Y632070D01*
X844375D01*
Y632161D01*
X844466D01*
Y632435D01*
X844557D01*
Y632526D01*
X844649D01*
Y632799D01*
X844740D01*
Y632891D01*
X844831D01*
Y633164D01*
X844922D01*
Y633346D01*
X845013D01*
Y633529D01*
X845104D01*
Y633802D01*
X845195D01*
Y633984D01*
X845286D01*
Y634258D01*
X845378D01*
Y634531D01*
X845469D01*
Y634714D01*
X845560D01*
Y635078D01*
X845651D01*
Y635260D01*
X845742D01*
Y635716D01*
X845833D01*
Y635990D01*
X845925D01*
Y636445D01*
X846016D01*
Y636901D01*
X846107D01*
Y637357D01*
X846198D01*
Y638177D01*
X846289D01*
Y638997D01*
X846380D01*
Y640729D01*
X846289D01*
Y641641D01*
X846198D01*
Y642461D01*
X846107D01*
Y642917D01*
X846016D01*
Y643372D01*
X845925D01*
Y643828D01*
X845833D01*
Y644102D01*
X845742D01*
Y644557D01*
X845651D01*
Y644740D01*
X845560D01*
Y645104D01*
X845469D01*
Y645378D01*
X845378D01*
Y645560D01*
X845286D01*
Y645833D01*
X845195D01*
Y646016D01*
X845104D01*
Y646289D01*
X845013D01*
Y646471D01*
X844922D01*
Y646654D01*
X844831D01*
Y646927D01*
X844740D01*
Y647018D01*
X844649D01*
Y647292D01*
X844557D01*
Y647383D01*
X844466D01*
Y647656D01*
X844375D01*
Y647747D01*
X844284D01*
Y647930D01*
X844193D01*
Y648112D01*
X844102D01*
Y648203D01*
X844010D01*
Y648385D01*
X843919D01*
Y648568D01*
X843828D01*
Y648659D01*
X843737D01*
Y648932D01*
X843646D01*
Y649023D01*
X843555D01*
Y649388D01*
X843464D01*
Y649753D01*
X843372D01*
Y650208D01*
X843464D01*
Y650573D01*
X843555D01*
Y650938D01*
X843646D01*
Y651029D01*
X843737D01*
Y651211D01*
X843828D01*
Y651393D01*
X843919D01*
Y651484D01*
X844010D01*
Y651575D01*
X844102D01*
Y651667D01*
X844193D01*
Y651758D01*
X844284D01*
Y651849D01*
X844375D01*
Y651940D01*
X844557D01*
Y652031D01*
X844740D01*
Y652122D01*
X844922D01*
Y652214D01*
X845195D01*
Y652305D01*
X846289D01*
Y652214D01*
D02*
G37*
G36*
X852852Y658776D02*
X853125D01*
Y658685D01*
X853398D01*
Y658594D01*
X853490D01*
Y658503D01*
X853672D01*
Y658411D01*
X853763D01*
Y658320D01*
X853854D01*
Y658229D01*
X853945D01*
Y658138D01*
X854036D01*
Y658047D01*
X854128D01*
Y657956D01*
X854219D01*
Y657865D01*
X854310D01*
Y657682D01*
X854401D01*
Y657591D01*
X854492D01*
Y657409D01*
X854583D01*
Y657318D01*
X854675D01*
Y657226D01*
X854766D01*
Y657044D01*
X854857D01*
Y656953D01*
X854948D01*
Y656862D01*
Y656771D01*
X855039D01*
Y656680D01*
X855130D01*
Y656497D01*
X855221D01*
Y656406D01*
X855312D01*
Y656224D01*
X855404D01*
Y656042D01*
X855495D01*
Y655950D01*
X855586D01*
Y655768D01*
X855677D01*
Y655677D01*
X855768D01*
Y655495D01*
X855859D01*
Y655312D01*
X855950D01*
Y655221D01*
X856042D01*
Y655039D01*
X856133D01*
Y654857D01*
X856224D01*
Y654675D01*
X856315D01*
Y654583D01*
X856406D01*
Y654401D01*
X856497D01*
Y654219D01*
X856589D01*
Y654036D01*
X856680D01*
Y653854D01*
X856771D01*
Y653672D01*
X856862D01*
Y653490D01*
X856953D01*
Y653307D01*
X857044D01*
Y653125D01*
X857135D01*
Y652943D01*
X857227D01*
Y652760D01*
X857318D01*
Y652578D01*
X857409D01*
Y652396D01*
X857500D01*
Y652214D01*
X857591D01*
Y651940D01*
X857682D01*
Y651758D01*
X857773D01*
Y651484D01*
X857865D01*
Y651302D01*
X857956D01*
Y651120D01*
X858047D01*
Y650846D01*
X858138D01*
Y650664D01*
X858229D01*
Y650300D01*
X858320D01*
Y650117D01*
X858411D01*
Y649753D01*
X858503D01*
Y649570D01*
X858594D01*
Y649297D01*
X858685D01*
Y648932D01*
X858776D01*
Y648750D01*
X858867D01*
Y648385D01*
X858958D01*
Y648112D01*
X859050D01*
Y647747D01*
X859141D01*
Y647383D01*
X859232D01*
Y647109D01*
X859323D01*
Y646654D01*
X859414D01*
Y646289D01*
X859505D01*
Y645742D01*
X859596D01*
Y645378D01*
X859688D01*
Y644831D01*
X859779D01*
Y644102D01*
X859870D01*
Y643555D01*
X859961D01*
Y642370D01*
X860052D01*
Y641458D01*
X860143D01*
Y638359D01*
X860052D01*
Y637448D01*
X859961D01*
Y636263D01*
X859870D01*
Y635716D01*
X859779D01*
Y634987D01*
X859688D01*
Y634440D01*
X859596D01*
Y634076D01*
X859505D01*
Y633529D01*
X859414D01*
Y633164D01*
X859323D01*
Y632708D01*
X859232D01*
Y632435D01*
X859141D01*
Y632070D01*
X859050D01*
Y631706D01*
X858958D01*
Y631432D01*
X858867D01*
Y631068D01*
X858776D01*
Y630885D01*
X858685D01*
Y630521D01*
X858594D01*
Y630247D01*
X858503D01*
Y630065D01*
X858411D01*
Y629701D01*
X858320D01*
Y629518D01*
X858229D01*
Y629154D01*
X858138D01*
Y628971D01*
X858047D01*
Y628789D01*
X857956D01*
Y628516D01*
X857865D01*
Y628333D01*
X857773D01*
Y628060D01*
X857682D01*
Y627878D01*
X857591D01*
Y627695D01*
X857500D01*
Y627422D01*
X857409D01*
Y627240D01*
X857318D01*
Y627057D01*
X857227D01*
Y626875D01*
X857135D01*
Y626693D01*
X857044D01*
Y626510D01*
X856953D01*
Y626328D01*
X856862D01*
Y626146D01*
X856771D01*
Y625964D01*
X856680D01*
Y625781D01*
X856589D01*
Y625599D01*
X856497D01*
Y625417D01*
X856406D01*
Y625234D01*
X856315D01*
Y625143D01*
X856224D01*
Y624961D01*
X856133D01*
Y624779D01*
X856042D01*
Y624688D01*
X855950D01*
Y624505D01*
X855859D01*
Y624323D01*
X855768D01*
Y624141D01*
X855677D01*
Y624049D01*
X855586D01*
Y623867D01*
X855495D01*
Y623776D01*
X855404D01*
Y623594D01*
X855312D01*
Y623411D01*
X855221D01*
Y623320D01*
X855130D01*
Y623138D01*
X855039D01*
Y623047D01*
X854948D01*
Y622865D01*
X854857D01*
Y622773D01*
X854766D01*
Y622682D01*
X854675D01*
Y622500D01*
X854583D01*
Y622409D01*
X854492D01*
Y622227D01*
X854401D01*
Y622135D01*
X854310D01*
Y621953D01*
X854219D01*
Y621862D01*
X854128D01*
Y621771D01*
X854036D01*
Y621680D01*
X853854D01*
Y621589D01*
X853763D01*
Y621497D01*
X853672D01*
Y621406D01*
X853490D01*
Y621315D01*
X853398D01*
Y621224D01*
X853125D01*
Y621133D01*
X852760D01*
Y621042D01*
X852031D01*
Y621133D01*
X851758D01*
Y621224D01*
X851484D01*
Y621315D01*
X851211D01*
Y621406D01*
X851120D01*
Y621497D01*
X851029D01*
Y621589D01*
X850938D01*
Y621680D01*
X850755D01*
Y621771D01*
X850664D01*
Y621862D01*
X850573D01*
Y622044D01*
X850482D01*
Y622135D01*
X850391D01*
Y622318D01*
X850300D01*
Y622500D01*
X850208D01*
Y622682D01*
X850117D01*
Y624049D01*
X850208D01*
Y624232D01*
X850300D01*
Y624505D01*
X850391D01*
Y624688D01*
X850482D01*
Y624779D01*
X850573D01*
Y624961D01*
X850664D01*
Y625052D01*
X850755D01*
Y625143D01*
X850846D01*
Y625326D01*
X850938D01*
Y625417D01*
X851029D01*
Y625599D01*
X851120D01*
Y625690D01*
X851211D01*
Y625872D01*
X851302D01*
Y625964D01*
X851393D01*
Y626146D01*
X851484D01*
Y626237D01*
X851575D01*
Y626419D01*
X851667D01*
Y626602D01*
X851758D01*
Y626693D01*
X851849D01*
Y626875D01*
X851940D01*
Y626966D01*
X852031D01*
Y627148D01*
X852122D01*
Y627331D01*
X852214D01*
Y627422D01*
X852305D01*
Y627695D01*
X852396D01*
Y627786D01*
X852487D01*
Y627969D01*
X852578D01*
Y628151D01*
X852669D01*
Y628333D01*
X852760D01*
Y628607D01*
X852852D01*
Y628698D01*
X852943D01*
Y628971D01*
X853034D01*
Y629154D01*
X853125D01*
Y629336D01*
X853216D01*
Y629518D01*
X853307D01*
Y629701D01*
X853398D01*
Y629974D01*
X853490D01*
Y630156D01*
X853581D01*
Y630339D01*
X853672D01*
Y630612D01*
X853763D01*
Y630794D01*
X853854D01*
Y631068D01*
X853945D01*
Y631250D01*
X854036D01*
Y631615D01*
X854128D01*
Y631797D01*
X854219D01*
Y632161D01*
X854310D01*
Y632435D01*
X854401D01*
Y632708D01*
X854492D01*
Y633164D01*
X854583D01*
Y633346D01*
X854675D01*
Y633802D01*
X854766D01*
Y634167D01*
X854857D01*
Y634531D01*
X854948D01*
Y635078D01*
X855039D01*
Y635443D01*
X855130D01*
Y636081D01*
X855221D01*
Y636628D01*
X855312D01*
Y637357D01*
X855404D01*
Y639544D01*
X855495D01*
Y640365D01*
X855404D01*
Y642461D01*
X855312D01*
Y643190D01*
X855221D01*
Y643737D01*
X855130D01*
Y644375D01*
X855039D01*
Y644740D01*
X854948D01*
Y645378D01*
X854857D01*
Y645651D01*
X854766D01*
Y646107D01*
X854675D01*
Y646471D01*
X854583D01*
Y646654D01*
X854492D01*
Y647109D01*
X854401D01*
Y647383D01*
X854310D01*
Y647747D01*
X854219D01*
Y648021D01*
X854128D01*
Y648203D01*
X854036D01*
Y648568D01*
X853945D01*
Y648750D01*
X853854D01*
Y649023D01*
X853763D01*
Y649206D01*
X853672D01*
Y649479D01*
X853581D01*
Y649661D01*
X853490D01*
Y649844D01*
X853398D01*
Y650117D01*
X853307D01*
Y650300D01*
X853216D01*
Y650573D01*
X853125D01*
Y650755D01*
X853034D01*
Y650846D01*
X852943D01*
Y651120D01*
X852852D01*
Y651302D01*
X852760D01*
Y651484D01*
X852669D01*
Y651667D01*
X852578D01*
Y651849D01*
X852487D01*
Y652031D01*
X852396D01*
Y652122D01*
X852305D01*
Y652396D01*
X852214D01*
Y652487D01*
X852122D01*
Y652669D01*
X852031D01*
Y652852D01*
X851940D01*
Y652943D01*
X851849D01*
Y653125D01*
X851758D01*
Y653307D01*
X851667D01*
Y653398D01*
X851575D01*
Y653581D01*
X851484D01*
Y653672D01*
X851393D01*
Y653854D01*
X851302D01*
Y653945D01*
X851211D01*
Y654128D01*
X851120D01*
Y654219D01*
X851029D01*
Y654401D01*
X850938D01*
Y654492D01*
X850846D01*
Y654675D01*
X850755D01*
Y654766D01*
X850664D01*
Y654857D01*
X850573D01*
Y655039D01*
X850482D01*
Y655130D01*
X850391D01*
Y655312D01*
X850300D01*
Y655495D01*
X850208D01*
Y655677D01*
X850117D01*
Y655950D01*
X850026D01*
Y656406D01*
X849935D01*
Y656680D01*
X850026D01*
Y657135D01*
X850117D01*
Y657500D01*
X850208D01*
Y657591D01*
X850300D01*
Y657773D01*
X850391D01*
Y657956D01*
X850482D01*
Y658047D01*
X850573D01*
Y658138D01*
X850664D01*
Y658229D01*
X850755D01*
Y658320D01*
X850846D01*
Y658411D01*
X850938D01*
Y658503D01*
X851120D01*
Y658594D01*
X851211D01*
Y658685D01*
X851484D01*
Y658776D01*
X851758D01*
Y658867D01*
X852852D01*
Y658776D01*
D02*
G37*
G36*
X858958Y664883D02*
X859141D01*
Y664792D01*
X859414D01*
Y664700D01*
X859596D01*
Y664609D01*
X859688D01*
Y664518D01*
X859870D01*
Y664427D01*
X859961D01*
Y664336D01*
X860052D01*
Y664245D01*
X860143D01*
Y664154D01*
X860234D01*
Y664062D01*
X860325D01*
Y663971D01*
X860417D01*
Y663789D01*
X860508D01*
Y663698D01*
X860599D01*
Y663607D01*
X860690D01*
Y663425D01*
X860781D01*
Y663333D01*
X860872D01*
Y663242D01*
X860964D01*
Y663060D01*
X861055D01*
Y662969D01*
X861146D01*
Y662878D01*
X861237D01*
Y662695D01*
X861328D01*
Y662604D01*
X861419D01*
Y662513D01*
X861510D01*
Y662331D01*
X861602D01*
Y662148D01*
X861693D01*
Y662057D01*
X861784D01*
Y661966D01*
X861875D01*
Y661784D01*
X861966D01*
Y661693D01*
X862057D01*
Y661510D01*
X862148D01*
Y661419D01*
X862240D01*
Y661237D01*
X862331D01*
Y661146D01*
X862422D01*
Y660964D01*
X862513D01*
Y660872D01*
X862604D01*
Y660690D01*
X862695D01*
Y660599D01*
X862786D01*
Y660417D01*
X862878D01*
Y660234D01*
X862969D01*
Y660143D01*
X863060D01*
Y659961D01*
X863151D01*
Y659779D01*
X863242D01*
Y659596D01*
X863333D01*
Y659505D01*
X863425D01*
Y659323D01*
X863516D01*
Y659141D01*
X863607D01*
Y659050D01*
X863698D01*
Y658867D01*
X863789D01*
Y658685D01*
X863880D01*
Y658503D01*
X863971D01*
Y658320D01*
X864062D01*
Y658229D01*
X864154D01*
Y658047D01*
X864245D01*
Y657865D01*
X864336D01*
Y657682D01*
X864427D01*
Y657500D01*
X864518D01*
Y657318D01*
X864609D01*
Y657135D01*
X864700D01*
Y656953D01*
X864792D01*
Y656771D01*
X864883D01*
Y656589D01*
X864974D01*
Y656315D01*
X865065D01*
Y656224D01*
X865156D01*
Y656042D01*
X865247D01*
Y655768D01*
X865339D01*
Y655586D01*
X865430D01*
Y655312D01*
X865521D01*
Y655130D01*
X865612D01*
Y654948D01*
X865703D01*
Y654766D01*
X865794D01*
Y654583D01*
X865885D01*
Y654219D01*
X865977D01*
Y654036D01*
X866068D01*
Y653763D01*
X866159D01*
Y653581D01*
X866250D01*
Y653307D01*
X866341D01*
Y653034D01*
X866432D01*
Y652852D01*
X866523D01*
Y652487D01*
X866615D01*
Y652305D01*
X866706D01*
Y651940D01*
X866797D01*
Y651667D01*
X866888D01*
Y651484D01*
X866979D01*
Y651120D01*
X867070D01*
Y650846D01*
X867161D01*
Y650482D01*
X867253D01*
Y650208D01*
X867344D01*
Y649935D01*
X867435D01*
Y649479D01*
X867526D01*
Y649206D01*
X867617D01*
Y648659D01*
X867708D01*
Y648385D01*
X867800D01*
Y647930D01*
X867891D01*
Y647474D01*
X867982D01*
Y647109D01*
X868073D01*
Y646380D01*
X868164D01*
Y646016D01*
X868255D01*
Y645286D01*
X868346D01*
Y644557D01*
X868438D01*
Y643737D01*
X868529D01*
Y642552D01*
X868620D01*
Y641550D01*
X868711D01*
Y638268D01*
X868620D01*
Y637266D01*
X868529D01*
Y636081D01*
X868438D01*
Y635260D01*
X868346D01*
Y634531D01*
X868255D01*
Y633802D01*
X868164D01*
Y633346D01*
X868073D01*
Y632799D01*
X867982D01*
Y632344D01*
X867891D01*
Y631888D01*
X867800D01*
Y631432D01*
X867708D01*
Y631159D01*
X867617D01*
Y630612D01*
X867526D01*
Y630339D01*
X867435D01*
Y629974D01*
X867344D01*
Y629609D01*
X867253D01*
Y629336D01*
X867161D01*
Y628971D01*
X867070D01*
Y628698D01*
X866979D01*
Y628333D01*
X866888D01*
Y628151D01*
X866797D01*
Y627878D01*
X866706D01*
Y627513D01*
X866615D01*
Y627331D01*
X866523D01*
Y626966D01*
X866432D01*
Y626784D01*
X866341D01*
Y626510D01*
X866250D01*
Y626237D01*
X866159D01*
Y626055D01*
X866068D01*
Y625781D01*
X865977D01*
Y625599D01*
X865885D01*
Y625234D01*
X865794D01*
Y625143D01*
X865703D01*
Y624870D01*
X865612D01*
Y624688D01*
X865521D01*
Y624505D01*
X865430D01*
Y624232D01*
X865339D01*
Y624049D01*
X865247D01*
Y623776D01*
X865156D01*
Y623685D01*
X865065D01*
Y623503D01*
X864974D01*
Y623229D01*
X864883D01*
Y623138D01*
X864792D01*
Y622865D01*
X864700D01*
Y622682D01*
X864609D01*
Y622500D01*
X864518D01*
Y622318D01*
X864427D01*
Y622227D01*
X864336D01*
Y621953D01*
X864245D01*
Y621862D01*
X864154D01*
Y621680D01*
X864062D01*
Y621497D01*
X863971D01*
Y621315D01*
X863880D01*
Y621133D01*
X863789D01*
Y620951D01*
X863698D01*
Y620859D01*
X863607D01*
Y620677D01*
X863516D01*
Y620495D01*
X863425D01*
Y620312D01*
X863333D01*
Y620221D01*
X863242D01*
Y620039D01*
X863151D01*
Y619857D01*
X863060D01*
Y619766D01*
X862969D01*
Y619583D01*
X862878D01*
Y619401D01*
X862786D01*
Y619310D01*
X862695D01*
Y619128D01*
X862604D01*
Y618945D01*
X862513D01*
Y618854D01*
X862422D01*
Y618672D01*
X862331D01*
Y618581D01*
X862240D01*
Y618398D01*
X862148D01*
Y618307D01*
X862057D01*
Y618216D01*
X861966D01*
Y618034D01*
X861875D01*
Y617852D01*
X861784D01*
Y617760D01*
X861693D01*
Y617669D01*
X861602D01*
Y617487D01*
X861510D01*
Y617396D01*
X861419D01*
Y617214D01*
X861328D01*
Y617122D01*
X861237D01*
Y616940D01*
X861146D01*
Y616849D01*
X861055D01*
Y616758D01*
X860964D01*
Y616667D01*
X860872D01*
Y616484D01*
X860781D01*
Y616393D01*
X860690D01*
Y616302D01*
X860599D01*
Y616120D01*
X860508D01*
Y616029D01*
X860417D01*
Y615846D01*
X860325D01*
Y615755D01*
X860234D01*
Y615664D01*
X860143D01*
Y615573D01*
X859961D01*
Y615482D01*
X859870D01*
Y615391D01*
X859779D01*
Y615299D01*
X859596D01*
Y615208D01*
X859414D01*
Y615117D01*
X859141D01*
Y615026D01*
X858867D01*
Y614935D01*
X858138D01*
Y615026D01*
X857865D01*
Y615117D01*
X857500D01*
Y615208D01*
X857409D01*
Y615299D01*
X857227D01*
Y615391D01*
X857135D01*
Y615482D01*
X856953D01*
Y615573D01*
X856862D01*
Y615755D01*
X856680D01*
Y615938D01*
X856589D01*
Y616029D01*
X856497D01*
Y616211D01*
X856406D01*
Y616393D01*
X856315D01*
Y616576D01*
X856224D01*
Y618034D01*
X856315D01*
Y618216D01*
X856406D01*
Y618398D01*
X856497D01*
Y618581D01*
X856589D01*
Y618672D01*
X856680D01*
Y618854D01*
X856771D01*
Y618945D01*
X856862D01*
Y619036D01*
X856953D01*
Y619219D01*
X857044D01*
Y619310D01*
X857135D01*
Y619401D01*
X857227D01*
Y619492D01*
X857318D01*
Y619674D01*
X857409D01*
Y619766D01*
X857500D01*
Y619857D01*
X857591D01*
Y620039D01*
X857682D01*
Y620130D01*
X857773D01*
Y620312D01*
X857865D01*
Y620404D01*
X857956D01*
Y620586D01*
X858047D01*
Y620677D01*
X858138D01*
Y620859D01*
X858229D01*
Y620951D01*
X858320D01*
Y621042D01*
X858411D01*
Y621224D01*
X858503D01*
Y621406D01*
X858594D01*
Y621497D01*
X858685D01*
Y621680D01*
X858776D01*
Y621771D01*
X858867D01*
Y621953D01*
X858958D01*
Y622044D01*
X859050D01*
Y622227D01*
X859141D01*
Y622409D01*
X859232D01*
Y622500D01*
X859323D01*
Y622682D01*
X859414D01*
Y622865D01*
X859505D01*
Y623047D01*
X859596D01*
Y623138D01*
X859688D01*
Y623320D01*
X859779D01*
Y623503D01*
X859870D01*
Y623685D01*
X859961D01*
Y623867D01*
X860052D01*
Y624049D01*
X860143D01*
Y624232D01*
X860234D01*
Y624323D01*
X860325D01*
Y624505D01*
X860417D01*
Y624779D01*
X860508D01*
Y624870D01*
X860599D01*
Y625143D01*
X860690D01*
Y625326D01*
X860781D01*
Y625508D01*
X860872D01*
Y625690D01*
X860964D01*
Y625872D01*
X861055D01*
Y626146D01*
X861146D01*
Y626328D01*
X861237D01*
Y626510D01*
X861328D01*
Y626784D01*
X861419D01*
Y626966D01*
X861510D01*
Y627148D01*
X861602D01*
Y627331D01*
X861693D01*
Y627695D01*
X861784D01*
Y627878D01*
X861875D01*
Y628151D01*
X861966D01*
Y628333D01*
X862057D01*
Y628607D01*
X862148D01*
Y628880D01*
X862240D01*
Y629062D01*
X862331D01*
Y629427D01*
X862422D01*
Y629701D01*
X862513D01*
Y629974D01*
X862604D01*
Y630339D01*
X862695D01*
Y630612D01*
X862786D01*
Y630977D01*
X862878D01*
Y631341D01*
X862969D01*
Y631706D01*
X863060D01*
Y632161D01*
X863151D01*
Y632344D01*
X863242D01*
Y632891D01*
X863333D01*
Y633346D01*
X863425D01*
Y633802D01*
X863516D01*
Y634349D01*
X863607D01*
Y634896D01*
X863698D01*
Y635625D01*
X863789D01*
Y636172D01*
X863880D01*
Y637630D01*
X863971D01*
Y639727D01*
X864062D01*
Y640182D01*
X863971D01*
Y642188D01*
X863880D01*
Y643646D01*
X863789D01*
Y644193D01*
X863698D01*
Y644922D01*
X863607D01*
Y645469D01*
X863516D01*
Y646016D01*
X863425D01*
Y646471D01*
X863333D01*
Y646927D01*
X863242D01*
Y647474D01*
X863151D01*
Y647747D01*
X863060D01*
Y648112D01*
X862969D01*
Y648568D01*
X862878D01*
Y648841D01*
X862786D01*
Y649206D01*
X862695D01*
Y649479D01*
X862604D01*
Y649844D01*
X862513D01*
Y650117D01*
X862422D01*
Y650391D01*
X862331D01*
Y650755D01*
X862240D01*
Y650938D01*
X862148D01*
Y651211D01*
X862057D01*
Y651484D01*
X861966D01*
Y651758D01*
X861875D01*
Y651940D01*
X861784D01*
Y652122D01*
X861693D01*
Y652487D01*
X861602D01*
Y652669D01*
X861510D01*
Y652943D01*
X861419D01*
Y653125D01*
X861328D01*
Y653307D01*
X861237D01*
Y653581D01*
X861146D01*
Y653672D01*
X861055D01*
Y653945D01*
X860964D01*
Y654128D01*
X860872D01*
Y654310D01*
X860781D01*
Y654492D01*
X860690D01*
Y654675D01*
X860599D01*
Y654948D01*
X860508D01*
Y655039D01*
X860417D01*
Y655312D01*
X860325D01*
Y655495D01*
X860234D01*
Y655586D01*
X860143D01*
Y655768D01*
X860052D01*
Y655950D01*
X859961D01*
Y656224D01*
X859870D01*
Y656315D01*
X859779D01*
Y656497D01*
X859688D01*
Y656680D01*
X859596D01*
Y656771D01*
X859505D01*
Y656953D01*
X859414D01*
Y657135D01*
X859323D01*
Y657318D01*
X859232D01*
Y657409D01*
X859141D01*
Y657591D01*
X859050D01*
Y657773D01*
X858958D01*
Y657865D01*
X858867D01*
Y658047D01*
X858776D01*
Y658138D01*
X858685D01*
Y658320D01*
X858594D01*
Y658411D01*
X858503D01*
Y658594D01*
X858411D01*
Y658776D01*
X858320D01*
Y658867D01*
X858229D01*
Y659050D01*
X858138D01*
Y659141D01*
X858047D01*
Y659232D01*
X857956D01*
Y659414D01*
X857865D01*
Y659505D01*
X857773D01*
Y659688D01*
X857682D01*
Y659779D01*
X857591D01*
Y659870D01*
X857500D01*
Y660052D01*
X857409D01*
Y660143D01*
X857318D01*
Y660325D01*
X857227D01*
Y660417D01*
X857135D01*
Y660508D01*
X857044D01*
Y660599D01*
X856953D01*
Y660781D01*
X856862D01*
Y660872D01*
X856771D01*
Y660964D01*
X856680D01*
Y661146D01*
X856589D01*
Y661237D01*
X856497D01*
Y661419D01*
X856406D01*
Y661601D01*
X856315D01*
Y661693D01*
X856224D01*
Y662057D01*
X856133D01*
Y662331D01*
X856042D01*
Y662969D01*
X856133D01*
Y663242D01*
X856224D01*
Y663607D01*
X856315D01*
Y663789D01*
X856406D01*
Y663880D01*
X856497D01*
Y664062D01*
X856589D01*
Y664154D01*
X856680D01*
Y664245D01*
X856771D01*
Y664336D01*
X856862D01*
Y664427D01*
X856953D01*
Y664518D01*
X857044D01*
Y664609D01*
X857227D01*
Y664700D01*
X857409D01*
Y664792D01*
X857682D01*
Y664883D01*
X857865D01*
Y664974D01*
X858958D01*
Y664883D01*
D02*
G37*
G36*
X837904Y665156D02*
X838268D01*
Y665065D01*
X838542D01*
Y664974D01*
X838724D01*
Y664883D01*
X838906D01*
Y664792D01*
X839089D01*
Y664700D01*
X839180D01*
Y664609D01*
X839271D01*
Y664518D01*
X839362D01*
Y664427D01*
X839453D01*
Y664336D01*
X839544D01*
Y664154D01*
X839635D01*
Y663971D01*
X839727D01*
Y663880D01*
X839818D01*
Y663607D01*
X839909D01*
Y663242D01*
X840000D01*
Y616758D01*
X839909D01*
Y616484D01*
X839818D01*
Y616211D01*
X839727D01*
Y616029D01*
X839635D01*
Y615846D01*
X839544D01*
Y615755D01*
X839453D01*
Y615664D01*
X839362D01*
Y615482D01*
X839180D01*
Y615391D01*
X839089D01*
Y615299D01*
X838997D01*
Y615208D01*
X838906D01*
Y615117D01*
X838633D01*
Y615026D01*
X838450D01*
Y614935D01*
X838086D01*
Y614844D01*
X837175D01*
Y614935D01*
X836810D01*
Y615026D01*
X836719D01*
Y615117D01*
X836445D01*
Y615208D01*
X836354D01*
Y615299D01*
X836172D01*
Y615391D01*
X836081D01*
Y615482D01*
X835990D01*
Y615573D01*
X835899D01*
Y615664D01*
X835807D01*
Y615755D01*
X835625D01*
Y615846D01*
X835534D01*
Y615938D01*
X835443D01*
Y616029D01*
X835352D01*
Y616120D01*
X835260D01*
Y616211D01*
X835169D01*
Y616302D01*
X834987D01*
Y616393D01*
X834896D01*
Y616484D01*
X834805D01*
Y616576D01*
X834714D01*
Y616667D01*
X834622D01*
Y616758D01*
X834531D01*
Y616849D01*
X834440D01*
Y616940D01*
X834349D01*
Y617031D01*
X834167D01*
Y617122D01*
X834075D01*
Y617214D01*
X833984D01*
Y617305D01*
X833893D01*
Y617396D01*
X833802D01*
Y617487D01*
X833620D01*
Y617578D01*
X833529D01*
Y617669D01*
X833438D01*
Y617760D01*
X833346D01*
Y617852D01*
X833255D01*
Y617943D01*
X833164D01*
Y618034D01*
X833073D01*
Y618125D01*
X832891D01*
Y618216D01*
X832800D01*
Y618307D01*
X832708D01*
Y618398D01*
X832617D01*
Y618490D01*
X832526D01*
Y618581D01*
X832435D01*
Y618672D01*
X832344D01*
Y618763D01*
X832161D01*
Y618854D01*
X832070D01*
Y618945D01*
X831979D01*
Y619036D01*
X831888D01*
Y619128D01*
X831797D01*
Y619219D01*
X831706D01*
Y619310D01*
X831523D01*
Y619401D01*
X831432D01*
Y619492D01*
X831341D01*
Y619583D01*
X831250D01*
Y619674D01*
X831159D01*
Y619766D01*
X830977D01*
Y619857D01*
X830885D01*
Y619948D01*
X830794D01*
Y620039D01*
X830703D01*
Y620130D01*
X830612D01*
Y620221D01*
X830521D01*
Y620312D01*
X830430D01*
Y620404D01*
X830247D01*
Y620495D01*
X830156D01*
Y620586D01*
X830065D01*
Y620677D01*
X829974D01*
Y620768D01*
X829883D01*
Y620859D01*
X829792D01*
Y620951D01*
X829700D01*
Y621042D01*
X829518D01*
Y621133D01*
X829427D01*
Y621224D01*
X829336D01*
Y621315D01*
X829245D01*
Y621406D01*
X829154D01*
Y621497D01*
X828971D01*
Y621680D01*
X828789D01*
Y621771D01*
X828698D01*
Y621862D01*
X828607D01*
Y621953D01*
X828516D01*
Y622044D01*
X828425D01*
Y622135D01*
X828242D01*
Y622227D01*
X828151D01*
Y622318D01*
X828060D01*
Y622409D01*
X827969D01*
Y622500D01*
X827878D01*
Y622591D01*
X827786D01*
Y622682D01*
X827695D01*
Y622773D01*
X827513D01*
Y622865D01*
X827422D01*
Y622956D01*
X827331D01*
Y623047D01*
X827240D01*
Y623138D01*
X827148D01*
Y623229D01*
X826966D01*
Y623320D01*
X826875D01*
Y623411D01*
X826784D01*
Y623503D01*
X826693D01*
Y623594D01*
X826602D01*
Y623685D01*
X826510D01*
Y623776D01*
X826419D01*
Y623867D01*
X826328D01*
Y623958D01*
X826237D01*
Y624049D01*
X826055D01*
Y624141D01*
X825964D01*
Y624232D01*
X825872D01*
Y624323D01*
X825781D01*
Y624414D01*
X825690D01*
Y624505D01*
X825508D01*
Y624596D01*
X825417D01*
Y624688D01*
X825325D01*
Y624779D01*
X825234D01*
Y624870D01*
X825143D01*
Y624961D01*
X825052D01*
Y625052D01*
X824961D01*
Y625143D01*
X824779D01*
Y625234D01*
X824688D01*
Y625326D01*
X824596D01*
Y625417D01*
X824505D01*
Y625508D01*
X824414D01*
Y625599D01*
X824323D01*
Y625690D01*
X824141D01*
Y625781D01*
X824050D01*
Y625872D01*
X823958D01*
Y625964D01*
X823867D01*
Y626055D01*
X823776D01*
Y626146D01*
X823685D01*
Y626237D01*
X823503D01*
Y626328D01*
X823411D01*
Y626419D01*
X823320D01*
Y626510D01*
X823229D01*
Y626602D01*
X823138D01*
Y626693D01*
X823047D01*
Y626784D01*
X822956D01*
Y626875D01*
X822773D01*
Y626966D01*
X822682D01*
Y627057D01*
X822591D01*
Y627148D01*
X822500D01*
Y627240D01*
X822409D01*
Y627331D01*
X822318D01*
Y627422D01*
X822135D01*
Y627513D01*
X822044D01*
Y627604D01*
X821953D01*
Y627695D01*
X821862D01*
Y627786D01*
X821771D01*
Y627878D01*
X821680D01*
Y627969D01*
X821589D01*
Y628060D01*
X821406D01*
Y628151D01*
X821315D01*
Y628242D01*
X821224D01*
Y628333D01*
X821133D01*
Y628424D01*
X821042D01*
Y628516D01*
X820950D01*
Y628607D01*
X820859D01*
Y628698D01*
X820677D01*
Y628789D01*
X820495D01*
Y628880D01*
X806094D01*
Y628971D01*
X805729D01*
Y629062D01*
X805547D01*
Y629154D01*
X805273D01*
Y629245D01*
X805182D01*
Y629336D01*
X805091D01*
Y629427D01*
X804909D01*
Y629518D01*
X804818D01*
Y629701D01*
X804727D01*
Y629792D01*
X804635D01*
Y629883D01*
X804544D01*
Y629974D01*
X804453D01*
Y630156D01*
X804362D01*
Y630430D01*
X804271D01*
Y630703D01*
X804180D01*
Y639362D01*
Y639453D01*
Y649570D01*
X804271D01*
Y649753D01*
X804362D01*
Y650026D01*
X804453D01*
Y650208D01*
X804544D01*
Y650300D01*
X804635D01*
Y650482D01*
X804727D01*
Y650573D01*
X804818D01*
Y650664D01*
X804909D01*
Y650755D01*
X805000D01*
Y650846D01*
X805091D01*
Y650938D01*
X805273D01*
Y651029D01*
X805365D01*
Y651120D01*
X805547D01*
Y651211D01*
X805911D01*
Y651302D01*
X806276D01*
Y651393D01*
X820859D01*
Y651484D01*
X820950D01*
Y651575D01*
X821042D01*
Y651667D01*
X821224D01*
Y651758D01*
X821315D01*
Y651849D01*
X821406D01*
Y651940D01*
X821497D01*
Y652031D01*
X821589D01*
Y652122D01*
X821680D01*
Y652214D01*
X821862D01*
Y652305D01*
X821953D01*
Y652396D01*
X822044D01*
Y652487D01*
X822135D01*
Y652578D01*
X822227D01*
Y652669D01*
X822318D01*
Y652760D01*
X822500D01*
Y652852D01*
X822591D01*
Y652943D01*
X822682D01*
Y653034D01*
X822773D01*
Y653125D01*
X822865D01*
Y653216D01*
X822956D01*
Y653307D01*
X823047D01*
Y653398D01*
X823229D01*
Y653490D01*
X823320D01*
Y653581D01*
X823411D01*
Y653672D01*
X823503D01*
Y653763D01*
X823594D01*
Y653854D01*
X823685D01*
Y653945D01*
X823867D01*
Y654036D01*
X823958D01*
Y654128D01*
X824050D01*
Y654219D01*
X824141D01*
Y654310D01*
X824232D01*
Y654401D01*
X824323D01*
Y654492D01*
X824414D01*
Y654583D01*
X824505D01*
Y654675D01*
X824688D01*
Y654766D01*
X824779D01*
Y654857D01*
X824870D01*
Y654948D01*
X824961D01*
Y655039D01*
X825052D01*
Y655130D01*
X825234D01*
Y655221D01*
X825325D01*
Y655312D01*
X825417D01*
Y655404D01*
X825508D01*
Y655495D01*
X825599D01*
Y655586D01*
X825690D01*
Y655677D01*
X825781D01*
Y655768D01*
X825872D01*
Y655859D01*
X826055D01*
Y655950D01*
X826146D01*
Y656042D01*
X826237D01*
Y656133D01*
X826328D01*
Y656224D01*
X826419D01*
Y656315D01*
X826602D01*
Y656406D01*
X826693D01*
Y656497D01*
X826784D01*
Y656589D01*
X826875D01*
Y656680D01*
X826966D01*
Y656771D01*
X827057D01*
Y656862D01*
X827240D01*
Y656953D01*
X827331D01*
Y657044D01*
X827422D01*
Y657135D01*
X827513D01*
Y657226D01*
X827604D01*
Y657318D01*
X827695D01*
Y657409D01*
X827786D01*
Y657500D01*
X827878D01*
Y657591D01*
X828060D01*
Y657682D01*
X828151D01*
Y657773D01*
X828242D01*
Y657865D01*
X828333D01*
Y657956D01*
X828425D01*
Y658047D01*
X828516D01*
Y658138D01*
X828698D01*
Y658229D01*
X828789D01*
Y658320D01*
X828880D01*
Y658411D01*
X828971D01*
Y658503D01*
X829062D01*
Y658594D01*
X829154D01*
Y658685D01*
X829336D01*
Y658776D01*
X829427D01*
Y658867D01*
X829518D01*
Y658958D01*
X829609D01*
Y659050D01*
X829700D01*
Y659141D01*
X829792D01*
Y659232D01*
X829883D01*
Y659323D01*
X830065D01*
Y659414D01*
X830156D01*
Y659505D01*
X830247D01*
Y659596D01*
X830339D01*
Y659688D01*
X830430D01*
Y659779D01*
X830612D01*
Y659870D01*
X830703D01*
Y659961D01*
X830794D01*
Y660052D01*
X830885D01*
Y660143D01*
X830977D01*
Y660234D01*
X831068D01*
Y660325D01*
X831159D01*
Y660417D01*
X831341D01*
Y660508D01*
X831432D01*
Y660599D01*
X831523D01*
Y660690D01*
X831615D01*
Y660781D01*
X831706D01*
Y660872D01*
X831797D01*
Y660964D01*
X831979D01*
Y661055D01*
X832070D01*
Y661146D01*
X832161D01*
Y661237D01*
X832253D01*
Y661328D01*
X832344D01*
Y661419D01*
X832435D01*
Y661510D01*
X832526D01*
Y661601D01*
X832617D01*
Y661693D01*
X832800D01*
Y661784D01*
X832891D01*
Y661875D01*
X832982D01*
Y661966D01*
X833073D01*
Y662057D01*
X833164D01*
Y662148D01*
X833346D01*
Y662240D01*
X833438D01*
Y662331D01*
X833529D01*
Y662422D01*
X833620D01*
Y662513D01*
X833711D01*
Y662604D01*
X833802D01*
Y662695D01*
X833893D01*
Y662786D01*
X834075D01*
Y662878D01*
X834167D01*
Y662969D01*
X834258D01*
Y663060D01*
X834349D01*
Y663151D01*
X834440D01*
Y663242D01*
X834531D01*
Y663333D01*
X834714D01*
Y663425D01*
X834805D01*
Y663516D01*
X834896D01*
Y663607D01*
X834987D01*
Y663698D01*
X835078D01*
Y663789D01*
X835169D01*
Y663880D01*
X835352D01*
Y663971D01*
X835443D01*
Y664062D01*
X835534D01*
Y664154D01*
X835625D01*
Y664245D01*
X835716D01*
Y664336D01*
X835807D01*
Y664427D01*
X835899D01*
Y664518D01*
X835990D01*
Y664609D01*
X836172D01*
Y664700D01*
X836263D01*
Y664792D01*
X836445D01*
Y664883D01*
X836536D01*
Y664974D01*
X836810D01*
Y665065D01*
X836992D01*
Y665156D01*
X837357D01*
Y665247D01*
X837904D01*
Y665156D01*
D02*
G37*
G36*
X713013Y413867D02*
X713124Y413853D01*
X713262Y413840D01*
X713415Y413812D01*
X713568Y413784D01*
X713928Y413687D01*
X714289Y413548D01*
X714469Y413465D01*
X714649Y413368D01*
X714816Y413243D01*
X714968Y413105D01*
X714982Y413091D01*
X715010Y413077D01*
X715038Y413021D01*
X715093Y412966D01*
X715162Y412897D01*
X715232Y412799D01*
X715301Y412702D01*
X715384Y412578D01*
X715523Y412314D01*
X715662Y411981D01*
X715717Y411815D01*
X715745Y411621D01*
X715772Y411427D01*
X715786Y411218D01*
Y411191D01*
Y411121D01*
X715772Y411011D01*
X715759Y410858D01*
X715731Y410691D01*
X715676Y410497D01*
X715620Y410289D01*
X715537Y410081D01*
X715523Y410054D01*
X715495Y409984D01*
X715440Y409873D01*
X715357Y409721D01*
X715246Y409554D01*
X715107Y409346D01*
X714940Y409138D01*
X714746Y408903D01*
X714718Y408875D01*
X714649Y408792D01*
X714580Y408722D01*
X714510Y408653D01*
X714427Y408570D01*
X714316Y408459D01*
X714205Y408348D01*
X714067Y408223D01*
X713928Y408084D01*
X713762Y407932D01*
X713581Y407779D01*
X713387Y407599D01*
X713165Y407419D01*
X712943Y407224D01*
X712930Y407211D01*
X712902Y407183D01*
X712846Y407141D01*
X712777Y407086D01*
X712694Y407002D01*
X712597Y406919D01*
X712375Y406739D01*
X712139Y406531D01*
X711917Y406323D01*
X711723Y406143D01*
X711640Y406073D01*
X711570Y406004D01*
X711556Y405990D01*
X711515Y405948D01*
X711460Y405893D01*
X711390Y405810D01*
X711321Y405713D01*
X711238Y405616D01*
X711071Y405380D01*
X715800D01*
Y404243D01*
X709435D01*
Y404257D01*
Y404312D01*
Y404395D01*
X709448Y404506D01*
X709462Y404631D01*
X709490Y404770D01*
X709518Y404908D01*
X709573Y405061D01*
Y405075D01*
X709587Y405089D01*
X709615Y405172D01*
X709670Y405297D01*
X709754Y405463D01*
X709865Y405657D01*
X710003Y405879D01*
X710156Y406101D01*
X710350Y406337D01*
Y406351D01*
X710378Y406365D01*
X710447Y406448D01*
X710572Y406573D01*
X710752Y406753D01*
X710960Y406961D01*
X711224Y407211D01*
X711543Y407488D01*
X711889Y407779D01*
X711903Y407793D01*
X711959Y407835D01*
X712042Y407904D01*
X712139Y407987D01*
X712264Y408098D01*
X712416Y408223D01*
X712569Y408362D01*
X712749Y408514D01*
X713096Y408847D01*
X713443Y409180D01*
X713609Y409346D01*
X713762Y409513D01*
X713900Y409665D01*
X714011Y409818D01*
Y409832D01*
X714039Y409846D01*
X714067Y409887D01*
X714094Y409943D01*
X714192Y410095D01*
X714303Y410275D01*
X714400Y410497D01*
X714497Y410733D01*
X714552Y410997D01*
X714580Y411246D01*
Y411260D01*
Y411274D01*
X714566Y411357D01*
X714552Y411496D01*
X714510Y411648D01*
X714455Y411843D01*
X714358Y412037D01*
X714233Y412231D01*
X714067Y412425D01*
X714039Y412453D01*
X713970Y412508D01*
X713873Y412578D01*
X713720Y412675D01*
X713526Y412758D01*
X713304Y412841D01*
X713040Y412897D01*
X712749Y412910D01*
X712666D01*
X712610Y412897D01*
X712444Y412883D01*
X712250Y412841D01*
X712042Y412786D01*
X711806Y412689D01*
X711584Y412564D01*
X711376Y412397D01*
X711348Y412370D01*
X711293Y412300D01*
X711210Y412189D01*
X711127Y412023D01*
X711030Y411829D01*
X710946Y411579D01*
X710891Y411302D01*
X710863Y410983D01*
X709657Y411108D01*
Y411121D01*
X709670Y411163D01*
Y411232D01*
X709684Y411329D01*
X709712Y411440D01*
X709740Y411565D01*
X709781Y411718D01*
X709823Y411870D01*
X709934Y412203D01*
X710100Y412536D01*
X710197Y412702D01*
X710322Y412869D01*
X710447Y413021D01*
X710586Y413160D01*
X710600Y413174D01*
X710627Y413188D01*
X710669Y413229D01*
X710738Y413271D01*
X710822Y413326D01*
X710919Y413382D01*
X711030Y413451D01*
X711168Y413521D01*
X711321Y413590D01*
X711487Y413659D01*
X711667Y413715D01*
X711862Y413770D01*
X712070Y413812D01*
X712292Y413853D01*
X712527Y413867D01*
X712777Y413881D01*
X712916D01*
X713013Y413867D01*
D02*
G37*
G36*
X704012Y413992D02*
X704137D01*
X704262Y413978D01*
X704428Y413951D01*
X704595Y413923D01*
X704955Y413853D01*
X705371Y413743D01*
X705773Y413576D01*
X705981Y413479D01*
X706189Y413368D01*
X706203Y413354D01*
X706231Y413340D01*
X706286Y413299D01*
X706370Y413257D01*
X706453Y413188D01*
X706564Y413105D01*
X706800Y412910D01*
X707049Y412661D01*
X707327Y412356D01*
X707590Y411995D01*
X707812Y411593D01*
Y411579D01*
X707840Y411538D01*
X707868Y411482D01*
X707895Y411399D01*
X707951Y411288D01*
X707992Y411163D01*
X708048Y411011D01*
X708103Y410844D01*
X708145Y410664D01*
X708200Y410470D01*
X708256Y410262D01*
X708298Y410040D01*
X708353Y409554D01*
X708381Y409041D01*
Y409027D01*
Y408986D01*
Y408930D01*
Y408847D01*
X708367Y408736D01*
Y408611D01*
X708353Y408473D01*
X708339Y408334D01*
X708298Y408001D01*
X708228Y407640D01*
X708145Y407266D01*
X708020Y406906D01*
Y406892D01*
X708006Y406864D01*
X707979Y406808D01*
X707951Y406753D01*
X707909Y406670D01*
X707868Y406573D01*
X707757Y406351D01*
X707604Y406087D01*
X707410Y405810D01*
X707188Y405532D01*
X706938Y405255D01*
X706952D01*
X706980Y405227D01*
X707022Y405200D01*
X707091Y405158D01*
X707160Y405103D01*
X707257Y405047D01*
X707465Y404922D01*
X707715Y404770D01*
X707992Y404617D01*
X708284Y404492D01*
X708561Y404367D01*
X708186Y403494D01*
X708173D01*
X708145Y403508D01*
X708089Y403535D01*
X708006Y403563D01*
X707909Y403605D01*
X707798Y403660D01*
X707673Y403716D01*
X707535Y403785D01*
X707230Y403951D01*
X706883Y404146D01*
X706508Y404395D01*
X706120Y404673D01*
X706106D01*
X706078Y404645D01*
X706009Y404617D01*
X705940Y404576D01*
X705829Y404534D01*
X705718Y404478D01*
X705579Y404437D01*
X705427Y404381D01*
X705260Y404326D01*
X705080Y404271D01*
X704678Y404173D01*
X704234Y404104D01*
X703998Y404090D01*
X703763Y404076D01*
X703638D01*
X703541Y404090D01*
X703430D01*
X703291Y404104D01*
X703138Y404132D01*
X702972Y404160D01*
X702611Y404229D01*
X702209Y404340D01*
X701793Y404492D01*
X701599Y404589D01*
X701391Y404700D01*
X701377Y404714D01*
X701349Y404728D01*
X701294Y404770D01*
X701225Y404811D01*
X701127Y404881D01*
X701030Y404964D01*
X700795Y405158D01*
X700531Y405408D01*
X700268Y405713D01*
X700004Y406059D01*
X699768Y406462D01*
Y406475D01*
X699741Y406517D01*
X699713Y406573D01*
X699685Y406656D01*
X699644Y406767D01*
X699588Y406892D01*
X699533Y407044D01*
X699491Y407211D01*
X699436Y407391D01*
X699380Y407585D01*
X699339Y407793D01*
X699283Y408029D01*
X699228Y408514D01*
X699200Y409027D01*
Y409041D01*
Y409097D01*
Y409166D01*
X699214Y409263D01*
Y409388D01*
X699228Y409540D01*
X699241Y409707D01*
X699269Y409887D01*
X699339Y410289D01*
X699436Y410719D01*
X699574Y411177D01*
X699768Y411621D01*
X699782Y411635D01*
X699796Y411676D01*
X699824Y411732D01*
X699879Y411815D01*
X699935Y411912D01*
X700004Y412023D01*
X700198Y412286D01*
X700420Y412564D01*
X700712Y412855D01*
X701030Y413146D01*
X701405Y413396D01*
X701419Y413410D01*
X701460Y413424D01*
X701516Y413451D01*
X701599Y413493D01*
X701696Y413535D01*
X701807Y413590D01*
X701946Y413646D01*
X702098Y413701D01*
X702279Y413756D01*
X702459Y413812D01*
X702861Y413909D01*
X703305Y413978D01*
X703541Y414006D01*
X703915D01*
X704012Y413992D01*
D02*
G37*
G36*
X549813Y661670D02*
X548634D01*
Y669173D01*
X548620Y669159D01*
X548551Y669103D01*
X548467Y669020D01*
X548329Y668923D01*
X548176Y668798D01*
X547982Y668660D01*
X547760Y668507D01*
X547511Y668355D01*
X547497D01*
X547483Y668341D01*
X547400Y668285D01*
X547261Y668216D01*
X547095Y668133D01*
X546900Y668036D01*
X546692Y667939D01*
X546484Y667841D01*
X546276Y667758D01*
Y668895D01*
X546290D01*
X546318Y668923D01*
X546373Y668937D01*
X546443Y668979D01*
X546526Y669020D01*
X546623Y669076D01*
X546859Y669214D01*
X547136Y669367D01*
X547413Y669561D01*
X547705Y669783D01*
X547996Y670019D01*
X548010Y670033D01*
X548024Y670046D01*
X548065Y670088D01*
X548121Y670130D01*
X548246Y670268D01*
X548412Y670435D01*
X548578Y670629D01*
X548759Y670851D01*
X548911Y671073D01*
X549050Y671309D01*
X549813D01*
Y661670D01*
D02*
G37*
G36*
X540757Y671253D02*
X540882D01*
X541173Y671239D01*
X541478Y671198D01*
X541811Y671156D01*
X542116Y671087D01*
X542268Y671045D01*
X542393Y671003D01*
X542407D01*
X542421Y670990D01*
X542504Y670948D01*
X542629Y670892D01*
X542781Y670795D01*
X542948Y670671D01*
X543128Y670504D01*
X543295Y670310D01*
X543461Y670088D01*
Y670074D01*
X543475Y670060D01*
X543530Y669977D01*
X543586Y669838D01*
X543669Y669658D01*
X543738Y669450D01*
X543808Y669201D01*
X543849Y668937D01*
X543863Y668646D01*
Y668632D01*
Y668604D01*
Y668549D01*
X543849Y668479D01*
Y668382D01*
X543835Y668285D01*
X543780Y668049D01*
X543697Y667772D01*
X543586Y667481D01*
X543419Y667190D01*
X543308Y667051D01*
X543198Y666912D01*
X543184Y666898D01*
X543170Y666885D01*
X543128Y666843D01*
X543073Y666801D01*
X543003Y666746D01*
X542920Y666690D01*
X542809Y666621D01*
X542698Y666538D01*
X542560Y666469D01*
X542407Y666399D01*
X542241Y666316D01*
X542060Y666247D01*
X541852Y666191D01*
X541644Y666122D01*
X541409Y666080D01*
X541159Y666039D01*
X541187Y666025D01*
X541242Y665997D01*
X541325Y665941D01*
X541436Y665886D01*
X541686Y665733D01*
X541811Y665636D01*
X541922Y665553D01*
X541949Y665525D01*
X542019Y665456D01*
X542130Y665345D01*
X542268Y665206D01*
X542421Y665012D01*
X542601Y664804D01*
X542781Y664555D01*
X542976Y664277D01*
X544626Y661670D01*
X543045D01*
X541783Y663667D01*
Y663681D01*
X541755Y663709D01*
X541727Y663750D01*
X541686Y663806D01*
X541589Y663958D01*
X541464Y664152D01*
X541311Y664361D01*
X541159Y664582D01*
X541006Y664790D01*
X540868Y664985D01*
X540854Y664998D01*
X540812Y665054D01*
X540743Y665137D01*
X540646Y665234D01*
X540438Y665442D01*
X540327Y665539D01*
X540216Y665622D01*
X540202Y665636D01*
X540174Y665650D01*
X540119Y665678D01*
X540036Y665720D01*
X539952Y665761D01*
X539855Y665803D01*
X539633Y665872D01*
X539619D01*
X539592Y665886D01*
X539536D01*
X539467Y665900D01*
X539370Y665914D01*
X539259D01*
X539106Y665928D01*
X537470D01*
Y661670D01*
X536194D01*
Y671267D01*
X540646D01*
X540757Y671253D01*
D02*
G37*
G36*
X309604Y484635D02*
Y484621D01*
Y484580D01*
Y484524D01*
Y484441D01*
X309590Y484330D01*
Y484219D01*
X309562Y483955D01*
X309534Y483650D01*
X309479Y483331D01*
X309396Y483040D01*
X309298Y482763D01*
Y482749D01*
X309285Y482735D01*
X309243Y482652D01*
X309174Y482541D01*
X309077Y482388D01*
X308938Y482236D01*
X308785Y482069D01*
X308591Y481903D01*
X308369Y481764D01*
X308342Y481750D01*
X308258Y481709D01*
X308134Y481653D01*
X307953Y481598D01*
X307731Y481529D01*
X307482Y481473D01*
X307204Y481431D01*
X306899Y481418D01*
X306774D01*
X306691Y481431D01*
X306580Y481445D01*
X306469Y481459D01*
X306178Y481515D01*
X305873Y481598D01*
X305554Y481723D01*
X305388Y481806D01*
X305235Y481903D01*
X305096Y482014D01*
X304958Y482139D01*
X304944Y482153D01*
X304930Y482166D01*
X304902Y482222D01*
X304861Y482277D01*
X304805Y482347D01*
X304750Y482444D01*
X304694Y482555D01*
X304625Y482680D01*
X304569Y482818D01*
X304514Y482985D01*
X304458Y483151D01*
X304403Y483345D01*
X304375Y483553D01*
X304334Y483789D01*
X304320Y484025D01*
Y484288D01*
X305471Y484455D01*
Y484441D01*
Y484413D01*
Y484358D01*
X305485Y484274D01*
X305499Y484191D01*
Y484094D01*
X305540Y483858D01*
X305582Y483609D01*
X305665Y483359D01*
X305748Y483137D01*
X305804Y483040D01*
X305873Y482957D01*
X305887Y482943D01*
X305942Y482901D01*
X306026Y482832D01*
X306136Y482763D01*
X306289Y482680D01*
X306455Y482624D01*
X306663Y482569D01*
X306885Y482555D01*
X306969D01*
X307052Y482569D01*
X307177Y482583D01*
X307301Y482610D01*
X307440Y482638D01*
X307579Y482693D01*
X307717Y482763D01*
X307731Y482777D01*
X307773Y482804D01*
X307828Y482860D01*
X307912Y482915D01*
X307981Y483012D01*
X308064Y483110D01*
X308134Y483220D01*
X308189Y483359D01*
Y483373D01*
X308217Y483428D01*
X308231Y483526D01*
X308258Y483650D01*
X308286Y483817D01*
X308300Y484025D01*
X308328Y484274D01*
Y484566D01*
Y491181D01*
X309604D01*
Y484635D01*
D02*
G37*
G36*
X314610Y491209D02*
X314721Y491195D01*
X314860Y491181D01*
X315012Y491153D01*
X315165Y491125D01*
X315525Y491028D01*
X315886Y490890D01*
X316066Y490807D01*
X316247Y490709D01*
X316413Y490585D01*
X316565Y490446D01*
X316579Y490432D01*
X316607Y490418D01*
X316635Y490363D01*
X316690Y490307D01*
X316760Y490238D01*
X316829Y490141D01*
X316898Y490044D01*
X316982Y489919D01*
X317120Y489655D01*
X317259Y489323D01*
X317314Y489156D01*
X317342Y488962D01*
X317370Y488768D01*
X317384Y488560D01*
Y488532D01*
Y488463D01*
X317370Y488352D01*
X317356Y488199D01*
X317328Y488033D01*
X317273Y487839D01*
X317217Y487631D01*
X317134Y487423D01*
X317120Y487395D01*
X317092Y487326D01*
X317037Y487215D01*
X316954Y487062D01*
X316843Y486896D01*
X316704Y486688D01*
X316538Y486479D01*
X316344Y486244D01*
X316316Y486216D01*
X316247Y486133D01*
X316177Y486063D01*
X316108Y485994D01*
X316025Y485911D01*
X315914Y485800D01*
X315803Y485689D01*
X315664Y485564D01*
X315525Y485425D01*
X315359Y485273D01*
X315179Y485120D01*
X314984Y484940D01*
X314763Y484760D01*
X314541Y484566D01*
X314527Y484552D01*
X314499Y484524D01*
X314444Y484482D01*
X314374Y484427D01*
X314291Y484344D01*
X314194Y484261D01*
X313972Y484080D01*
X313736Y483872D01*
X313514Y483664D01*
X313320Y483484D01*
X313237Y483415D01*
X313168Y483345D01*
X313154Y483331D01*
X313112Y483290D01*
X313057Y483234D01*
X312987Y483151D01*
X312918Y483054D01*
X312835Y482957D01*
X312668Y482721D01*
X317398D01*
Y481584D01*
X311032D01*
Y481598D01*
Y481653D01*
Y481737D01*
X311046Y481847D01*
X311060Y481972D01*
X311087Y482111D01*
X311115Y482250D01*
X311171Y482402D01*
Y482416D01*
X311185Y482430D01*
X311212Y482513D01*
X311268Y482638D01*
X311351Y482804D01*
X311462Y482999D01*
X311601Y483220D01*
X311753Y483442D01*
X311947Y483678D01*
Y483692D01*
X311975Y483706D01*
X312044Y483789D01*
X312169Y483914D01*
X312349Y484094D01*
X312558Y484302D01*
X312821Y484552D01*
X313140Y484829D01*
X313487Y485120D01*
X313501Y485134D01*
X313556Y485176D01*
X313639Y485245D01*
X313736Y485328D01*
X313861Y485439D01*
X314014Y485564D01*
X314166Y485703D01*
X314347Y485855D01*
X314693Y486188D01*
X315040Y486521D01*
X315206Y486688D01*
X315359Y486854D01*
X315498Y487006D01*
X315609Y487159D01*
Y487173D01*
X315636Y487187D01*
X315664Y487228D01*
X315692Y487284D01*
X315789Y487436D01*
X315900Y487617D01*
X315997Y487839D01*
X316094Y488074D01*
X316150Y488338D01*
X316177Y488587D01*
Y488601D01*
Y488615D01*
X316163Y488699D01*
X316150Y488837D01*
X316108Y488990D01*
X316052Y489184D01*
X315955Y489378D01*
X315830Y489572D01*
X315664Y489766D01*
X315636Y489794D01*
X315567Y489850D01*
X315470Y489919D01*
X315317Y490016D01*
X315123Y490099D01*
X314901Y490182D01*
X314638Y490238D01*
X314347Y490252D01*
X314263D01*
X314208Y490238D01*
X314042Y490224D01*
X313847Y490182D01*
X313639Y490127D01*
X313403Y490030D01*
X313182Y489905D01*
X312974Y489739D01*
X312946Y489711D01*
X312890Y489641D01*
X312807Y489531D01*
X312724Y489364D01*
X312627Y489170D01*
X312544Y488920D01*
X312488Y488643D01*
X312460Y488324D01*
X311254Y488449D01*
Y488463D01*
X311268Y488504D01*
Y488574D01*
X311282Y488671D01*
X311309Y488782D01*
X311337Y488907D01*
X311379Y489059D01*
X311420Y489212D01*
X311531Y489544D01*
X311698Y489877D01*
X311795Y490044D01*
X311920Y490210D01*
X312044Y490363D01*
X312183Y490501D01*
X312197Y490515D01*
X312225Y490529D01*
X312266Y490571D01*
X312336Y490612D01*
X312419Y490668D01*
X312516Y490723D01*
X312627Y490793D01*
X312766Y490862D01*
X312918Y490931D01*
X313085Y491001D01*
X313265Y491056D01*
X313459Y491112D01*
X313667Y491153D01*
X313889Y491195D01*
X314125Y491209D01*
X314374Y491222D01*
X314513D01*
X314610Y491209D01*
D02*
G37*
G36*
X817927Y476985D02*
X818107Y476957D01*
X818329Y476915D01*
X818579Y476846D01*
X818829Y476763D01*
X819078Y476652D01*
X819092D01*
X819106Y476638D01*
X819189Y476596D01*
X819314Y476513D01*
X819453Y476416D01*
X819619Y476277D01*
X819786Y476125D01*
X819952Y475945D01*
X820091Y475737D01*
X820105Y475709D01*
X820146Y475639D01*
X820202Y475515D01*
X820271Y475362D01*
X820340Y475182D01*
X820396Y474974D01*
X820437Y474738D01*
X820451Y474502D01*
Y474474D01*
Y474391D01*
X820437Y474280D01*
X820410Y474128D01*
X820368Y473947D01*
X820299Y473753D01*
X820215Y473559D01*
X820105Y473365D01*
X820091Y473337D01*
X820049Y473282D01*
X819966Y473185D01*
X819855Y473074D01*
X819716Y472949D01*
X819550Y472810D01*
X819356Y472686D01*
X819120Y472561D01*
X819134D01*
X819161Y472547D01*
X819203Y472533D01*
X819258Y472519D01*
X819411Y472464D01*
X819605Y472380D01*
X819827Y472269D01*
X820049Y472131D01*
X820257Y471950D01*
X820451Y471742D01*
X820465Y471715D01*
X820520Y471632D01*
X820604Y471493D01*
X820687Y471312D01*
X820770Y471091D01*
X820853Y470827D01*
X820909Y470522D01*
X820923Y470189D01*
Y470175D01*
Y470134D01*
Y470064D01*
X820909Y469981D01*
X820895Y469870D01*
X820867Y469745D01*
X820839Y469607D01*
X820812Y469454D01*
X820701Y469121D01*
X820618Y468941D01*
X820534Y468775D01*
X820424Y468594D01*
X820299Y468414D01*
X820160Y468234D01*
X819994Y468067D01*
X819980Y468053D01*
X819952Y468026D01*
X819896Y467984D01*
X819827Y467929D01*
X819744Y467859D01*
X819633Y467790D01*
X819508Y467707D01*
X819356Y467637D01*
X819203Y467554D01*
X819023Y467471D01*
X818842Y467402D01*
X818634Y467332D01*
X818412Y467277D01*
X818177Y467235D01*
X817941Y467207D01*
X817678Y467194D01*
X817553D01*
X817469Y467207D01*
X817358Y467221D01*
X817234Y467235D01*
X817095Y467263D01*
X816943Y467291D01*
X816610Y467374D01*
X816263Y467513D01*
X816083Y467596D01*
X815916Y467693D01*
X815750Y467818D01*
X815583Y467943D01*
X815570Y467956D01*
X815542Y467984D01*
X815500Y468026D01*
X815459Y468081D01*
X815389Y468150D01*
X815320Y468248D01*
X815237Y468345D01*
X815154Y468470D01*
X815070Y468608D01*
X814987Y468747D01*
X814835Y469080D01*
X814710Y469468D01*
X814668Y469676D01*
X814640Y469898D01*
X815819Y470051D01*
Y470037D01*
X815833Y470009D01*
X815847Y469953D01*
X815861Y469884D01*
X815875Y469801D01*
X815902Y469704D01*
X815972Y469496D01*
X816069Y469246D01*
X816194Y469010D01*
X816332Y468788D01*
X816499Y468594D01*
X816526Y468580D01*
X816582Y468525D01*
X816693Y468456D01*
X816832Y468386D01*
X816998Y468303D01*
X817206Y468234D01*
X817442Y468178D01*
X817691Y468164D01*
X817775D01*
X817830Y468178D01*
X817983Y468192D01*
X818177Y468234D01*
X818399Y468303D01*
X818634Y468400D01*
X818870Y468539D01*
X819092Y468733D01*
X819120Y468761D01*
X819189Y468844D01*
X819272Y468969D01*
X819383Y469135D01*
X819494Y469343D01*
X819577Y469579D01*
X819647Y469856D01*
X819675Y470161D01*
Y470175D01*
Y470203D01*
Y470245D01*
X819661Y470300D01*
X819647Y470453D01*
X819605Y470633D01*
X819550Y470855D01*
X819453Y471077D01*
X819314Y471299D01*
X819134Y471507D01*
X819106Y471534D01*
X819037Y471590D01*
X818926Y471673D01*
X818773Y471770D01*
X818579Y471867D01*
X818343Y471950D01*
X818080Y472006D01*
X817788Y472034D01*
X817664D01*
X817567Y472020D01*
X817442Y472006D01*
X817303Y471978D01*
X817137Y471950D01*
X816956Y471909D01*
X817095Y472949D01*
X817164D01*
X817220Y472935D01*
X817400D01*
X817553Y472963D01*
X817733Y472991D01*
X817941Y473032D01*
X818177Y473102D01*
X818399Y473199D01*
X818634Y473323D01*
X818648D01*
X818662Y473337D01*
X818732Y473393D01*
X818829Y473490D01*
X818940Y473615D01*
X819051Y473795D01*
X819148Y474003D01*
X819217Y474239D01*
X819245Y474377D01*
Y474530D01*
Y474544D01*
Y474558D01*
Y474641D01*
X819217Y474752D01*
X819189Y474904D01*
X819134Y475071D01*
X819064Y475251D01*
X818953Y475431D01*
X818801Y475598D01*
X818787Y475612D01*
X818718Y475667D01*
X818621Y475737D01*
X818496Y475820D01*
X818329Y475889D01*
X818135Y475958D01*
X817913Y476014D01*
X817664Y476028D01*
X817553D01*
X817428Y476000D01*
X817262Y475972D01*
X817081Y475917D01*
X816901Y475848D01*
X816707Y475737D01*
X816526Y475598D01*
X816513Y475584D01*
X816457Y475515D01*
X816374Y475418D01*
X816277Y475279D01*
X816180Y475099D01*
X816083Y474877D01*
X815999Y474613D01*
X815944Y474308D01*
X814765Y474516D01*
Y474530D01*
X814779Y474572D01*
X814793Y474627D01*
X814807Y474710D01*
X814835Y474807D01*
X814876Y474918D01*
X814959Y475182D01*
X815098Y475487D01*
X815264Y475792D01*
X815472Y476083D01*
X815736Y476347D01*
X815750Y476361D01*
X815778Y476375D01*
X815819Y476402D01*
X815875Y476444D01*
X815944Y476499D01*
X816041Y476555D01*
X816138Y476610D01*
X816263Y476680D01*
X816540Y476791D01*
X816859Y476902D01*
X817234Y476971D01*
X817428Y476998D01*
X817775D01*
X817927Y476985D01*
D02*
G37*
G36*
X813032Y470411D02*
Y470397D01*
Y470356D01*
Y470300D01*
Y470217D01*
X813018Y470106D01*
Y469995D01*
X812990Y469731D01*
X812962Y469426D01*
X812907Y469107D01*
X812824Y468816D01*
X812727Y468539D01*
Y468525D01*
X812713Y468511D01*
X812671Y468428D01*
X812602Y468317D01*
X812505Y468164D01*
X812366Y468012D01*
X812213Y467845D01*
X812019Y467679D01*
X811797Y467540D01*
X811770Y467526D01*
X811686Y467485D01*
X811562Y467429D01*
X811381Y467374D01*
X811159Y467304D01*
X810910Y467249D01*
X810632Y467207D01*
X810327Y467194D01*
X810202D01*
X810119Y467207D01*
X810008Y467221D01*
X809897Y467235D01*
X809606Y467291D01*
X809301Y467374D01*
X808982Y467499D01*
X808816Y467582D01*
X808663Y467679D01*
X808524Y467790D01*
X808386Y467915D01*
X808372Y467929D01*
X808358Y467943D01*
X808330Y467998D01*
X808289Y468053D01*
X808233Y468123D01*
X808178Y468220D01*
X808122Y468331D01*
X808053Y468456D01*
X807997Y468594D01*
X807942Y468761D01*
X807886Y468927D01*
X807831Y469121D01*
X807803Y469329D01*
X807762Y469565D01*
X807748Y469801D01*
Y470064D01*
X808899Y470231D01*
Y470217D01*
Y470189D01*
Y470134D01*
X808913Y470051D01*
X808927Y469967D01*
Y469870D01*
X808968Y469634D01*
X809010Y469385D01*
X809093Y469135D01*
X809176Y468913D01*
X809232Y468816D01*
X809301Y468733D01*
X809315Y468719D01*
X809370Y468677D01*
X809454Y468608D01*
X809565Y468539D01*
X809717Y468456D01*
X809883Y468400D01*
X810091Y468345D01*
X810313Y468331D01*
X810397D01*
X810480Y468345D01*
X810605Y468358D01*
X810729Y468386D01*
X810868Y468414D01*
X811007Y468470D01*
X811145Y468539D01*
X811159Y468553D01*
X811201Y468580D01*
X811256Y468636D01*
X811340Y468691D01*
X811409Y468788D01*
X811492Y468885D01*
X811562Y468997D01*
X811617Y469135D01*
Y469149D01*
X811645Y469204D01*
X811659Y469302D01*
X811686Y469426D01*
X811714Y469593D01*
X811728Y469801D01*
X811756Y470051D01*
Y470342D01*
Y476957D01*
X813032D01*
Y470411D01*
D02*
G37*
G36*
X644409Y418305D02*
X644520Y418292D01*
X644659Y418278D01*
X644812Y418250D01*
X644964Y418222D01*
X645325Y418125D01*
X645685Y417986D01*
X645866Y417903D01*
X646046Y417806D01*
X646212Y417681D01*
X646365Y417543D01*
X646379Y417529D01*
X646406Y417515D01*
X646434Y417459D01*
X646490Y417404D01*
X646559Y417335D01*
X646628Y417238D01*
X646698Y417140D01*
X646781Y417016D01*
X646920Y416752D01*
X647058Y416419D01*
X647114Y416253D01*
X647141Y416059D01*
X647169Y415864D01*
X647183Y415657D01*
Y415629D01*
Y415559D01*
X647169Y415448D01*
X647155Y415296D01*
X647128Y415130D01*
X647072Y414935D01*
X647017Y414727D01*
X646934Y414519D01*
X646920Y414492D01*
X646892Y414422D01*
X646836Y414311D01*
X646753Y414159D01*
X646642Y413992D01*
X646504Y413784D01*
X646337Y413576D01*
X646143Y413340D01*
X646115Y413313D01*
X646046Y413229D01*
X645977Y413160D01*
X645907Y413091D01*
X645824Y413008D01*
X645713Y412897D01*
X645602Y412786D01*
X645463Y412661D01*
X645325Y412522D01*
X645158Y412370D01*
X644978Y412217D01*
X644784Y412037D01*
X644562Y411857D01*
X644340Y411662D01*
X644326Y411648D01*
X644298Y411621D01*
X644243Y411579D01*
X644174Y411524D01*
X644090Y411441D01*
X643993Y411357D01*
X643772Y411177D01*
X643536Y410969D01*
X643314Y410761D01*
X643120Y410581D01*
X643036Y410511D01*
X642967Y410442D01*
X642953Y410428D01*
X642912Y410387D01*
X642856Y410331D01*
X642787Y410248D01*
X642718Y410151D01*
X642634Y410054D01*
X642468Y409818D01*
X647197D01*
Y408681D01*
X640831D01*
Y408695D01*
Y408750D01*
Y408833D01*
X640845Y408944D01*
X640859Y409069D01*
X640887Y409208D01*
X640915Y409346D01*
X640970Y409499D01*
Y409513D01*
X640984Y409527D01*
X641012Y409610D01*
X641067Y409735D01*
X641150Y409901D01*
X641261Y410095D01*
X641400Y410317D01*
X641553Y410539D01*
X641747Y410775D01*
Y410789D01*
X641774Y410803D01*
X641844Y410886D01*
X641969Y411011D01*
X642149Y411191D01*
X642357Y411399D01*
X642620Y411648D01*
X642939Y411926D01*
X643286Y412217D01*
X643300Y412231D01*
X643355Y412273D01*
X643439Y412342D01*
X643536Y412425D01*
X643661Y412536D01*
X643813Y412661D01*
X643966Y412800D01*
X644146Y412952D01*
X644493Y413285D01*
X644839Y413618D01*
X645006Y413784D01*
X645158Y413951D01*
X645297Y414103D01*
X645408Y414256D01*
Y414270D01*
X645436Y414283D01*
X645463Y414325D01*
X645491Y414381D01*
X645588Y414533D01*
X645699Y414713D01*
X645796Y414935D01*
X645893Y415171D01*
X645949Y415435D01*
X645977Y415684D01*
Y415698D01*
Y415712D01*
X645963Y415795D01*
X645949Y415934D01*
X645907Y416086D01*
X645852Y416281D01*
X645755Y416475D01*
X645630Y416669D01*
X645463Y416863D01*
X645436Y416891D01*
X645366Y416946D01*
X645269Y417016D01*
X645117Y417113D01*
X644923Y417196D01*
X644701Y417279D01*
X644437Y417335D01*
X644146Y417348D01*
X644063D01*
X644007Y417335D01*
X643841Y417321D01*
X643647Y417279D01*
X643439Y417224D01*
X643203Y417127D01*
X642981Y417002D01*
X642773Y416835D01*
X642745Y416808D01*
X642690Y416738D01*
X642607Y416627D01*
X642523Y416461D01*
X642426Y416267D01*
X642343Y416017D01*
X642288Y415740D01*
X642260Y415421D01*
X641053Y415546D01*
Y415559D01*
X641067Y415601D01*
Y415670D01*
X641081Y415767D01*
X641109Y415878D01*
X641136Y416003D01*
X641178Y416156D01*
X641220Y416308D01*
X641331Y416641D01*
X641497Y416974D01*
X641594Y417140D01*
X641719Y417307D01*
X641844Y417459D01*
X641982Y417598D01*
X641996Y417612D01*
X642024Y417626D01*
X642066Y417667D01*
X642135Y417709D01*
X642218Y417765D01*
X642315Y417820D01*
X642426Y417889D01*
X642565Y417959D01*
X642718Y418028D01*
X642884Y418097D01*
X643064Y418153D01*
X643258Y418208D01*
X643466Y418250D01*
X643688Y418292D01*
X643924Y418305D01*
X644174Y418319D01*
X644312D01*
X644409Y418305D01*
D02*
G37*
G36*
X635742Y418264D02*
X636019Y418250D01*
X636296Y418222D01*
X636574Y418181D01*
X636810Y418139D01*
X636823D01*
X636851Y418125D01*
X636893D01*
X636948Y418097D01*
X637101Y418056D01*
X637295Y417986D01*
X637517Y417889D01*
X637753Y417765D01*
X637988Y417626D01*
X638210Y417445D01*
X638224Y417432D01*
X638238Y417418D01*
X638280Y417376D01*
X638335Y417335D01*
X638474Y417196D01*
X638640Y417002D01*
X638820Y416766D01*
X639015Y416489D01*
X639195Y416170D01*
X639347Y415809D01*
Y415795D01*
X639361Y415767D01*
X639389Y415712D01*
X639403Y415629D01*
X639445Y415532D01*
X639472Y415421D01*
X639500Y415296D01*
X639542Y415143D01*
X639583Y414991D01*
X639611Y414810D01*
X639680Y414422D01*
X639722Y413992D01*
X639736Y413521D01*
Y413507D01*
Y413479D01*
Y413410D01*
Y413340D01*
X639722Y413243D01*
Y413132D01*
X639708Y412869D01*
X639666Y412564D01*
X639625Y412245D01*
X639556Y411912D01*
X639472Y411579D01*
Y411565D01*
X639458Y411538D01*
X639445Y411496D01*
X639431Y411441D01*
X639375Y411288D01*
X639292Y411094D01*
X639209Y410872D01*
X639098Y410650D01*
X638959Y410414D01*
X638820Y410192D01*
X638807Y410165D01*
X638751Y410095D01*
X638668Y409998D01*
X638557Y409873D01*
X638432Y409735D01*
X638280Y409596D01*
X638127Y409444D01*
X637947Y409319D01*
X637919Y409305D01*
X637864Y409263D01*
X637766Y409208D01*
X637628Y409138D01*
X637461Y409055D01*
X637267Y408986D01*
X637045Y408903D01*
X636796Y408833D01*
X636768D01*
X636726Y408819D01*
X636685Y408806D01*
X636546Y408792D01*
X636352Y408764D01*
X636130Y408736D01*
X635867Y408708D01*
X635575Y408695D01*
X635256Y408681D01*
X631803D01*
Y418278D01*
X635492D01*
X635742Y418264D01*
D02*
G37*
G36*
X506146Y491984D02*
Y491970D01*
Y491914D01*
Y491845D01*
Y491748D01*
X506133Y491623D01*
Y491484D01*
X506119Y491318D01*
X506105Y491152D01*
X506063Y490777D01*
X506008Y490389D01*
X505924Y490014D01*
X505869Y489834D01*
X505814Y489668D01*
Y489654D01*
X505800Y489626D01*
X505772Y489584D01*
X505744Y489529D01*
X505661Y489376D01*
X505536Y489182D01*
X505370Y488960D01*
X505176Y488738D01*
X504926Y488503D01*
X504621Y488295D01*
X504607D01*
X504579Y488267D01*
X504538Y488253D01*
X504468Y488211D01*
X504385Y488170D01*
X504274Y488128D01*
X504163Y488087D01*
X504025Y488031D01*
X503872Y487976D01*
X503706Y487934D01*
X503525Y487892D01*
X503317Y487851D01*
X503109Y487823D01*
X502887Y487795D01*
X502388Y487768D01*
X502263D01*
X502166Y487781D01*
X502055D01*
X501917Y487795D01*
X501764Y487809D01*
X501611Y487823D01*
X501265Y487878D01*
X500890Y487962D01*
X500530Y488073D01*
X500183Y488225D01*
X500169D01*
X500141Y488253D01*
X500100Y488281D01*
X500044Y488308D01*
X499892Y488419D01*
X499711Y488572D01*
X499503Y488766D01*
X499309Y488988D01*
X499115Y489265D01*
X498963Y489571D01*
Y489584D01*
X498949Y489612D01*
X498935Y489668D01*
X498907Y489737D01*
X498879Y489820D01*
X498852Y489931D01*
X498810Y490056D01*
X498782Y490208D01*
X498755Y490375D01*
X498713Y490555D01*
X498685Y490749D01*
X498657Y490957D01*
X498630Y491193D01*
X498616Y491443D01*
X498602Y491706D01*
Y491984D01*
Y497531D01*
X499878D01*
Y491984D01*
Y491970D01*
Y491928D01*
Y491859D01*
Y491776D01*
X499892Y491679D01*
Y491554D01*
X499906Y491290D01*
X499933Y490985D01*
X499975Y490680D01*
X500030Y490389D01*
X500058Y490264D01*
X500100Y490139D01*
X500114Y490111D01*
X500141Y490042D01*
X500211Y489945D01*
X500294Y489806D01*
X500391Y489668D01*
X500530Y489515D01*
X500696Y489362D01*
X500890Y489238D01*
X500918Y489224D01*
X500987Y489182D01*
X501112Y489141D01*
X501279Y489085D01*
X501473Y489016D01*
X501722Y488974D01*
X501986Y488932D01*
X502277Y488919D01*
X502416D01*
X502499Y488932D01*
X502624D01*
X502749Y488946D01*
X503054Y489002D01*
X503387Y489071D01*
X503706Y489182D01*
X504011Y489335D01*
X504149Y489432D01*
X504274Y489543D01*
X504288Y489557D01*
X504302Y489571D01*
X504330Y489612D01*
X504371Y489668D01*
X504413Y489751D01*
X504468Y489834D01*
X504524Y489959D01*
X504579Y490084D01*
X504635Y490236D01*
X504676Y490416D01*
X504732Y490625D01*
X504773Y490846D01*
X504815Y491096D01*
X504843Y491359D01*
X504870Y491665D01*
Y491984D01*
Y497531D01*
X506146D01*
Y491984D01*
D02*
G37*
G36*
X512221Y487934D02*
X511042D01*
Y495437D01*
X511028Y495423D01*
X510959Y495368D01*
X510876Y495284D01*
X510737Y495187D01*
X510584Y495062D01*
X510390Y494924D01*
X510168Y494771D01*
X509919Y494619D01*
X509905D01*
X509891Y494605D01*
X509808Y494549D01*
X509669Y494480D01*
X509503Y494397D01*
X509308Y494300D01*
X509100Y494202D01*
X508892Y494105D01*
X508684Y494022D01*
Y495159D01*
X508698D01*
X508726Y495187D01*
X508781Y495201D01*
X508851Y495243D01*
X508934Y495284D01*
X509031Y495340D01*
X509267Y495478D01*
X509544Y495631D01*
X509822Y495825D01*
X510113Y496047D01*
X510404Y496283D01*
X510418Y496297D01*
X510432Y496311D01*
X510473Y496352D01*
X510529Y496394D01*
X510654Y496532D01*
X510820Y496699D01*
X510987Y496893D01*
X511167Y497115D01*
X511319Y497337D01*
X511458Y497573D01*
X512221D01*
Y487934D01*
D02*
G37*
G36*
X548024Y518895D02*
X548135Y518881D01*
X548274Y518867D01*
X548427Y518839D01*
X548579Y518811D01*
X548940Y518714D01*
X549300Y518576D01*
X549481Y518493D01*
X549661Y518395D01*
X549827Y518271D01*
X549980Y518132D01*
X549994Y518118D01*
X550022Y518104D01*
X550049Y518049D01*
X550105Y517993D01*
X550174Y517924D01*
X550243Y517827D01*
X550313Y517730D01*
X550396Y517605D01*
X550535Y517341D01*
X550673Y517009D01*
X550729Y516842D01*
X550757Y516648D01*
X550784Y516454D01*
X550798Y516246D01*
Y516218D01*
Y516149D01*
X550784Y516038D01*
X550770Y515885D01*
X550743Y515719D01*
X550687Y515525D01*
X550632Y515317D01*
X550549Y515109D01*
X550535Y515081D01*
X550507Y515011D01*
X550452Y514901D01*
X550368Y514748D01*
X550257Y514582D01*
X550119Y514374D01*
X549952Y514165D01*
X549758Y513930D01*
X549730Y513902D01*
X549661Y513819D01*
X549592Y513750D01*
X549522Y513680D01*
X549439Y513597D01*
X549328Y513486D01*
X549217Y513375D01*
X549078Y513250D01*
X548940Y513111D01*
X548773Y512959D01*
X548593Y512806D01*
X548399Y512626D01*
X548177Y512446D01*
X547955Y512252D01*
X547941Y512238D01*
X547914Y512210D01*
X547858Y512169D01*
X547789Y512113D01*
X547705Y512030D01*
X547608Y511947D01*
X547387Y511766D01*
X547151Y511558D01*
X546929Y511350D01*
X546735Y511170D01*
X546651Y511101D01*
X546582Y511031D01*
X546568Y511017D01*
X546527Y510976D01*
X546471Y510920D01*
X546402Y510837D01*
X546333Y510740D01*
X546249Y510643D01*
X546083Y510407D01*
X550812D01*
Y509270D01*
X544446D01*
Y509284D01*
Y509339D01*
Y509423D01*
X544460Y509534D01*
X544474Y509658D01*
X544502Y509797D01*
X544530Y509936D01*
X544585Y510088D01*
Y510102D01*
X544599Y510116D01*
X544627Y510199D01*
X544682Y510324D01*
X544765Y510490D01*
X544876Y510685D01*
X545015Y510906D01*
X545168Y511128D01*
X545362Y511364D01*
Y511378D01*
X545390Y511392D01*
X545459Y511475D01*
X545584Y511600D01*
X545764Y511780D01*
X545972Y511988D01*
X546236Y512238D01*
X546554Y512515D01*
X546901Y512806D01*
X546915Y512820D01*
X546970Y512862D01*
X547054Y512931D01*
X547151Y513014D01*
X547276Y513125D01*
X547428Y513250D01*
X547581Y513389D01*
X547761Y513541D01*
X548108Y513874D01*
X548454Y514207D01*
X548621Y514374D01*
X548773Y514540D01*
X548912Y514692D01*
X549023Y514845D01*
Y514859D01*
X549051Y514873D01*
X549078Y514914D01*
X549106Y514970D01*
X549203Y515122D01*
X549314Y515303D01*
X549411Y515525D01*
X549508Y515760D01*
X549564Y516024D01*
X549592Y516273D01*
Y516287D01*
Y516301D01*
X549578Y516385D01*
X549564Y516523D01*
X549522Y516676D01*
X549467Y516870D01*
X549370Y517064D01*
X549245Y517258D01*
X549078Y517452D01*
X549051Y517480D01*
X548981Y517536D01*
X548884Y517605D01*
X548732Y517702D01*
X548538Y517785D01*
X548316Y517868D01*
X548052Y517924D01*
X547761Y517938D01*
X547678D01*
X547622Y517924D01*
X547456Y517910D01*
X547262Y517868D01*
X547054Y517813D01*
X546818Y517716D01*
X546596Y517591D01*
X546388Y517425D01*
X546360Y517397D01*
X546305Y517327D01*
X546222Y517217D01*
X546138Y517050D01*
X546041Y516856D01*
X545958Y516606D01*
X545903Y516329D01*
X545875Y516010D01*
X544668Y516135D01*
Y516149D01*
X544682Y516190D01*
Y516260D01*
X544696Y516357D01*
X544724Y516468D01*
X544752Y516592D01*
X544793Y516745D01*
X544835Y516898D01*
X544946Y517230D01*
X545112Y517563D01*
X545209Y517730D01*
X545334Y517896D01*
X545459Y518049D01*
X545597Y518187D01*
X545611Y518201D01*
X545639Y518215D01*
X545681Y518257D01*
X545750Y518298D01*
X545833Y518354D01*
X545930Y518409D01*
X546041Y518479D01*
X546180Y518548D01*
X546333Y518617D01*
X546499Y518687D01*
X546679Y518742D01*
X546873Y518798D01*
X547081Y518839D01*
X547303Y518881D01*
X547539Y518895D01*
X547789Y518909D01*
X547927D01*
X548024Y518895D01*
D02*
G37*
G36*
X539995Y518853D02*
X540120D01*
X540411Y518839D01*
X540716Y518798D01*
X541049Y518756D01*
X541354Y518687D01*
X541506Y518645D01*
X541631Y518603D01*
X541645D01*
X541659Y518590D01*
X541742Y518548D01*
X541867Y518493D01*
X542020Y518395D01*
X542186Y518271D01*
X542366Y518104D01*
X542533Y517910D01*
X542699Y517688D01*
Y517674D01*
X542713Y517660D01*
X542768Y517577D01*
X542824Y517439D01*
X542907Y517258D01*
X542976Y517050D01*
X543046Y516800D01*
X543087Y516537D01*
X543101Y516246D01*
Y516232D01*
Y516204D01*
Y516149D01*
X543087Y516079D01*
Y515982D01*
X543074Y515885D01*
X543018Y515649D01*
X542935Y515372D01*
X542824Y515081D01*
X542657Y514790D01*
X542547Y514651D01*
X542435Y514512D01*
X542422Y514498D01*
X542408Y514484D01*
X542366Y514443D01*
X542311Y514401D01*
X542241Y514346D01*
X542158Y514290D01*
X542047Y514221D01*
X541936Y514138D01*
X541798Y514068D01*
X541645Y513999D01*
X541479Y513916D01*
X541298Y513847D01*
X541090Y513791D01*
X540882Y513722D01*
X540647Y513680D01*
X540397Y513638D01*
X540425Y513625D01*
X540480Y513597D01*
X540563Y513541D01*
X540674Y513486D01*
X540924Y513333D01*
X541049Y513236D01*
X541160Y513153D01*
X541187Y513125D01*
X541257Y513056D01*
X541368Y512945D01*
X541506Y512806D01*
X541659Y512612D01*
X541839Y512404D01*
X542020Y512155D01*
X542214Y511877D01*
X543864Y509270D01*
X542283D01*
X541021Y511267D01*
Y511281D01*
X540993Y511309D01*
X540965Y511350D01*
X540924Y511406D01*
X540827Y511558D01*
X540702Y511752D01*
X540549Y511960D01*
X540397Y512182D01*
X540244Y512390D01*
X540106Y512584D01*
X540092Y512598D01*
X540050Y512654D01*
X539981Y512737D01*
X539884Y512834D01*
X539676Y513042D01*
X539565Y513139D01*
X539454Y513223D01*
X539440Y513236D01*
X539412Y513250D01*
X539357Y513278D01*
X539273Y513320D01*
X539190Y513361D01*
X539093Y513403D01*
X538871Y513472D01*
X538857D01*
X538830Y513486D01*
X538774D01*
X538705Y513500D01*
X538608Y513514D01*
X538497D01*
X538344Y513528D01*
X536708D01*
Y509270D01*
X535432D01*
Y518867D01*
X539884D01*
X539995Y518853D01*
D02*
G37*
G36*
X451715Y494759D02*
X447873D01*
X447360Y492165D01*
X447374Y492179D01*
X447402Y492193D01*
X447443Y492221D01*
X447513Y492262D01*
X447596Y492304D01*
X447693Y492360D01*
X447915Y492471D01*
X448192Y492581D01*
X448497Y492678D01*
X448830Y492748D01*
X448997Y492776D01*
X449302D01*
X449385Y492762D01*
X449496Y492748D01*
X449621Y492734D01*
X449759Y492706D01*
X449912Y492665D01*
X450245Y492568D01*
X450425Y492498D01*
X450605Y492401D01*
X450786Y492304D01*
X450966Y492193D01*
X451132Y492054D01*
X451299Y491902D01*
X451313Y491888D01*
X451340Y491860D01*
X451382Y491819D01*
X451437Y491749D01*
X451507Y491652D01*
X451576Y491555D01*
X451659Y491430D01*
X451743Y491292D01*
X451812Y491139D01*
X451895Y490973D01*
X451964Y490779D01*
X452034Y490584D01*
X452089Y490376D01*
X452131Y490141D01*
X452159Y489905D01*
X452173Y489655D01*
Y489641D01*
Y489600D01*
Y489530D01*
X452159Y489433D01*
X452145Y489322D01*
X452131Y489198D01*
X452103Y489045D01*
X452075Y488892D01*
X451992Y488532D01*
X451853Y488157D01*
X451770Y487963D01*
X451659Y487783D01*
X451548Y487589D01*
X451410Y487408D01*
X451396Y487395D01*
X451368Y487353D01*
X451313Y487298D01*
X451243Y487228D01*
X451146Y487145D01*
X451035Y487034D01*
X450897Y486937D01*
X450744Y486826D01*
X450578Y486715D01*
X450383Y486618D01*
X450175Y486521D01*
X449953Y486424D01*
X449718Y486354D01*
X449454Y486299D01*
X449177Y486257D01*
X448886Y486244D01*
X448761D01*
X448664Y486257D01*
X448553Y486271D01*
X448428Y486285D01*
X448275Y486299D01*
X448123Y486341D01*
X447776Y486424D01*
X447430Y486549D01*
X447249Y486632D01*
X447069Y486729D01*
X446903Y486840D01*
X446736Y486965D01*
X446722Y486979D01*
X446694Y486992D01*
X446667Y487048D01*
X446611Y487103D01*
X446542Y487173D01*
X446473Y487256D01*
X446389Y487367D01*
X446320Y487492D01*
X446237Y487617D01*
X446154Y487769D01*
X446001Y488102D01*
X445876Y488490D01*
X445835Y488698D01*
X445807Y488920D01*
X447041Y489017D01*
Y489003D01*
Y488976D01*
X447055Y488934D01*
X447069Y488865D01*
X447110Y488712D01*
X447166Y488504D01*
X447249Y488296D01*
X447360Y488060D01*
X447499Y487852D01*
X447665Y487658D01*
X447693Y487644D01*
X447748Y487589D01*
X447859Y487519D01*
X448012Y487436D01*
X448178Y487353D01*
X448386Y487284D01*
X448622Y487228D01*
X448886Y487214D01*
X448969D01*
X449024Y487228D01*
X449191Y487242D01*
X449385Y487298D01*
X449621Y487367D01*
X449856Y487478D01*
X450106Y487644D01*
X450217Y487741D01*
X450328Y487852D01*
X450342Y487866D01*
X450356Y487880D01*
X450383Y487922D01*
X450425Y487963D01*
X450522Y488116D01*
X450633Y488310D01*
X450730Y488546D01*
X450827Y488837D01*
X450897Y489184D01*
X450924Y489364D01*
Y489558D01*
Y489572D01*
Y489600D01*
Y489655D01*
X450910Y489725D01*
Y489808D01*
X450897Y489905D01*
X450855Y490127D01*
X450786Y490390D01*
X450689Y490654D01*
X450550Y490903D01*
X450356Y491139D01*
Y491153D01*
X450328Y491167D01*
X450259Y491236D01*
X450134Y491333D01*
X449967Y491444D01*
X449745Y491541D01*
X449496Y491638D01*
X449205Y491708D01*
X449038Y491735D01*
X448775D01*
X448664Y491722D01*
X448525Y491708D01*
X448359Y491666D01*
X448192Y491624D01*
X448012Y491555D01*
X447832Y491472D01*
X447818Y491458D01*
X447762Y491430D01*
X447679Y491361D01*
X447568Y491292D01*
X447457Y491195D01*
X447346Y491070D01*
X447221Y490945D01*
X447124Y490792D01*
X446015Y490945D01*
X446944Y495882D01*
X451715D01*
Y494759D01*
D02*
G37*
G36*
X441189Y495993D02*
X441314D01*
X441605Y495979D01*
X441910Y495938D01*
X442243Y495896D01*
X442548Y495827D01*
X442700Y495785D01*
X442825Y495743D01*
X442839D01*
X442853Y495730D01*
X442936Y495688D01*
X443061Y495633D01*
X443214Y495535D01*
X443380Y495411D01*
X443560Y495244D01*
X443727Y495050D01*
X443893Y494828D01*
Y494814D01*
X443907Y494800D01*
X443962Y494717D01*
X444018Y494579D01*
X444101Y494398D01*
X444170Y494190D01*
X444240Y493941D01*
X444281Y493677D01*
X444295Y493386D01*
Y493372D01*
Y493344D01*
Y493289D01*
X444281Y493219D01*
Y493122D01*
X444268Y493025D01*
X444212Y492789D01*
X444129Y492512D01*
X444018Y492221D01*
X443851Y491930D01*
X443741Y491791D01*
X443629Y491652D01*
X443616Y491638D01*
X443602Y491624D01*
X443560Y491583D01*
X443505Y491541D01*
X443435Y491486D01*
X443352Y491430D01*
X443241Y491361D01*
X443130Y491278D01*
X442992Y491208D01*
X442839Y491139D01*
X442673Y491056D01*
X442492Y490987D01*
X442284Y490931D01*
X442076Y490862D01*
X441841Y490820D01*
X441591Y490779D01*
X441619Y490765D01*
X441674Y490737D01*
X441757Y490681D01*
X441868Y490626D01*
X442118Y490473D01*
X442243Y490376D01*
X442354Y490293D01*
X442381Y490265D01*
X442451Y490196D01*
X442562Y490085D01*
X442700Y489946D01*
X442853Y489752D01*
X443033Y489544D01*
X443214Y489295D01*
X443408Y489017D01*
X445058Y486410D01*
X443477D01*
X442215Y488407D01*
Y488421D01*
X442187Y488449D01*
X442160Y488490D01*
X442118Y488546D01*
X442021Y488698D01*
X441896Y488892D01*
X441743Y489100D01*
X441591Y489322D01*
X441438Y489530D01*
X441300Y489725D01*
X441286Y489738D01*
X441244Y489794D01*
X441175Y489877D01*
X441078Y489974D01*
X440870Y490182D01*
X440759Y490279D01*
X440648Y490363D01*
X440634Y490376D01*
X440606Y490390D01*
X440551Y490418D01*
X440467Y490460D01*
X440384Y490501D01*
X440287Y490543D01*
X440065Y490612D01*
X440051D01*
X440024Y490626D01*
X439968D01*
X439899Y490640D01*
X439802Y490654D01*
X439691D01*
X439538Y490668D01*
X437902D01*
Y486410D01*
X436626D01*
Y496007D01*
X441078D01*
X441189Y495993D01*
D02*
G37*
G36*
X732920Y532243D02*
X731741D01*
Y539746D01*
X731727Y539732D01*
X731658Y539676D01*
X731574Y539593D01*
X731436Y539496D01*
X731283Y539371D01*
X731089Y539232D01*
X730867Y539080D01*
X730618Y538927D01*
X730604D01*
X730590Y538913D01*
X730507Y538858D01*
X730368Y538789D01*
X730201Y538705D01*
X730007Y538608D01*
X729799Y538511D01*
X729591Y538414D01*
X729383Y538331D01*
Y539468D01*
X729397D01*
X729425Y539496D01*
X729480Y539510D01*
X729550Y539551D01*
X729633Y539593D01*
X729730Y539649D01*
X729966Y539787D01*
X730243Y539940D01*
X730520Y540134D01*
X730812Y540356D01*
X731103Y540592D01*
X731117Y540605D01*
X731131Y540619D01*
X731172Y540661D01*
X731228Y540703D01*
X731352Y540841D01*
X731519Y541008D01*
X731685Y541202D01*
X731866Y541424D01*
X732018Y541646D01*
X732157Y541881D01*
X732920D01*
Y532243D01*
D02*
G37*
G36*
X722893Y541992D02*
X723018D01*
X723142Y541978D01*
X723309Y541951D01*
X723475Y541923D01*
X723836Y541854D01*
X724252Y541743D01*
X724654Y541576D01*
X724862Y541479D01*
X725070Y541368D01*
X725084Y541354D01*
X725112Y541340D01*
X725167Y541299D01*
X725250Y541257D01*
X725334Y541188D01*
X725444Y541105D01*
X725680Y540910D01*
X725930Y540661D01*
X726207Y540356D01*
X726471Y539995D01*
X726693Y539593D01*
Y539579D01*
X726720Y539538D01*
X726748Y539482D01*
X726776Y539399D01*
X726831Y539288D01*
X726873Y539163D01*
X726928Y539011D01*
X726984Y538844D01*
X727026Y538664D01*
X727081Y538470D01*
X727137Y538262D01*
X727178Y538040D01*
X727234Y537554D01*
X727261Y537041D01*
Y537027D01*
Y536986D01*
Y536930D01*
Y536847D01*
X727247Y536736D01*
Y536611D01*
X727234Y536473D01*
X727220Y536334D01*
X727178Y536001D01*
X727109Y535640D01*
X727026Y535266D01*
X726901Y534906D01*
Y534892D01*
X726887Y534864D01*
X726859Y534808D01*
X726831Y534753D01*
X726790Y534670D01*
X726748Y534573D01*
X726637Y534351D01*
X726485Y534087D01*
X726291Y533810D01*
X726069Y533532D01*
X725819Y533255D01*
X725833D01*
X725861Y533227D01*
X725902Y533200D01*
X725972Y533158D01*
X726041Y533103D01*
X726138Y533047D01*
X726346Y532922D01*
X726596Y532770D01*
X726873Y532617D01*
X727164Y532492D01*
X727442Y532368D01*
X727067Y531494D01*
X727053D01*
X727026Y531508D01*
X726970Y531535D01*
X726887Y531563D01*
X726790Y531605D01*
X726679Y531660D01*
X726554Y531716D01*
X726415Y531785D01*
X726110Y531951D01*
X725763Y532146D01*
X725389Y532395D01*
X725001Y532673D01*
X724987D01*
X724959Y532645D01*
X724890Y532617D01*
X724820Y532576D01*
X724709Y532534D01*
X724599Y532478D01*
X724460Y532437D01*
X724307Y532381D01*
X724141Y532326D01*
X723961Y532271D01*
X723558Y532173D01*
X723115Y532104D01*
X722879Y532090D01*
X722643Y532076D01*
X722518D01*
X722421Y532090D01*
X722310D01*
X722172Y532104D01*
X722019Y532132D01*
X721853Y532160D01*
X721492Y532229D01*
X721090Y532340D01*
X720674Y532492D01*
X720480Y532589D01*
X720272Y532700D01*
X720258Y532714D01*
X720230Y532728D01*
X720175Y532770D01*
X720105Y532811D01*
X720008Y532881D01*
X719911Y532964D01*
X719675Y533158D01*
X719412Y533408D01*
X719148Y533713D01*
X718885Y534059D01*
X718649Y534462D01*
Y534476D01*
X718621Y534517D01*
X718594Y534573D01*
X718566Y534656D01*
X718524Y534767D01*
X718469Y534892D01*
X718413Y535044D01*
X718372Y535211D01*
X718316Y535391D01*
X718261Y535585D01*
X718219Y535793D01*
X718164Y536029D01*
X718108Y536514D01*
X718080Y537027D01*
Y537041D01*
Y537097D01*
Y537166D01*
X718094Y537263D01*
Y537388D01*
X718108Y537541D01*
X718122Y537707D01*
X718150Y537887D01*
X718219Y538289D01*
X718316Y538719D01*
X718455Y539177D01*
X718649Y539621D01*
X718663Y539635D01*
X718677Y539676D01*
X718705Y539732D01*
X718760Y539815D01*
X718816Y539912D01*
X718885Y540023D01*
X719079Y540286D01*
X719301Y540564D01*
X719592Y540855D01*
X719911Y541146D01*
X720285Y541396D01*
X720299Y541410D01*
X720341Y541424D01*
X720396Y541451D01*
X720480Y541493D01*
X720577Y541535D01*
X720688Y541590D01*
X720826Y541646D01*
X720979Y541701D01*
X721159Y541757D01*
X721339Y541812D01*
X721742Y541909D01*
X722186Y541978D01*
X722421Y542006D01*
X722796D01*
X722893Y541992D01*
D02*
G37*
G36*
X704164Y372835D02*
X705468D01*
Y371754D01*
X704164D01*
Y369451D01*
X702985D01*
Y371754D01*
X698811D01*
Y372835D01*
X703207Y379048D01*
X704164D01*
Y372835D01*
D02*
G37*
G36*
X694595Y379035D02*
X694720D01*
X695011Y379021D01*
X695316Y378979D01*
X695649Y378937D01*
X695954Y378868D01*
X696107Y378826D01*
X696231Y378785D01*
X696245D01*
X696259Y378771D01*
X696342Y378730D01*
X696467Y378674D01*
X696620Y378577D01*
X696786Y378452D01*
X696966Y378286D01*
X697133Y378092D01*
X697299Y377870D01*
Y377856D01*
X697313Y377842D01*
X697369Y377759D01*
X697424Y377620D01*
X697507Y377440D01*
X697577Y377232D01*
X697646Y376982D01*
X697688Y376719D01*
X697701Y376427D01*
Y376413D01*
Y376386D01*
Y376330D01*
X697688Y376261D01*
Y376164D01*
X697674Y376067D01*
X697618Y375831D01*
X697535Y375554D01*
X697424Y375262D01*
X697258Y374971D01*
X697147Y374832D01*
X697036Y374694D01*
X697022Y374680D01*
X697008Y374666D01*
X696966Y374624D01*
X696911Y374583D01*
X696842Y374527D01*
X696758Y374472D01*
X696647Y374403D01*
X696537Y374319D01*
X696398Y374250D01*
X696245Y374181D01*
X696079Y374097D01*
X695899Y374028D01*
X695691Y373973D01*
X695483Y373903D01*
X695247Y373862D01*
X694997Y373820D01*
X695025Y373806D01*
X695080Y373778D01*
X695164Y373723D01*
X695275Y373667D01*
X695524Y373515D01*
X695649Y373418D01*
X695760Y373335D01*
X695788Y373307D01*
X695857Y373238D01*
X695968Y373127D01*
X696107Y372988D01*
X696259Y372794D01*
X696440Y372586D01*
X696620Y372336D01*
X696814Y372059D01*
X698464Y369451D01*
X696883D01*
X695621Y371449D01*
Y371462D01*
X695593Y371490D01*
X695566Y371532D01*
X695524Y371587D01*
X695427Y371740D01*
X695302Y371934D01*
X695150Y372142D01*
X694997Y372364D01*
X694845Y372572D01*
X694706Y372766D01*
X694692Y372780D01*
X694650Y372835D01*
X694581Y372919D01*
X694484Y373016D01*
X694276Y373224D01*
X694165Y373321D01*
X694054Y373404D01*
X694040Y373418D01*
X694013Y373432D01*
X693957Y373460D01*
X693874Y373501D01*
X693791Y373543D01*
X693693Y373584D01*
X693472Y373654D01*
X693458D01*
X693430Y373667D01*
X693375D01*
X693305Y373681D01*
X693208Y373695D01*
X693097D01*
X692945Y373709D01*
X691308D01*
Y369451D01*
X690032D01*
Y379048D01*
X694484D01*
X694595Y379035D01*
D02*
G37*
G36*
X477705Y521306D02*
X477830Y521292D01*
X477982Y521278D01*
X478135Y521264D01*
X478315Y521222D01*
X478689Y521139D01*
X479106Y521014D01*
X479314Y520931D01*
X479508Y520834D01*
X479702Y520709D01*
X479896Y520584D01*
X479910Y520570D01*
X479938Y520557D01*
X479993Y520515D01*
X480062Y520446D01*
X480132Y520376D01*
X480229Y520279D01*
X480326Y520168D01*
X480437Y520057D01*
X480548Y519919D01*
X480659Y519752D01*
X480784Y519586D01*
X480895Y519406D01*
X480992Y519198D01*
X481103Y518989D01*
X481186Y518768D01*
X481269Y518518D01*
X480021Y518227D01*
Y518241D01*
X480007Y518268D01*
X479979Y518324D01*
X479952Y518393D01*
X479924Y518476D01*
X479882Y518587D01*
X479771Y518809D01*
X479633Y519059D01*
X479466Y519308D01*
X479258Y519544D01*
X479036Y519752D01*
X479008Y519780D01*
X478925Y519835D01*
X478787Y519905D01*
X478606Y520002D01*
X478371Y520085D01*
X478107Y520168D01*
X477788Y520224D01*
X477441Y520238D01*
X477330D01*
X477261Y520224D01*
X477164D01*
X477053Y520210D01*
X476790Y520168D01*
X476498Y520113D01*
X476193Y520016D01*
X475874Y519877D01*
X475583Y519697D01*
X475569D01*
X475555Y519669D01*
X475458Y519600D01*
X475333Y519489D01*
X475181Y519322D01*
X475000Y519114D01*
X474834Y518879D01*
X474682Y518587D01*
X474543Y518268D01*
Y518254D01*
X474529Y518227D01*
X474515Y518185D01*
X474501Y518116D01*
X474473Y518032D01*
X474446Y517935D01*
X474404Y517700D01*
X474349Y517422D01*
X474293Y517117D01*
X474266Y516784D01*
X474252Y516424D01*
Y516410D01*
Y516368D01*
Y516299D01*
Y516216D01*
X474266Y516119D01*
Y515994D01*
X474279Y515855D01*
X474293Y515703D01*
X474335Y515370D01*
X474404Y515009D01*
X474487Y514649D01*
X474598Y514288D01*
Y514274D01*
X474612Y514246D01*
X474640Y514205D01*
X474668Y514136D01*
X474751Y513969D01*
X474876Y513775D01*
X475028Y513553D01*
X475222Y513317D01*
X475444Y513109D01*
X475708Y512915D01*
X475722D01*
X475749Y512901D01*
X475791Y512873D01*
X475846Y512846D01*
X475916Y512818D01*
X475999Y512776D01*
X476193Y512693D01*
X476443Y512610D01*
X476720Y512541D01*
X477025Y512485D01*
X477344Y512471D01*
X477441D01*
X477525Y512485D01*
X477622D01*
X477719Y512499D01*
X477968Y512555D01*
X478260Y512624D01*
X478551Y512735D01*
X478856Y512887D01*
X479008Y512971D01*
X479147Y513082D01*
X479161Y513095D01*
X479175Y513109D01*
X479216Y513151D01*
X479272Y513192D01*
X479328Y513262D01*
X479397Y513345D01*
X479480Y513428D01*
X479549Y513539D01*
X479633Y513664D01*
X479730Y513803D01*
X479813Y513941D01*
X479896Y514108D01*
X479965Y514288D01*
X480035Y514482D01*
X480104Y514690D01*
X480160Y514912D01*
X481436Y514593D01*
Y514579D01*
X481422Y514524D01*
X481394Y514441D01*
X481352Y514330D01*
X481311Y514205D01*
X481255Y514052D01*
X481186Y513886D01*
X481103Y513706D01*
X480909Y513317D01*
X480659Y512929D01*
X480506Y512735D01*
X480354Y512541D01*
X480187Y512374D01*
X479993Y512208D01*
X479979Y512194D01*
X479952Y512166D01*
X479882Y512138D01*
X479813Y512083D01*
X479702Y512014D01*
X479591Y511944D01*
X479438Y511875D01*
X479286Y511806D01*
X479106Y511722D01*
X478911Y511653D01*
X478703Y511584D01*
X478481Y511514D01*
X478246Y511459D01*
X477996Y511431D01*
X477733Y511403D01*
X477455Y511390D01*
X477303D01*
X477192Y511403D01*
X477067D01*
X476914Y511417D01*
X476748Y511445D01*
X476554Y511473D01*
X476152Y511542D01*
X475736Y511653D01*
X475320Y511806D01*
X475125Y511903D01*
X474931Y512014D01*
X474917Y512028D01*
X474890Y512041D01*
X474834Y512083D01*
X474779Y512138D01*
X474695Y512194D01*
X474598Y512277D01*
X474487Y512374D01*
X474376Y512485D01*
X474266Y512610D01*
X474141Y512735D01*
X473891Y513054D01*
X473655Y513428D01*
X473447Y513844D01*
Y513858D01*
X473419Y513900D01*
X473406Y513969D01*
X473364Y514052D01*
X473336Y514163D01*
X473295Y514302D01*
X473239Y514454D01*
X473198Y514621D01*
X473156Y514801D01*
X473101Y515009D01*
X473031Y515439D01*
X472976Y515924D01*
X472948Y516424D01*
Y516438D01*
Y516493D01*
Y516576D01*
X472962Y516673D01*
Y516812D01*
X472976Y516951D01*
X472990Y517131D01*
X473017Y517311D01*
X473087Y517714D01*
X473184Y518157D01*
X473322Y518601D01*
X473517Y519031D01*
X473531Y519045D01*
X473544Y519086D01*
X473572Y519142D01*
X473628Y519211D01*
X473683Y519308D01*
X473752Y519419D01*
X473933Y519669D01*
X474168Y519946D01*
X474446Y520224D01*
X474765Y520501D01*
X475139Y520737D01*
X475153Y520751D01*
X475195Y520765D01*
X475250Y520792D01*
X475320Y520834D01*
X475430Y520876D01*
X475541Y520917D01*
X475680Y520973D01*
X475833Y521028D01*
X475999Y521084D01*
X476179Y521139D01*
X476568Y521222D01*
X477011Y521292D01*
X477469Y521319D01*
X477608D01*
X477705Y521306D01*
D02*
G37*
G36*
X486955Y511556D02*
X485776D01*
Y519059D01*
X485762Y519045D01*
X485693Y518989D01*
X485610Y518906D01*
X485471Y518809D01*
X485319Y518684D01*
X485125Y518546D01*
X484903Y518393D01*
X484653Y518241D01*
X484639D01*
X484625Y518227D01*
X484542Y518171D01*
X484403Y518102D01*
X484237Y518019D01*
X484043Y517922D01*
X483835Y517825D01*
X483627Y517727D01*
X483419Y517644D01*
Y518781D01*
X483433D01*
X483460Y518809D01*
X483516Y518823D01*
X483585Y518865D01*
X483668Y518906D01*
X483765Y518962D01*
X484001Y519100D01*
X484278Y519253D01*
X484556Y519447D01*
X484847Y519669D01*
X485138Y519905D01*
X485152Y519919D01*
X485166Y519933D01*
X485208Y519974D01*
X485263Y520016D01*
X485388Y520154D01*
X485554Y520321D01*
X485721Y520515D01*
X485901Y520737D01*
X486054Y520959D01*
X486192Y521194D01*
X486955D01*
Y511556D01*
D02*
G37*
G36*
X663619Y535432D02*
X662440D01*
Y542935D01*
X662426Y542921D01*
X662357Y542865D01*
X662273Y542782D01*
X662135Y542685D01*
X661982Y542560D01*
X661788Y542422D01*
X661566Y542269D01*
X661317Y542117D01*
X661303D01*
X661289Y542103D01*
X661206Y542047D01*
X661067Y541978D01*
X660900Y541895D01*
X660706Y541798D01*
X660498Y541701D01*
X660290Y541603D01*
X660082Y541520D01*
Y542657D01*
X660096D01*
X660124Y542685D01*
X660179Y542699D01*
X660249Y542741D01*
X660332Y542782D01*
X660429Y542838D01*
X660665Y542976D01*
X660942Y543129D01*
X661219Y543323D01*
X661511Y543545D01*
X661802Y543781D01*
X661816Y543795D01*
X661830Y543809D01*
X661871Y543850D01*
X661927Y543892D01*
X662051Y544030D01*
X662218Y544197D01*
X662384Y544391D01*
X662565Y544613D01*
X662717Y544835D01*
X662856Y545070D01*
X663619D01*
Y535432D01*
D02*
G37*
G36*
X653925Y545015D02*
X654202Y545001D01*
X654479Y544973D01*
X654757Y544932D01*
X654993Y544890D01*
X655006D01*
X655034Y544876D01*
X655076D01*
X655131Y544849D01*
X655284Y544807D01*
X655478Y544738D01*
X655700Y544641D01*
X655936Y544516D01*
X656171Y544377D01*
X656393Y544197D01*
X656407Y544183D01*
X656421Y544169D01*
X656462Y544128D01*
X656518Y544086D01*
X656657Y543947D01*
X656823Y543753D01*
X657003Y543517D01*
X657198Y543240D01*
X657378Y542921D01*
X657530Y542560D01*
Y542547D01*
X657544Y542519D01*
X657572Y542463D01*
X657586Y542380D01*
X657627Y542283D01*
X657655Y542172D01*
X657683Y542047D01*
X657725Y541895D01*
X657766Y541742D01*
X657794Y541562D01*
X657863Y541174D01*
X657905Y540744D01*
X657919Y540272D01*
Y540258D01*
Y540230D01*
Y540161D01*
Y540092D01*
X657905Y539995D01*
Y539884D01*
X657891Y539620D01*
X657849Y539315D01*
X657808Y538996D01*
X657738Y538663D01*
X657655Y538330D01*
Y538317D01*
X657641Y538289D01*
X657627Y538247D01*
X657614Y538192D01*
X657558Y538039D01*
X657475Y537845D01*
X657392Y537623D01*
X657281Y537401D01*
X657142Y537165D01*
X657003Y536944D01*
X656990Y536916D01*
X656934Y536847D01*
X656851Y536749D01*
X656740Y536625D01*
X656615Y536486D01*
X656462Y536347D01*
X656310Y536195D01*
X656130Y536070D01*
X656102Y536056D01*
X656047Y536015D01*
X655949Y535959D01*
X655811Y535890D01*
X655644Y535806D01*
X655450Y535737D01*
X655228Y535654D01*
X654979Y535585D01*
X654951D01*
X654909Y535571D01*
X654868Y535557D01*
X654729Y535543D01*
X654535Y535515D01*
X654313Y535488D01*
X654049Y535460D01*
X653758Y535446D01*
X653439Y535432D01*
X649986D01*
Y545029D01*
X653675D01*
X653925Y545015D01*
D02*
G37*
G36*
X422380Y619001D02*
Y618987D01*
Y618946D01*
Y618890D01*
Y618807D01*
X422366Y618696D01*
Y618585D01*
X422338Y618321D01*
X422310Y618016D01*
X422255Y617697D01*
X422172Y617406D01*
X422075Y617129D01*
Y617115D01*
X422061Y617101D01*
X422019Y617018D01*
X421950Y616907D01*
X421853Y616754D01*
X421714Y616602D01*
X421561Y616435D01*
X421367Y616269D01*
X421145Y616130D01*
X421118Y616116D01*
X421034Y616075D01*
X420910Y616019D01*
X420729Y615964D01*
X420507Y615895D01*
X420258Y615839D01*
X419980Y615797D01*
X419675Y615784D01*
X419550D01*
X419467Y615797D01*
X419356Y615811D01*
X419245Y615825D01*
X418954Y615881D01*
X418649Y615964D01*
X418330Y616089D01*
X418164Y616172D01*
X418011Y616269D01*
X417872Y616380D01*
X417734Y616505D01*
X417720Y616519D01*
X417706Y616533D01*
X417678Y616588D01*
X417637Y616643D01*
X417581Y616713D01*
X417526Y616810D01*
X417470Y616921D01*
X417401Y617046D01*
X417345Y617184D01*
X417290Y617351D01*
X417234Y617517D01*
X417179Y617711D01*
X417151Y617919D01*
X417110Y618155D01*
X417096Y618391D01*
Y618654D01*
X418247Y618821D01*
Y618807D01*
Y618779D01*
Y618724D01*
X418261Y618641D01*
X418275Y618557D01*
Y618460D01*
X418316Y618224D01*
X418358Y617975D01*
X418441Y617725D01*
X418524Y617503D01*
X418580Y617406D01*
X418649Y617323D01*
X418663Y617309D01*
X418718Y617267D01*
X418802Y617198D01*
X418913Y617129D01*
X419065Y617046D01*
X419231Y616990D01*
X419440Y616935D01*
X419661Y616921D01*
X419745D01*
X419828Y616935D01*
X419953Y616949D01*
X420077Y616976D01*
X420216Y617004D01*
X420355Y617060D01*
X420494Y617129D01*
X420507Y617143D01*
X420549Y617170D01*
X420604Y617226D01*
X420688Y617281D01*
X420757Y617378D01*
X420840Y617476D01*
X420910Y617587D01*
X420965Y617725D01*
Y617739D01*
X420993Y617794D01*
X421007Y617892D01*
X421034Y618016D01*
X421062Y618183D01*
X421076Y618391D01*
X421104Y618641D01*
Y618932D01*
Y625547D01*
X422380D01*
Y619001D01*
D02*
G37*
G36*
X428412Y615950D02*
X427234D01*
Y623453D01*
X427220Y623439D01*
X427150Y623383D01*
X427067Y623300D01*
X426928Y623203D01*
X426776Y623078D01*
X426582Y622940D01*
X426360Y622787D01*
X426110Y622635D01*
X426096D01*
X426082Y622621D01*
X425999Y622565D01*
X425861Y622496D01*
X425694Y622413D01*
X425500Y622316D01*
X425292Y622219D01*
X425084Y622121D01*
X424876Y622038D01*
Y623175D01*
X424890D01*
X424917Y623203D01*
X424973Y623217D01*
X425042Y623259D01*
X425126Y623300D01*
X425223Y623356D01*
X425458Y623494D01*
X425736Y623647D01*
X426013Y623841D01*
X426304Y624063D01*
X426596Y624299D01*
X426609Y624313D01*
X426623Y624327D01*
X426665Y624368D01*
X426720Y624410D01*
X426845Y624548D01*
X427012Y624715D01*
X427178Y624909D01*
X427358Y625131D01*
X427511Y625353D01*
X427650Y625588D01*
X428412D01*
Y615950D01*
D02*
G37*
G36*
X700822Y520165D02*
X701002Y520137D01*
X701224Y520095D01*
X701473Y520026D01*
X701723Y519943D01*
X701973Y519832D01*
X701986D01*
X702000Y519818D01*
X702084Y519776D01*
X702208Y519693D01*
X702347Y519596D01*
X702514Y519457D01*
X702680Y519305D01*
X702846Y519124D01*
X702985Y518917D01*
X702999Y518889D01*
X703040Y518819D01*
X703096Y518695D01*
X703165Y518542D01*
X703235Y518362D01*
X703290Y518154D01*
X703332Y517918D01*
X703346Y517682D01*
Y517654D01*
Y517571D01*
X703332Y517460D01*
X703304Y517308D01*
X703262Y517127D01*
X703193Y516933D01*
X703110Y516739D01*
X702999Y516545D01*
X702985Y516517D01*
X702943Y516462D01*
X702860Y516365D01*
X702749Y516254D01*
X702611Y516129D01*
X702444Y515990D01*
X702250Y515866D01*
X702014Y515741D01*
X702028D01*
X702056Y515727D01*
X702097Y515713D01*
X702153Y515699D01*
X702306Y515644D01*
X702500Y515560D01*
X702721Y515449D01*
X702943Y515311D01*
X703151Y515130D01*
X703346Y514922D01*
X703360Y514895D01*
X703415Y514812D01*
X703498Y514673D01*
X703581Y514492D01*
X703665Y514271D01*
X703748Y514007D01*
X703803Y513702D01*
X703817Y513369D01*
Y513355D01*
Y513314D01*
Y513244D01*
X703803Y513161D01*
X703789Y513050D01*
X703762Y512925D01*
X703734Y512787D01*
X703706Y512634D01*
X703595Y512301D01*
X703512Y512121D01*
X703429Y511955D01*
X703318Y511774D01*
X703193Y511594D01*
X703054Y511414D01*
X702888Y511247D01*
X702874Y511233D01*
X702846Y511206D01*
X702791Y511164D01*
X702721Y511109D01*
X702638Y511039D01*
X702527Y510970D01*
X702403Y510887D01*
X702250Y510817D01*
X702097Y510734D01*
X701917Y510651D01*
X701737Y510582D01*
X701529Y510512D01*
X701307Y510457D01*
X701071Y510415D01*
X700835Y510387D01*
X700572Y510374D01*
X700447D01*
X700364Y510387D01*
X700253Y510401D01*
X700128Y510415D01*
X699989Y510443D01*
X699837Y510471D01*
X699504Y510554D01*
X699157Y510693D01*
X698977Y510776D01*
X698811Y510873D01*
X698644Y510998D01*
X698478Y511123D01*
X698464Y511136D01*
X698436Y511164D01*
X698395Y511206D01*
X698353Y511261D01*
X698284Y511330D01*
X698214Y511428D01*
X698131Y511525D01*
X698048Y511650D01*
X697965Y511788D01*
X697881Y511927D01*
X697729Y512260D01*
X697604Y512648D01*
X697562Y512856D01*
X697535Y513078D01*
X698714Y513231D01*
Y513217D01*
X698727Y513189D01*
X698741Y513133D01*
X698755Y513064D01*
X698769Y512981D01*
X698797Y512884D01*
X698866Y512676D01*
X698963Y512426D01*
X699088Y512190D01*
X699227Y511968D01*
X699393Y511774D01*
X699421Y511760D01*
X699476Y511705D01*
X699587Y511636D01*
X699726Y511566D01*
X699892Y511483D01*
X700100Y511414D01*
X700336Y511358D01*
X700586Y511344D01*
X700669D01*
X700724Y511358D01*
X700877Y511372D01*
X701071Y511414D01*
X701293Y511483D01*
X701529Y511580D01*
X701765Y511719D01*
X701986Y511913D01*
X702014Y511941D01*
X702084Y512024D01*
X702167Y512149D01*
X702278Y512315D01*
X702389Y512523D01*
X702472Y512759D01*
X702541Y513036D01*
X702569Y513341D01*
Y513355D01*
Y513383D01*
Y513425D01*
X702555Y513480D01*
X702541Y513633D01*
X702500Y513813D01*
X702444Y514035D01*
X702347Y514257D01*
X702208Y514479D01*
X702028Y514687D01*
X702000Y514714D01*
X701931Y514770D01*
X701820Y514853D01*
X701667Y514950D01*
X701473Y515047D01*
X701238Y515130D01*
X700974Y515186D01*
X700683Y515214D01*
X700558D01*
X700461Y515200D01*
X700336Y515186D01*
X700198Y515158D01*
X700031Y515130D01*
X699851Y515089D01*
X699989Y516129D01*
X700059D01*
X700114Y516115D01*
X700295D01*
X700447Y516143D01*
X700627Y516171D01*
X700835Y516212D01*
X701071Y516282D01*
X701293Y516379D01*
X701529Y516503D01*
X701543D01*
X701557Y516517D01*
X701626Y516573D01*
X701723Y516670D01*
X701834Y516795D01*
X701945Y516975D01*
X702042Y517183D01*
X702111Y517419D01*
X702139Y517557D01*
Y517710D01*
Y517724D01*
Y517738D01*
Y517821D01*
X702111Y517932D01*
X702084Y518084D01*
X702028Y518251D01*
X701959Y518431D01*
X701848Y518611D01*
X701695Y518778D01*
X701681Y518792D01*
X701612Y518847D01*
X701515Y518917D01*
X701390Y519000D01*
X701224Y519069D01*
X701030Y519138D01*
X700808Y519194D01*
X700558Y519208D01*
X700447D01*
X700322Y519180D01*
X700156Y519152D01*
X699976Y519097D01*
X699795Y519027D01*
X699601Y518917D01*
X699421Y518778D01*
X699407Y518764D01*
X699352Y518695D01*
X699268Y518597D01*
X699171Y518459D01*
X699074Y518279D01*
X698977Y518057D01*
X698894Y517793D01*
X698838Y517488D01*
X697660Y517696D01*
Y517710D01*
X697673Y517752D01*
X697687Y517807D01*
X697701Y517890D01*
X697729Y517987D01*
X697770Y518098D01*
X697854Y518362D01*
X697992Y518667D01*
X698159Y518972D01*
X698367Y519263D01*
X698630Y519527D01*
X698644Y519541D01*
X698672Y519554D01*
X698714Y519582D01*
X698769Y519624D01*
X698838Y519679D01*
X698935Y519735D01*
X699033Y519790D01*
X699157Y519860D01*
X699435Y519971D01*
X699754Y520081D01*
X700128Y520151D01*
X700322Y520178D01*
X700669D01*
X700822Y520165D01*
D02*
G37*
G36*
X692903Y520123D02*
X693027D01*
X693319Y520109D01*
X693624Y520068D01*
X693957Y520026D01*
X694262Y519957D01*
X694414Y519915D01*
X694539Y519873D01*
X694553D01*
X694567Y519860D01*
X694650Y519818D01*
X694775Y519762D01*
X694928Y519665D01*
X695094Y519541D01*
X695274Y519374D01*
X695441Y519180D01*
X695607Y518958D01*
Y518944D01*
X695621Y518930D01*
X695676Y518847D01*
X695732Y518708D01*
X695815Y518528D01*
X695884Y518320D01*
X695954Y518070D01*
X695995Y517807D01*
X696009Y517516D01*
Y517502D01*
Y517474D01*
Y517419D01*
X695995Y517349D01*
Y517252D01*
X695982Y517155D01*
X695926Y516920D01*
X695843Y516642D01*
X695732Y516351D01*
X695565Y516060D01*
X695454Y515921D01*
X695343Y515782D01*
X695330Y515768D01*
X695316Y515755D01*
X695274Y515713D01*
X695219Y515671D01*
X695149Y515616D01*
X695066Y515560D01*
X694955Y515491D01*
X694844Y515408D01*
X694706Y515339D01*
X694553Y515269D01*
X694387Y515186D01*
X694206Y515117D01*
X693998Y515061D01*
X693790Y514992D01*
X693555Y514950D01*
X693305Y514908D01*
X693333Y514895D01*
X693388Y514867D01*
X693471Y514812D01*
X693582Y514756D01*
X693832Y514603D01*
X693957Y514506D01*
X694068Y514423D01*
X694095Y514395D01*
X694165Y514326D01*
X694276Y514215D01*
X694414Y514076D01*
X694567Y513882D01*
X694747Y513674D01*
X694928Y513425D01*
X695122Y513147D01*
X696772Y510540D01*
X695191D01*
X693929Y512537D01*
Y512551D01*
X693901Y512579D01*
X693874Y512620D01*
X693832Y512676D01*
X693735Y512828D01*
X693610Y513022D01*
X693457Y513231D01*
X693305Y513452D01*
X693152Y513660D01*
X693014Y513854D01*
X693000Y513868D01*
X692958Y513924D01*
X692889Y514007D01*
X692792Y514104D01*
X692584Y514312D01*
X692473Y514409D01*
X692362Y514492D01*
X692348Y514506D01*
X692320Y514520D01*
X692265Y514548D01*
X692181Y514590D01*
X692098Y514631D01*
X692001Y514673D01*
X691779Y514742D01*
X691766D01*
X691738Y514756D01*
X691682D01*
X691613Y514770D01*
X691516Y514784D01*
X691405D01*
X691252Y514798D01*
X689616D01*
Y510540D01*
X688340D01*
Y520137D01*
X692792D01*
X692903Y520123D01*
D02*
G37*
%LPC*%
G36*
X703790Y412910D02*
X703652D01*
X703555Y412897D01*
X703430Y412883D01*
X703291Y412855D01*
X703138Y412827D01*
X702972Y412786D01*
X702778Y412730D01*
X702598Y412675D01*
X702403Y412592D01*
X702195Y412494D01*
X702001Y412383D01*
X701807Y412245D01*
X701613Y412106D01*
X701433Y411926D01*
X701419Y411912D01*
X701391Y411884D01*
X701349Y411829D01*
X701294Y411745D01*
X701211Y411648D01*
X701141Y411524D01*
X701058Y411371D01*
X700975Y411205D01*
X700878Y411011D01*
X700795Y410789D01*
X700725Y410553D01*
X700656Y410289D01*
X700587Y410012D01*
X700545Y409707D01*
X700517Y409374D01*
X700503Y409027D01*
Y409000D01*
Y408944D01*
Y408847D01*
X700517Y408722D01*
X700531Y408570D01*
X700559Y408389D01*
X700587Y408181D01*
X700614Y407973D01*
X700725Y407502D01*
X700795Y407266D01*
X700892Y407030D01*
X700989Y406795D01*
X701114Y406573D01*
X701252Y406351D01*
X701419Y406157D01*
X701433Y406143D01*
X701460Y406115D01*
X701516Y406059D01*
X701585Y406004D01*
X701682Y405921D01*
X701793Y405838D01*
X701918Y405754D01*
X702071Y405657D01*
X702223Y405560D01*
X702403Y405477D01*
X702598Y405394D01*
X702806Y405311D01*
X703041Y405255D01*
X703277Y405200D01*
X703527Y405172D01*
X703790Y405158D01*
X703915D01*
X704040Y405172D01*
X704206Y405186D01*
X704414Y405214D01*
X704622Y405269D01*
X704858Y405325D01*
X705080Y405408D01*
X705052Y405421D01*
X704983Y405477D01*
X704858Y405546D01*
X704706Y405630D01*
X704511Y405713D01*
X704303Y405810D01*
X704068Y405893D01*
X703818Y405962D01*
X704137Y406878D01*
X704151D01*
X704192Y406864D01*
X704248Y406850D01*
X704317Y406822D01*
X704414Y406795D01*
X704525Y406753D01*
X704775Y406656D01*
X705066Y406517D01*
X705371Y406365D01*
X705663Y406184D01*
X705954Y405962D01*
X705968Y405976D01*
X706009Y406004D01*
X706065Y406073D01*
X706134Y406157D01*
X706217Y406268D01*
X706314Y406392D01*
X706411Y406545D01*
X706522Y406725D01*
X706619Y406933D01*
X706717Y407169D01*
X706814Y407419D01*
X706897Y407682D01*
X706980Y407987D01*
X707035Y408306D01*
X707063Y408653D01*
X707077Y409027D01*
Y409041D01*
Y409083D01*
Y409138D01*
Y409221D01*
X707063Y409332D01*
Y409443D01*
X707049Y409582D01*
X707022Y409721D01*
X706980Y410040D01*
X706911Y410386D01*
X706814Y410733D01*
X706675Y411066D01*
Y411080D01*
X706661Y411108D01*
X706633Y411149D01*
X706606Y411205D01*
X706508Y411371D01*
X706384Y411565D01*
X706217Y411787D01*
X706009Y412009D01*
X705773Y412231D01*
X705510Y412425D01*
X705496D01*
X705482Y412453D01*
X705441Y412467D01*
X705371Y412508D01*
X705302Y412536D01*
X705219Y412578D01*
X705011Y412675D01*
X704761Y412758D01*
X704470Y412841D01*
X704137Y412897D01*
X703790Y412910D01*
D02*
G37*
G36*
X540493Y670199D02*
X537470D01*
Y667023D01*
X540327D01*
X540493Y667037D01*
X540687Y667051D01*
X540909Y667065D01*
X541131Y667093D01*
X541353Y667134D01*
X541547Y667190D01*
X541575Y667204D01*
X541630Y667231D01*
X541714Y667273D01*
X541825Y667328D01*
X541949Y667411D01*
X542074Y667509D01*
X542199Y667633D01*
X542296Y667772D01*
X542310Y667786D01*
X542338Y667841D01*
X542379Y667925D01*
X542435Y668036D01*
X542476Y668160D01*
X542518Y668299D01*
X542546Y668465D01*
X542560Y668632D01*
Y668646D01*
Y668660D01*
X542546Y668743D01*
X542532Y668868D01*
X542504Y669034D01*
X542435Y669201D01*
X542352Y669395D01*
X542227Y669575D01*
X542060Y669755D01*
X542033Y669769D01*
X541963Y669825D01*
X541852Y669894D01*
X541672Y669977D01*
X541464Y670060D01*
X541187Y670130D01*
X540868Y670185D01*
X540493Y670199D01*
D02*
G37*
G36*
X635298Y417140D02*
X633079D01*
Y409818D01*
X635353D01*
X635450Y409832D01*
X635658Y409846D01*
X635894Y409860D01*
X636144Y409887D01*
X636394Y409929D01*
X636601Y409984D01*
X636629Y409998D01*
X636699Y410012D01*
X636796Y410054D01*
X636921Y410109D01*
X637059Y410192D01*
X637198Y410276D01*
X637337Y410373D01*
X637475Y410484D01*
X637489Y410511D01*
X637545Y410567D01*
X637628Y410664D01*
X637725Y410803D01*
X637836Y410983D01*
X637961Y411191D01*
X638072Y411427D01*
X638169Y411690D01*
Y411704D01*
X638182Y411732D01*
X638196Y411773D01*
X638210Y411829D01*
X638224Y411898D01*
X638252Y411995D01*
X638280Y412092D01*
X638307Y412203D01*
X638349Y412481D01*
X638391Y412800D01*
X638418Y413160D01*
X638432Y413549D01*
Y413562D01*
Y413618D01*
Y413687D01*
X638418Y413798D01*
Y413923D01*
X638404Y414062D01*
X638391Y414228D01*
X638377Y414394D01*
X638307Y414769D01*
X638224Y415157D01*
X638099Y415518D01*
X638016Y415698D01*
X637933Y415851D01*
Y415864D01*
X637905Y415892D01*
X637877Y415934D01*
X637850Y415989D01*
X637739Y416128D01*
X637600Y416294D01*
X637420Y416475D01*
X637212Y416655D01*
X636976Y416808D01*
X636726Y416932D01*
X636699Y416946D01*
X636629Y416960D01*
X636504Y417002D01*
X636324Y417043D01*
X636102Y417071D01*
X635825Y417113D01*
X635658Y417127D01*
X635478D01*
X635298Y417140D01*
D02*
G37*
G36*
X539731Y517799D02*
X536708D01*
Y514623D01*
X539565D01*
X539731Y514637D01*
X539925Y514651D01*
X540147Y514665D01*
X540369Y514692D01*
X540591Y514734D01*
X540785Y514790D01*
X540813Y514804D01*
X540868Y514831D01*
X540952Y514873D01*
X541063Y514928D01*
X541187Y515011D01*
X541312Y515109D01*
X541437Y515233D01*
X541534Y515372D01*
X541548Y515386D01*
X541576Y515441D01*
X541617Y515525D01*
X541673Y515636D01*
X541714Y515760D01*
X541756Y515899D01*
X541784Y516065D01*
X541798Y516232D01*
Y516246D01*
Y516260D01*
X541784Y516343D01*
X541770Y516468D01*
X541742Y516634D01*
X541673Y516800D01*
X541590Y516995D01*
X541465Y517175D01*
X541298Y517355D01*
X541271Y517369D01*
X541201Y517425D01*
X541090Y517494D01*
X540910Y517577D01*
X540702Y517660D01*
X540425Y517730D01*
X540106Y517785D01*
X539731Y517799D01*
D02*
G37*
G36*
X440925Y494939D02*
X437902D01*
Y491763D01*
X440759D01*
X440925Y491777D01*
X441119Y491791D01*
X441341Y491805D01*
X441563Y491833D01*
X441785Y491874D01*
X441979Y491930D01*
X442007Y491944D01*
X442062Y491971D01*
X442146Y492013D01*
X442257Y492068D01*
X442381Y492151D01*
X442506Y492249D01*
X442631Y492373D01*
X442728Y492512D01*
X442742Y492526D01*
X442770Y492581D01*
X442811Y492665D01*
X442867Y492776D01*
X442908Y492900D01*
X442950Y493039D01*
X442978Y493205D01*
X442992Y493372D01*
Y493386D01*
Y493400D01*
X442978Y493483D01*
X442964Y493608D01*
X442936Y493774D01*
X442867Y493941D01*
X442784Y494135D01*
X442659Y494315D01*
X442492Y494495D01*
X442465Y494509D01*
X442395Y494565D01*
X442284Y494634D01*
X442104Y494717D01*
X441896Y494800D01*
X441619Y494870D01*
X441300Y494925D01*
X440925Y494939D01*
D02*
G37*
G36*
X722671Y540910D02*
X722532D01*
X722435Y540897D01*
X722310Y540883D01*
X722172Y540855D01*
X722019Y540827D01*
X721853Y540786D01*
X721658Y540730D01*
X721478Y540675D01*
X721284Y540592D01*
X721076Y540494D01*
X720882Y540383D01*
X720688Y540245D01*
X720493Y540106D01*
X720313Y539926D01*
X720299Y539912D01*
X720272Y539884D01*
X720230Y539829D01*
X720175Y539746D01*
X720091Y539649D01*
X720022Y539524D01*
X719939Y539371D01*
X719856Y539205D01*
X719759Y539011D01*
X719675Y538789D01*
X719606Y538553D01*
X719537Y538289D01*
X719467Y538012D01*
X719426Y537707D01*
X719398Y537374D01*
X719384Y537027D01*
Y537000D01*
Y536944D01*
Y536847D01*
X719398Y536722D01*
X719412Y536570D01*
X719439Y536389D01*
X719467Y536181D01*
X719495Y535973D01*
X719606Y535502D01*
X719675Y535266D01*
X719772Y535030D01*
X719870Y534795D01*
X719994Y534573D01*
X720133Y534351D01*
X720299Y534157D01*
X720313Y534143D01*
X720341Y534115D01*
X720396Y534059D01*
X720466Y534004D01*
X720563Y533921D01*
X720674Y533838D01*
X720799Y533754D01*
X720951Y533657D01*
X721104Y533560D01*
X721284Y533477D01*
X721478Y533394D01*
X721686Y533311D01*
X721922Y533255D01*
X722158Y533200D01*
X722407Y533172D01*
X722671Y533158D01*
X722796D01*
X722921Y533172D01*
X723087Y533186D01*
X723295Y533214D01*
X723503Y533269D01*
X723739Y533325D01*
X723961Y533408D01*
X723933Y533422D01*
X723864Y533477D01*
X723739Y533546D01*
X723586Y533630D01*
X723392Y533713D01*
X723184Y533810D01*
X722948Y533893D01*
X722699Y533962D01*
X723018Y534878D01*
X723031D01*
X723073Y534864D01*
X723129Y534850D01*
X723198Y534822D01*
X723295Y534795D01*
X723406Y534753D01*
X723655Y534656D01*
X723947Y534517D01*
X724252Y534365D01*
X724543Y534184D01*
X724834Y533962D01*
X724848Y533976D01*
X724890Y534004D01*
X724945Y534073D01*
X725015Y534157D01*
X725098Y534268D01*
X725195Y534392D01*
X725292Y534545D01*
X725403Y534725D01*
X725500Y534933D01*
X725597Y535169D01*
X725694Y535419D01*
X725777Y535682D01*
X725861Y535987D01*
X725916Y536306D01*
X725944Y536653D01*
X725958Y537027D01*
Y537041D01*
Y537083D01*
Y537138D01*
Y537221D01*
X725944Y537332D01*
Y537443D01*
X725930Y537582D01*
X725902Y537721D01*
X725861Y538040D01*
X725791Y538386D01*
X725694Y538733D01*
X725555Y539066D01*
Y539080D01*
X725542Y539108D01*
X725514Y539149D01*
X725486Y539205D01*
X725389Y539371D01*
X725264Y539565D01*
X725098Y539787D01*
X724890Y540009D01*
X724654Y540231D01*
X724391Y540425D01*
X724377D01*
X724363Y540453D01*
X724321Y540467D01*
X724252Y540508D01*
X724183Y540536D01*
X724099Y540578D01*
X723891Y540675D01*
X723642Y540758D01*
X723350Y540841D01*
X723018Y540897D01*
X722671Y540910D01*
D02*
G37*
G36*
X702985Y377135D02*
X699962Y372835D01*
X702985D01*
Y377135D01*
D02*
G37*
G36*
X694332Y377981D02*
X691308D01*
Y374805D01*
X694165D01*
X694332Y374819D01*
X694526Y374832D01*
X694747Y374846D01*
X694969Y374874D01*
X695191Y374916D01*
X695386Y374971D01*
X695413Y374985D01*
X695469Y375013D01*
X695552Y375054D01*
X695663Y375110D01*
X695788Y375193D01*
X695912Y375290D01*
X696037Y375415D01*
X696134Y375554D01*
X696148Y375568D01*
X696176Y375623D01*
X696218Y375706D01*
X696273Y375817D01*
X696315Y375942D01*
X696356Y376081D01*
X696384Y376247D01*
X696398Y376413D01*
Y376427D01*
Y376441D01*
X696384Y376524D01*
X696370Y376649D01*
X696342Y376816D01*
X696273Y376982D01*
X696190Y377176D01*
X696065Y377356D01*
X695899Y377537D01*
X695871Y377551D01*
X695801Y377606D01*
X695691Y377676D01*
X695510Y377759D01*
X695302Y377842D01*
X695025Y377911D01*
X694706Y377967D01*
X694332Y377981D01*
D02*
G37*
G36*
X653481Y543892D02*
X651262D01*
Y536569D01*
X653536D01*
X653633Y536583D01*
X653841Y536597D01*
X654077Y536611D01*
X654327Y536639D01*
X654576Y536680D01*
X654784Y536736D01*
X654812Y536749D01*
X654882Y536763D01*
X654979Y536805D01*
X655103Y536860D01*
X655242Y536944D01*
X655381Y537027D01*
X655519Y537124D01*
X655658Y537235D01*
X655672Y537263D01*
X655727Y537318D01*
X655811Y537415D01*
X655908Y537554D01*
X656019Y537734D01*
X656144Y537942D01*
X656255Y538178D01*
X656352Y538441D01*
Y538455D01*
X656366Y538483D01*
X656379Y538525D01*
X656393Y538580D01*
X656407Y538649D01*
X656435Y538746D01*
X656462Y538844D01*
X656490Y538955D01*
X656532Y539232D01*
X656573Y539551D01*
X656601Y539911D01*
X656615Y540300D01*
Y540314D01*
Y540369D01*
Y540438D01*
X656601Y540549D01*
Y540674D01*
X656587Y540813D01*
X656573Y540979D01*
X656560Y541146D01*
X656490Y541520D01*
X656407Y541908D01*
X656282Y542269D01*
X656199Y542449D01*
X656116Y542602D01*
Y542616D01*
X656088Y542644D01*
X656060Y542685D01*
X656033Y542741D01*
X655922Y542879D01*
X655783Y543046D01*
X655603Y543226D01*
X655395Y543406D01*
X655159Y543559D01*
X654909Y543684D01*
X654882Y543698D01*
X654812Y543711D01*
X654687Y543753D01*
X654507Y543795D01*
X654285Y543822D01*
X654008Y543864D01*
X653841Y543878D01*
X653661D01*
X653481Y543892D01*
D02*
G37*
G36*
X692639Y519069D02*
X689616D01*
Y515893D01*
X692473D01*
X692639Y515907D01*
X692833Y515921D01*
X693055Y515935D01*
X693277Y515962D01*
X693499Y516004D01*
X693693Y516060D01*
X693721Y516073D01*
X693776Y516101D01*
X693860Y516143D01*
X693971Y516198D01*
X694095Y516282D01*
X694220Y516379D01*
X694345Y516503D01*
X694442Y516642D01*
X694456Y516656D01*
X694484Y516711D01*
X694525Y516795D01*
X694581Y516906D01*
X694622Y517030D01*
X694664Y517169D01*
X694692Y517336D01*
X694706Y517502D01*
Y517516D01*
Y517530D01*
X694692Y517613D01*
X694678Y517738D01*
X694650Y517904D01*
X694581Y518070D01*
X694498Y518265D01*
X694373Y518445D01*
X694206Y518625D01*
X694179Y518639D01*
X694109Y518695D01*
X693998Y518764D01*
X693818Y518847D01*
X693610Y518930D01*
X693333Y519000D01*
X693014Y519055D01*
X692639Y519069D01*
D02*
G37*
%LPD*%
D10*
X517500Y480050D02*
G03*
X517500Y480050I-1250J0D01*
G01*
X745000Y528000D02*
G03*
X745000Y528000I-1250J0D01*
G01*
X292500Y685813D02*
Y692477D01*
X295832Y695809D01*
X299165Y692477D01*
Y685813D01*
Y690811D01*
X292500D01*
X302497Y692477D02*
Y687479D01*
X304163Y685813D01*
X309161D01*
Y692477D01*
X319158Y695809D02*
Y685813D01*
X314160D01*
X312493Y687479D01*
Y690811D01*
X314160Y692477D01*
X319158D01*
X322490Y685813D02*
X325823D01*
X324156D01*
Y692477D01*
X322490D01*
X332487Y685813D02*
X335819D01*
X337486Y687479D01*
Y690811D01*
X335819Y692477D01*
X332487D01*
X330821Y690811D01*
Y687479D01*
X332487Y685813D01*
X292500Y667816D02*
Y674481D01*
X295832Y677813D01*
X299165Y674481D01*
Y667816D01*
Y672815D01*
X292500D01*
X302497Y667816D02*
Y674481D01*
X304163D01*
X305829Y672815D01*
Y667816D01*
Y672815D01*
X307495Y674481D01*
X309161Y672815D01*
Y667816D01*
X312493Y664484D02*
Y674481D01*
X317492D01*
X319158Y672815D01*
Y669483D01*
X317492Y667816D01*
X312493D01*
X322490D02*
X325823D01*
X324156D01*
Y677813D01*
X322490D01*
X330821Y667816D02*
X334153D01*
X332487D01*
Y674481D01*
X330821D01*
X340818Y667816D02*
Y676147D01*
Y672815D01*
X339152D01*
X342484D01*
X340818D01*
Y676147D01*
X342484Y677813D01*
X347482Y667816D02*
X350815D01*
X349148D01*
Y674481D01*
X347482D01*
X360811Y667816D02*
X357479D01*
X355813Y669483D01*
Y672815D01*
X357479Y674481D01*
X360811D01*
X362477Y672815D01*
Y671149D01*
X355813D01*
X365810Y674481D02*
Y667816D01*
Y671149D01*
X367476Y672815D01*
X369142Y674481D01*
X370808D01*
X292500Y654819D02*
X294166Y656485D01*
X297498D01*
X299165Y654819D01*
Y653153D01*
X297498Y651487D01*
X295832D01*
X297498D01*
X299165Y649820D01*
Y648154D01*
X297498Y646488D01*
X294166D01*
X292500Y648154D01*
X302497Y654819D02*
X304163Y656485D01*
X307495D01*
X309161Y654819D01*
Y648154D01*
X307495Y646488D01*
X304163D01*
X302497Y648154D01*
Y654819D01*
X322490Y656485D02*
Y646488D01*
X325823Y649820D01*
X329155Y646488D01*
Y656485D01*
X334153Y653153D02*
X337486D01*
X339152Y651487D01*
Y646488D01*
X334153D01*
X332487Y648154D01*
X334153Y649820D01*
X339152D01*
X344150Y654819D02*
Y653153D01*
X342484D01*
X345816D01*
X344150D01*
Y648154D01*
X345816Y646488D01*
X352481Y654819D02*
Y653153D01*
X350815D01*
X354147D01*
X352481D01*
Y648154D01*
X354147Y646488D01*
X292500Y610496D02*
Y620493D01*
X297498D01*
X299165Y618827D01*
Y615494D01*
X297498Y613828D01*
X292500D01*
X295832D02*
X299165Y610496D01*
X304163Y617160D02*
X307495D01*
X309161Y615494D01*
Y610496D01*
X304163D01*
X302497Y612162D01*
X304163Y613828D01*
X309161D01*
X312493Y620493D02*
Y610496D01*
Y615494D01*
X314160Y617160D01*
X317492D01*
X319158Y615494D01*
Y610496D01*
X322490D02*
X325823D01*
X324156D01*
Y617160D01*
X322490D01*
X330821Y610496D02*
Y617160D01*
X332487D01*
X334153Y615494D01*
Y610496D01*
Y615494D01*
X335819Y617160D01*
X337486Y615494D01*
Y610496D01*
X350815D02*
Y617160D01*
X354147Y620493D01*
X357479Y617160D01*
Y610496D01*
Y615494D01*
X350815D01*
X360811Y617160D02*
X367476D01*
X360811Y610496D01*
X367476D01*
X370808D02*
X374140D01*
X372474D01*
Y617160D01*
X370808D01*
X379139D02*
X385803D01*
X379139Y610496D01*
X385803D01*
X299165Y592500D02*
X292500D01*
X299165Y599165D01*
Y600831D01*
X297498Y602497D01*
X294166D01*
X292500Y600831D01*
X302497D02*
X304163Y602497D01*
X307495D01*
X309161Y600831D01*
Y594166D01*
X307495Y592500D01*
X304163D01*
X302497Y594166D01*
Y600831D01*
X319158Y592500D02*
X312493D01*
X319158Y599165D01*
Y600831D01*
X317492Y602497D01*
X314160D01*
X312493Y600831D01*
X327489Y592500D02*
Y602497D01*
X322490Y597498D01*
X329155D01*
D11*
X720550Y411450D02*
X767450D01*
X720550Y306050D02*
Y411450D01*
Y306050D02*
X752500D01*
X541250Y530500D02*
Y585000D01*
Y530500D02*
X552750D01*
X639250Y616000D02*
Y655500D01*
X541250D02*
X639250D01*
X541250Y616000D02*
Y655500D01*
Y655350D02*
X541400Y655500D01*
X639250Y530500D02*
Y585000D01*
X627750Y530500D02*
X639250D01*
X386498Y367701D02*
Y469300D01*
X305499Y367701D02*
Y469301D01*
X386499D01*
X305499Y367701D02*
X386498D01*
X809002Y359200D02*
Y460799D01*
X890001Y359199D02*
Y460799D01*
X809001Y359199D02*
X890001D01*
X809002Y460799D02*
X890001D01*
X670000Y343250D02*
Y385750D01*
X651500D02*
X670000D01*
X651500Y343250D02*
X670000D01*
X651500D02*
Y385750D01*
X532750Y427000D02*
Y477000D01*
X548750Y427000D02*
Y477000D01*
X532750D02*
X548750D01*
X532750Y427000D02*
X548750D01*
X550250Y488250D02*
X556750D01*
X550250Y502250D02*
X556750D01*
X440189Y480061D02*
X464311D01*
X440189Y462939D02*
X464311D01*
X721000Y428000D02*
Y518000D01*
Y428000D02*
X766500Y421000D01*
X721000Y518000D02*
X766500Y525000D01*
Y421000D02*
Y525000D01*
X691250Y341519D02*
Y350980D01*
X707250Y341519D02*
Y350980D01*
X493000Y479750D02*
Y490750D01*
X475000Y479750D02*
Y490750D01*
X669750Y456000D02*
Y498500D01*
X651250D02*
X669750D01*
X651250Y456000D02*
X669750D01*
X651250D02*
Y498500D01*
X418451Y528502D02*
X520050D01*
X418451Y609501D02*
X520051D01*
Y528501D02*
Y609501D01*
X418451Y528502D02*
Y609501D01*
X691000Y480519D02*
Y489981D01*
X707000Y480519D02*
Y489981D01*
X806998Y340747D02*
X805749Y341997D01*
X803250D01*
X802000Y340747D01*
Y339498D01*
X803250Y338248D01*
X805749D01*
X806998Y336998D01*
Y335749D01*
X805749Y334499D01*
X803250D01*
X802000Y335749D01*
X809498Y332000D02*
Y339498D01*
X813246D01*
X814496Y338248D01*
Y335749D01*
X813246Y334499D01*
X809498D01*
X820744D02*
X818245D01*
X816995Y335749D01*
Y338248D01*
X818245Y339498D01*
X820744D01*
X821994Y338248D01*
Y336998D01*
X816995D01*
X825742Y339498D02*
X828242D01*
X829491Y338248D01*
Y334499D01*
X825742D01*
X824493Y335749D01*
X825742Y336998D01*
X829491D01*
X831990Y334499D02*
Y341997D01*
Y336998D02*
X835739Y339498D01*
X831990Y336998D02*
X835739Y334499D01*
X843237D02*
X840738D01*
X839488Y335749D01*
Y338248D01*
X840738Y339498D01*
X843237D01*
X844486Y338248D01*
Y336998D01*
X839488D01*
X846986Y339498D02*
Y334499D01*
Y336998D01*
X848235Y338248D01*
X849485Y339498D01*
X850734D01*
X865730Y341997D02*
X863230D01*
X861981Y340747D01*
Y335749D01*
X863230Y334499D01*
X865730D01*
X866979Y335749D01*
Y340747D01*
X865730Y341997D01*
X869478Y339498D02*
Y335749D01*
X870728Y334499D01*
X874477D01*
Y339498D01*
X878226Y340747D02*
Y339498D01*
X876976D01*
X879475D01*
X878226D01*
Y335749D01*
X879475Y334499D01*
X883224Y332000D02*
Y339498D01*
X886973D01*
X888222Y338248D01*
Y335749D01*
X886973Y334499D01*
X883224D01*
X890722Y339498D02*
Y335749D01*
X891971Y334499D01*
X895720D01*
Y339498D01*
X899469Y340747D02*
Y339498D01*
X898219D01*
X900718D01*
X899469D01*
Y335749D01*
X900718Y334499D01*
X448000Y622000D02*
X439669D01*
X435504Y626165D01*
X439669Y630331D01*
X448000D01*
X441752D01*
Y622000D01*
X439669Y634496D02*
X445917D01*
X448000Y636579D01*
Y642827D01*
X439669D01*
X435504Y655323D02*
X448000D01*
Y649075D01*
X445917Y646992D01*
X441752D01*
X439669Y649075D01*
Y655323D01*
X448000Y659488D02*
Y663653D01*
Y661571D01*
X439669D01*
Y659488D01*
X448000Y671984D02*
Y676149D01*
X445917Y678232D01*
X441752D01*
X439669Y676149D01*
Y671984D01*
X441752Y669901D01*
X445917D01*
X448000Y671984D01*
X435504Y694893D02*
Y699058D01*
Y696976D01*
X448000D01*
Y694893D01*
Y699058D01*
Y705306D02*
X439669D01*
Y711554D01*
X441752Y713637D01*
X448000D01*
D12*
X302540Y322540D02*
Y337775D01*
X310158D01*
X312697Y335236D01*
Y330158D01*
X310158Y327618D01*
X302540D01*
X317775Y330158D02*
X327932D01*
X343167Y322540D02*
X333010D01*
X343167Y332697D01*
Y335236D01*
X340628Y337775D01*
X335549D01*
X333010Y335236D01*
X348245D02*
X350784Y337775D01*
X355863D01*
X358402Y335236D01*
Y325079D01*
X355863Y322540D01*
X350784D01*
X348245Y325079D01*
Y335236D01*
X363480Y337775D02*
Y327618D01*
X368559Y322540D01*
X373637Y327618D01*
Y337775D01*
X302540Y502540D02*
Y517775D01*
X310158D01*
X312697Y515236D01*
Y510158D01*
X310158Y507618D01*
X302540D01*
X317775Y510158D02*
X327932D01*
X322853Y515236D02*
Y505079D01*
X343167Y502540D02*
X333010D01*
X343167Y512697D01*
Y515236D01*
X340628Y517775D01*
X335549D01*
X333010Y515236D01*
X348245D02*
X350784Y517775D01*
X355863D01*
X358402Y515236D01*
Y505079D01*
X355863Y502540D01*
X350784D01*
X348245Y505079D01*
Y515236D01*
X363480Y517775D02*
Y507618D01*
X368559Y502540D01*
X373637Y507618D01*
Y517775D01*
D13*
X660750Y348157D02*
D03*
X660500Y460905D02*
D03*
M02*
